{"glyphs":{"0":{"ha":895,"x_min":61,"x_max":835,"o":"m 449 -15 q 164 117 266 -15 q 61 499 61 250 q 108 782 61 666 q 242 958 156 898 q 449 1018 329 1018 q 731 884 628 1018 q 835 500 835 751 q 733 118 835 251 q 449 -15 631 -15 m 449 151 q 580 231 538 151 q 622 499 622 311 q 579 775 622 692 q 448 858 537 858 q 316 774 359 858 q 272 499 272 690 q 315 231 272 312 q 449 151 358 151 z "},"1":{"ha":594,"x_min":60,"x_max":444,"o":"m 239 0 l 239 752 l 60 752 l 60 867 q 199 883 146 867 q 278 930 252 899 q 310 1004 305 961 l 444 1004 l 444 0 l 239 0 z "},"2":{"ha":882,"x_min":60,"x_max":817,"o":"m 78 0 l 78 100 l 78 151 q 107 284 78 228 q 182 381 135 340 q 285 453 229 422 q 397 513 341 485 q 500 568 453 540 q 576 631 547 597 q 604 713 604 666 q 562 812 604 774 q 447 850 520 850 q 319 806 372 850 q 253 674 266 763 l 60 674 q 105 848 61 770 q 235 972 148 926 q 453 1018 322 1018 q 647 980 565 1018 q 773 874 728 942 q 817 715 817 806 q 790 584 817 639 q 716 490 762 529 q 615 422 670 451 q 506 368 560 393 q 406 317 451 343 q 332 258 360 291 q 304 180 304 226 l 304 171 l 816 171 l 816 0 l 78 0 z "},"3":{"ha":924,"x_min":61,"x_max":863,"o":"m 444 -15 q 239 25 324 -15 q 108 137 153 64 q 61 310 63 210 l 256 310 q 323 187 271 225 q 447 149 375 149 q 554 167 509 149 q 623 217 599 185 q 647 291 647 249 q 622 365 647 334 q 553 414 597 397 q 453 433 510 432 l 358 437 l 358 598 l 444 603 q 538 623 498 605 q 601 671 578 641 q 624 740 624 701 q 601 803 624 776 q 538 846 578 831 q 445 861 497 861 q 357 845 397 861 q 291 793 317 829 q 261 695 265 756 l 67 695 q 118 875 67 803 q 256 982 169 947 q 449 1018 343 1018 q 650 989 562 1018 q 788 900 738 960 q 839 749 839 840 q 796 618 839 674 q 656 528 753 561 q 758 481 711 513 q 834 401 806 450 q 863 285 863 353 q 830 155 863 211 q 740 60 797 99 q 606 3 682 22 q 444 -15 531 -15 z "},"4":{"ha":911,"x_min":60,"x_max":872,"o":"m 522 0 l 522 222 l 60 222 l 60 389 l 517 1004 l 717 1004 l 717 392 l 872 392 l 872 222 l 717 222 l 717 0 l 522 0 m 247 392 l 522 392 l 522 760 l 247 392 z "},"5":{"ha":938,"x_min":61,"x_max":876,"o":"m 485 -15 q 301 15 386 -15 q 155 99 217 46 q 61 221 93 152 l 219 315 q 281 230 247 267 q 359 170 315 192 q 464 148 404 148 q 609 196 554 148 q 664 321 664 244 q 639 408 664 369 q 572 469 615 447 q 471 491 528 491 q 413 486 440 491 q 357 466 385 481 q 295 426 329 452 q 282 422 285 422 q 267 426 278 422 l 120 494 l 166 1004 l 811 1004 l 803 838 l 326 838 l 307 596 q 413 641 363 627 q 524 655 463 655 q 704 617 624 655 q 830 506 783 579 q 876 328 876 433 q 828 145 876 222 q 693 26 781 68 q 485 -15 605 -15 z "},"6":{"ha":917,"x_min":61,"x_max":856,"o":"m 474 -15 q 253 47 347 -15 q 111 220 160 108 q 61 483 61 332 q 111 768 61 648 q 256 953 162 888 q 483 1018 351 1018 q 657 984 577 1018 q 787 884 737 949 q 842 728 838 819 l 657 728 q 596 825 639 792 q 487 858 553 858 q 367 817 415 858 q 298 702 319 776 q 287 531 277 628 q 345 587 310 564 q 424 623 381 610 q 515 635 468 635 q 694 598 617 635 q 813 490 770 560 q 856 328 856 421 q 808 152 856 229 q 674 30 760 74 q 474 -15 588 -15 m 467 140 q 555 163 516 140 q 618 226 594 185 q 642 318 642 266 q 619 410 642 374 q 557 466 596 447 q 468 484 517 484 q 385 465 425 484 q 320 416 345 446 q 294 356 294 387 q 316 241 294 289 q 377 166 338 192 q 467 140 416 140 z "},"7":{"ha":869,"x_min":60,"x_max":810,"o":"m 242 0 q 270 155 248 61 q 335 361 292 248 q 443 597 378 475 q 598 838 508 719 l 60 838 l 60 1004 l 810 1004 l 810 838 q 714 697 762 778 q 621 524 665 616 q 542 337 577 431 q 485 156 506 242 q 461 0 463 69 l 242 0 z "},"8":{"ha":932,"x_min":61,"x_max":871,"o":"m 465 -15 q 253 21 344 -15 q 112 123 163 57 q 61 278 61 189 q 90 388 61 336 q 162 475 118 440 q 252 521 206 511 q 147 604 190 550 q 104 735 104 658 q 152 890 104 827 q 281 985 199 953 q 465 1018 363 1018 q 650 985 569 1018 q 779 890 732 953 q 826 735 826 827 q 784 604 826 658 q 680 521 742 550 q 770 475 726 511 q 842 388 814 440 q 871 278 871 336 q 820 123 871 189 q 679 21 770 57 q 465 -15 588 -15 m 465 138 q 605 178 554 138 q 655 284 655 218 q 632 362 655 328 q 567 415 609 396 q 465 435 524 435 q 365 415 408 435 q 300 362 323 396 q 277 284 277 328 q 328 178 277 218 q 465 138 378 138 m 465 599 q 580 636 535 599 q 624 740 624 674 q 579 843 624 805 q 465 881 534 881 q 352 843 397 881 q 307 740 307 805 q 352 636 307 674 q 465 599 397 599 z "},"9":{"ha":915,"x_min":64,"x_max":854,"o":"m 430 -15 q 255 21 336 -15 q 122 123 174 57 q 65 276 71 188 l 258 276 q 313 182 270 218 q 422 145 356 145 q 548 179 494 145 q 630 288 603 213 q 649 482 658 362 q 595 418 630 445 q 515 375 561 390 q 413 360 469 360 q 232 399 311 360 q 109 509 153 438 q 64 678 64 580 q 111 853 64 776 q 243 974 158 931 q 442 1018 328 1018 q 662 957 569 1018 q 805 785 755 897 q 854 523 854 674 q 803 223 854 343 q 657 44 752 103 q 430 -15 562 -15 m 448 522 q 530 541 490 522 q 596 589 570 560 q 622 649 622 618 q 600 765 622 717 q 539 839 578 813 q 448 865 500 865 q 363 842 400 865 q 303 780 325 820 q 282 687 282 740 q 328 565 282 608 q 448 522 374 522 z "},"A":{"ha":1009,"x_min":38,"x_max":971,"o":"m 38 0 l 397 1004 l 612 1004 l 971 0 l 769 0 l 687 233 l 325 233 l 242 0 l 38 0 m 371 410 l 638 410 l 505 809 l 371 410 z "},"Á":{"ha":1009,"x_min":38,"x_max":971,"o":"m 38 0 l 397 1004 l 612 1004 l 971 0 l 769 0 l 687 233 l 325 233 l 242 0 l 38 0 m 371 410 l 638 410 l 505 809 l 371 410 m 429 1088 l 572 1290 l 781 1290 l 575 1088 l 429 1088 z "},"Ă":{"ha":1009,"x_min":38,"x_max":971,"o":"m 38 0 l 397 1004 l 612 1004 l 971 0 l 769 0 l 687 233 l 325 233 l 242 0 l 38 0 m 371 410 l 638 410 l 505 809 l 371 410 m 505 1088 q 395 1108 447 1088 q 309 1167 344 1128 q 262 1265 274 1207 l 390 1265 q 430 1209 400 1231 q 505 1187 460 1187 q 580 1209 549 1187 q 622 1265 610 1231 l 749 1265 q 701 1168 737 1207 q 615 1108 666 1128 q 505 1088 564 1088 z "},"Ắ":{"ha":1009,"x_min":38,"x_max":971,"o":"m 38 0 l 397 1004 l 612 1004 l 971 0 l 769 0 l 687 233 l 325 233 l 242 0 l 38 0 m 371 410 l 638 410 l 505 809 l 371 410 m 506 1088 q 396 1108 447 1088 q 310 1167 345 1128 q 263 1265 274 1207 l 390 1265 q 431 1209 401 1231 q 506 1187 460 1187 q 580 1209 550 1187 q 622 1265 610 1231 l 749 1265 q 702 1168 738 1207 q 616 1108 667 1128 q 506 1088 565 1088 m 451 1306 l 556 1487 l 713 1487 l 556 1306 l 451 1306 z "},"Ặ":{"ha":1009,"x_min":38,"x_max":971,"o":"m 38 0 l 397 1004 l 612 1004 l 971 0 l 769 0 l 687 233 l 325 233 l 242 0 l 38 0 m 371 410 l 638 410 l 505 809 l 371 410 m 408 -276 l 408 -111 l 602 -111 l 602 -276 l 408 -276 m 505 1088 q 395 1108 447 1088 q 309 1167 344 1128 q 262 1265 274 1207 l 390 1265 q 430 1209 400 1231 q 505 1187 460 1187 q 580 1209 549 1187 q 622 1265 610 1231 l 749 1265 q 701 1168 737 1207 q 615 1108 666 1128 q 505 1088 564 1088 z "},"Ằ":{"ha":1009,"x_min":38,"x_max":971,"o":"m 38 0 l 397 1004 l 612 1004 l 971 0 l 769 0 l 687 233 l 325 233 l 242 0 l 38 0 m 371 410 l 638 410 l 505 809 l 371 410 m 506 1088 q 396 1108 447 1088 q 310 1167 345 1128 q 263 1265 274 1207 l 390 1265 q 431 1209 401 1231 q 506 1187 460 1187 q 580 1209 550 1187 q 622 1265 610 1231 l 749 1265 q 702 1168 738 1207 q 616 1108 667 1128 q 506 1088 565 1088 m 460 1306 l 302 1487 l 459 1487 l 569 1306 l 460 1306 z "},"Ẳ":{"ha":1009,"x_min":38,"x_max":971,"o":"m 38 0 l 397 1004 l 612 1004 l 971 0 l 769 0 l 687 233 l 325 233 l 242 0 l 38 0 m 371 410 l 638 410 l 505 809 l 371 410 m 506 1088 q 396 1108 447 1088 q 310 1167 345 1128 q 263 1265 274 1207 l 390 1265 q 431 1209 401 1231 q 506 1187 460 1187 q 580 1209 550 1187 q 622 1265 610 1231 l 749 1265 q 702 1168 738 1207 q 616 1108 667 1128 q 506 1088 565 1088 m 512 1253 l 464 1328 q 501 1369 491 1346 q 496 1415 510 1392 q 456 1438 483 1436 q 404 1422 429 1439 l 356 1496 q 460 1528 407 1528 q 576 1467 536 1528 q 598 1352 613 1408 q 512 1253 582 1295 z "},"Ẵ":{"ha":1009,"x_min":38,"x_max":971,"o":"m 38 0 l 397 1004 l 612 1004 l 971 0 l 769 0 l 687 233 l 325 233 l 242 0 l 38 0 m 371 410 l 638 410 l 505 809 l 371 410 m 506 1088 q 396 1108 447 1088 q 310 1167 345 1128 q 263 1265 274 1207 l 390 1265 q 431 1209 401 1231 q 506 1187 460 1187 q 580 1209 550 1187 q 622 1265 610 1231 l 749 1265 q 702 1168 738 1207 q 616 1108 667 1128 q 506 1088 565 1088 m 294 1331 l 264 1438 q 319 1483 289 1464 q 397 1501 350 1501 q 471 1491 436 1501 q 538 1469 506 1480 q 602 1458 571 1458 q 667 1474 638 1458 q 717 1507 696 1490 l 743 1386 q 685 1353 721 1369 q 603 1338 649 1338 q 532 1348 564 1338 q 469 1367 500 1358 q 403 1376 439 1376 q 345 1365 369 1376 q 294 1331 322 1354 z "},"Â":{"ha":1009,"x_min":38,"x_max":971,"o":"m 38 0 l 397 1004 l 612 1004 l 971 0 l 769 0 l 687 233 l 325 233 l 242 0 l 38 0 m 371 410 l 638 410 l 505 809 l 371 410 m 251 1088 l 434 1268 l 574 1268 l 753 1088 l 594 1088 l 503 1185 l 401 1088 l 251 1088 z "},"Ấ":{"ha":1009,"x_min":38,"x_max":971,"o":"m 38 0 l 397 1004 l 612 1004 l 971 0 l 769 0 l 687 233 l 325 233 l 242 0 l 38 0 m 371 410 l 638 410 l 505 809 l 371 410 m 252 1088 l 435 1268 l 576 1268 l 754 1088 l 596 1088 l 504 1185 l 403 1088 l 252 1088 m 663 1257 l 768 1439 l 924 1439 l 768 1257 l 663 1257 z "},"Ậ":{"ha":1009,"x_min":38,"x_max":971,"o":"m 38 0 l 397 1004 l 612 1004 l 971 0 l 769 0 l 687 233 l 325 233 l 242 0 l 38 0 m 371 410 l 638 410 l 505 809 l 371 410 m 408 -276 l 408 -111 l 602 -111 l 602 -276 l 408 -276 m 252 1088 l 435 1268 l 576 1268 l 754 1088 l 596 1088 l 504 1185 l 403 1088 l 252 1088 z "},"Ầ":{"ha":1009,"x_min":38,"x_max":971,"o":"m 38 0 l 397 1004 l 612 1004 l 971 0 l 769 0 l 687 233 l 325 233 l 242 0 l 38 0 m 371 410 l 638 410 l 505 809 l 371 410 m 252 1088 l 435 1268 l 576 1268 l 754 1088 l 596 1088 l 504 1185 l 403 1088 l 252 1088 m 723 1257 l 565 1438 l 722 1438 l 832 1257 l 723 1257 z "},"Ẩ":{"ha":1009,"x_min":38,"x_max":971,"o":"m 38 0 l 397 1004 l 612 1004 l 971 0 l 769 0 l 687 233 l 325 233 l 242 0 l 38 0 m 371 410 l 638 410 l 505 809 l 371 410 m 256 1088 l 440 1268 l 580 1268 l 758 1088 l 600 1088 l 508 1185 l 407 1088 l 256 1088 m 712 1226 l 664 1301 q 701 1342 692 1319 q 696 1388 710 1365 q 656 1410 683 1409 q 604 1395 629 1412 l 556 1469 q 682 1500 620 1510 q 776 1440 744 1490 q 798 1325 814 1381 q 712 1226 783 1268 z "},"Ẫ":{"ha":1009,"x_min":38,"x_max":971,"o":"m 38 0 l 397 1004 l 612 1004 l 971 0 l 769 0 l 687 233 l 325 233 l 242 0 l 38 0 m 371 410 l 638 410 l 505 809 l 371 410 m 253 1088 l 437 1268 l 577 1268 l 756 1088 l 597 1088 l 506 1185 l 404 1088 l 253 1088 m 295 1332 l 265 1438 q 320 1483 290 1465 q 398 1502 351 1502 q 472 1491 437 1502 q 539 1470 506 1481 q 603 1459 572 1459 q 668 1475 639 1459 q 718 1508 697 1490 l 744 1387 q 686 1354 722 1369 q 603 1338 650 1338 q 533 1348 565 1338 q 470 1368 501 1358 q 404 1377 440 1377 q 346 1366 369 1377 q 295 1332 323 1355 z "},"Ȁ":{"ha":1009,"x_min":38,"x_max":971,"o":"m 38 0 l 397 1004 l 612 1004 l 971 0 l 769 0 l 687 233 l 325 233 l 242 0 l 38 0 m 371 410 l 638 410 l 505 809 l 371 410 m 307 1088 l 90 1290 l 281 1290 l 453 1088 l 307 1088 m 551 1088 l 373 1290 l 558 1290 l 698 1088 l 551 1088 z "},"Ä":{"ha":1009,"x_min":38,"x_max":971,"o":"m 38 0 l 397 1004 l 612 1004 l 971 0 l 769 0 l 687 233 l 325 233 l 242 0 l 38 0 m 371 410 l 638 410 l 505 809 l 371 410 m 571 1125 l 573 1290 l 763 1290 l 761 1125 l 571 1125 m 247 1125 l 249 1290 l 439 1290 l 438 1125 l 247 1125 z "},"Ạ":{"ha":1009,"x_min":38,"x_max":971,"o":"m 38 0 l 397 1004 l 612 1004 l 971 0 l 769 0 l 687 233 l 325 233 l 242 0 l 38 0 m 371 410 l 638 410 l 505 809 l 371 410 m 408 -276 l 408 -111 l 602 -111 l 602 -276 l 408 -276 z "},"À":{"ha":1009,"x_min":38,"x_max":971,"o":"m 38 0 l 397 1004 l 612 1004 l 971 0 l 769 0 l 687 233 l 325 233 l 242 0 l 38 0 m 371 410 l 638 410 l 505 809 l 371 410 m 430 1088 l 224 1290 l 433 1290 l 576 1088 l 430 1088 z "},"Ả":{"ha":1009,"x_min":38,"x_max":971,"o":"m 38 0 l 397 1004 l 612 1004 l 971 0 l 769 0 l 687 233 l 325 233 l 242 0 l 38 0 m 371 410 l 638 410 l 505 809 l 371 410 m 563 1088 l 515 1163 q 552 1203 542 1180 q 547 1249 561 1226 q 507 1272 534 1270 q 455 1256 480 1273 l 408 1330 q 533 1361 471 1371 q 626 1301 595 1351 q 649 1186 665 1242 q 563 1088 633 1129 z "},"Ȃ":{"ha":1009,"x_min":38,"x_max":971,"o":"m 38 0 l 397 1004 l 612 1004 l 971 0 l 769 0 l 687 233 l 325 233 l 242 0 l 38 0 m 371 410 l 638 410 l 505 809 l 371 410 m 260 1106 q 308 1204 272 1165 q 394 1263 343 1243 q 503 1283 444 1283 q 613 1263 562 1283 q 700 1203 664 1242 q 747 1106 735 1164 l 619 1106 q 578 1162 608 1140 q 503 1184 547 1184 q 428 1162 458 1184 q 388 1106 399 1140 l 260 1106 z "},"Ā":{"ha":1009,"x_min":38,"x_max":971,"o":"m 38 0 l 397 1004 l 612 1004 l 971 0 l 769 0 l 687 233 l 325 233 l 242 0 l 38 0 m 371 410 l 638 410 l 505 809 l 371 410 m 261 1123 l 261 1253 l 749 1253 l 749 1123 l 261 1123 z "},"Ą":{"ha":1009,"x_min":38,"x_max":993,"o":"m 38 0 l 397 1004 l 612 1004 l 971 0 l 769 0 l 687 233 l 325 233 l 242 0 l 38 0 m 371 410 l 638 410 l 505 809 l 371 410 m 847 -238 q 736 -209 776 -238 q 697 -124 697 -180 q 723 -54 697 -86 q 830 6 749 -22 l 972 2 q 870 -48 898 -25 q 843 -99 843 -71 q 855 -133 843 -122 q 893 -144 867 -144 q 949 -134 925 -144 q 994 -113 974 -125 l 994 -205 q 934 -227 974 -217 q 847 -238 894 -238 z "},"Å":{"ha":1009,"x_min":38,"x_max":971,"o":"m 38 0 l 397 1004 l 612 1004 l 971 0 l 769 0 l 687 233 l 325 233 l 242 0 l 38 0 m 371 410 l 638 410 l 505 809 l 371 410 m 505 1074 q 398 1119 442 1074 q 354 1228 354 1163 q 399 1331 354 1289 q 505 1374 443 1374 q 581 1354 547 1374 q 636 1300 615 1334 q 656 1225 656 1267 q 612 1118 656 1162 q 505 1074 568 1074 m 503 1153 q 552 1175 533 1153 q 572 1224 572 1197 q 552 1274 572 1254 q 503 1293 533 1293 q 454 1274 475 1293 q 433 1224 433 1254 q 454 1175 433 1197 q 503 1153 475 1153 z "},"Ǻ":{"ha":1009,"x_min":38,"x_max":971,"o":"m 605 1306 l 563 1207 q 625 1158 601 1192 q 649 1081 649 1124 q 607 981 649 1019 q 504 942 565 942 q 402 982 444 942 q 360 1083 360 1022 q 390 1167 360 1132 q 465 1213 419 1201 l 486 1306 l 605 1306 m 503 1008 q 552 1030 532 1008 q 573 1079 573 1051 q 552 1128 573 1109 q 503 1148 532 1148 q 454 1128 476 1148 q 433 1079 433 1109 q 454 1030 433 1051 q 503 1008 476 1008 m 38 0 l 397 1004 l 612 1004 l 971 0 l 769 0 l 687 233 l 325 233 l 242 0 l 38 0 m 371 410 l 638 410 l 505 809 l 371 410 z "},"Ã":{"ha":1009,"x_min":38,"x_max":971,"o":"m 38 0 l 397 1004 l 612 1004 l 971 0 l 769 0 l 687 233 l 325 233 l 242 0 l 38 0 m 371 410 l 638 410 l 505 809 l 371 410 m 300 1113 l 269 1219 q 324 1264 294 1245 q 402 1283 355 1283 q 476 1272 441 1283 q 543 1251 511 1262 q 607 1240 576 1240 q 672 1256 644 1240 q 723 1288 701 1272 l 748 1168 q 690 1135 726 1151 q 608 1119 654 1119 q 537 1129 569 1119 q 475 1148 506 1139 q 409 1158 444 1158 q 350 1147 374 1158 q 300 1113 327 1136 z "},"Æ":{"ha":1444,"x_min":0,"x_max":1372,"o":"m 0 0 l 538 1004 l 1358 1004 l 1357 835 l 881 835 l 881 589 l 1293 589 l 1293 422 l 881 422 l 881 169 l 1372 169 l 1372 0 l 651 0 l 651 235 l 327 235 l 203 0 l 0 0 m 403 410 l 651 410 l 651 872 l 403 410 z "},"Ǽ":{"ha":1444,"x_min":0,"x_max":1372,"o":"m 0 0 l 538 1004 l 1358 1004 l 1357 835 l 881 835 l 881 589 l 1293 589 l 1293 422 l 881 422 l 881 169 l 1372 169 l 1372 0 l 651 0 l 651 235 l 327 235 l 203 0 l 0 0 m 403 410 l 651 410 l 651 872 l 403 410 m 851 1088 l 994 1290 l 1203 1290 l 997 1088 l 851 1088 z "},"B":{"ha":951,"x_min":113,"x_max":888,"o":"m 113 0 l 113 1004 l 476 1004 q 769 936 674 1004 q 865 741 865 869 q 826 611 865 666 q 690 515 788 556 q 792 472 753 499 q 852 411 831 444 q 881 343 873 378 q 888 272 888 307 q 794 67 888 133 q 493 0 699 0 l 113 0 m 315 157 l 497 157 q 636 194 589 157 q 683 292 683 231 q 660 367 683 337 q 598 413 637 397 q 508 428 558 428 l 315 428 l 315 157 m 315 589 l 508 589 q 568 596 540 589 q 620 619 597 603 q 656 658 642 634 q 669 715 669 682 q 620 814 669 780 q 494 847 571 847 l 315 847 l 315 589 z "},"C":{"ha":997,"x_min":67,"x_max":931,"o":"m 522 -14 q 279 51 381 -14 q 122 235 177 117 q 67 510 67 353 q 122 782 67 669 q 278 957 176 896 q 522 1018 381 1018 q 723 973 635 1018 q 866 849 812 927 q 931 672 921 770 l 718 672 q 683 764 708 724 q 615 828 657 805 q 515 851 574 851 q 394 817 445 851 q 317 708 344 783 q 290 508 290 632 q 350 236 290 320 q 515 153 410 153 q 615 180 574 153 q 683 250 657 206 q 718 347 708 294 l 931 347 q 896 211 922 276 q 823 95 870 146 q 701 15 776 44 q 522 -14 627 -14 z "},"Ć":{"ha":997,"x_min":67,"x_max":931,"o":"m 522 -14 q 279 51 381 -14 q 122 235 177 117 q 67 510 67 353 q 122 782 67 669 q 278 957 176 896 q 522 1018 381 1018 q 723 973 635 1018 q 866 849 812 927 q 931 672 921 770 l 718 672 q 683 764 708 724 q 615 828 657 805 q 515 851 574 851 q 394 817 445 851 q 317 708 344 783 q 290 508 290 632 q 350 236 290 320 q 515 153 410 153 q 615 180 574 153 q 683 250 657 206 q 718 347 708 294 l 931 347 q 896 211 922 276 q 823 95 870 146 q 701 15 776 44 q 522 -14 627 -14 m 444 1088 l 587 1290 l 796 1290 l 590 1088 l 444 1088 z "},"Č":{"ha":997,"x_min":67,"x_max":931,"o":"m 522 -14 q 279 51 381 -14 q 122 235 177 117 q 67 510 67 353 q 122 782 67 669 q 278 957 176 896 q 522 1018 381 1018 q 723 973 635 1018 q 866 849 812 927 q 931 672 921 770 l 718 672 q 683 764 708 724 q 615 828 657 805 q 515 851 574 851 q 394 817 445 851 q 317 708 344 783 q 290 508 290 632 q 350 236 290 320 q 515 153 410 153 q 615 180 574 153 q 683 250 657 206 q 718 347 708 294 l 931 347 q 896 211 922 276 q 823 95 870 146 q 701 15 776 44 q 522 -14 627 -14 m 449 1088 l 267 1269 l 417 1269 l 519 1165 l 610 1269 l 769 1269 l 590 1088 l 449 1088 z "},"Ç":{"ha":997,"x_min":67,"x_max":931,"o":"m 517 -295 q 432 -287 473 -295 q 357 -258 392 -278 l 385 -190 q 434 -213 406 -203 q 492 -224 461 -224 q 543 -212 525 -224 q 561 -181 561 -201 q 535 -139 561 -153 q 443 -124 508 -124 q 432 -121 435 -124 q 432 -110 428 -119 l 483 7 l 573 7 l 542 -74 q 625 -92 594 -76 q 669 -134 656 -109 q 683 -183 683 -158 q 659 -243 683 -218 q 599 -282 636 -269 q 517 -295 561 -295 m 522 -14 q 279 51 381 -14 q 122 235 177 117 q 67 510 67 353 q 122 782 67 669 q 278 957 176 896 q 522 1018 381 1018 q 723 973 635 1018 q 866 849 812 927 q 931 672 921 770 l 718 672 q 683 764 708 724 q 615 828 657 805 q 515 851 574 851 q 394 817 445 851 q 317 708 344 783 q 290 508 290 632 q 350 236 290 320 q 515 153 410 153 q 615 180 574 153 q 683 250 657 206 q 718 347 708 294 l 931 347 q 896 211 922 276 q 823 95 870 146 q 701 15 776 44 q 522 -14 627 -14 z "},"Ĉ":{"ha":997,"x_min":67,"x_max":931,"o":"m 522 -14 q 279 51 381 -14 q 122 235 177 117 q 67 510 67 353 q 122 782 67 669 q 278 957 176 896 q 522 1018 381 1018 q 723 973 635 1018 q 866 849 812 927 q 931 672 921 770 l 718 672 q 683 764 708 724 q 615 828 657 805 q 515 851 574 851 q 394 817 445 851 q 317 708 344 783 q 290 508 290 632 q 350 236 290 320 q 515 153 410 153 q 615 180 574 153 q 683 250 657 206 q 718 347 708 294 l 931 347 q 896 211 922 276 q 823 95 870 146 q 701 15 776 44 q 522 -14 627 -14 m 267 1088 l 450 1268 l 590 1268 l 769 1088 l 610 1088 l 519 1185 l 417 1088 l 267 1088 z "},"Ċ":{"ha":997,"x_min":67,"x_max":931,"o":"m 522 -14 q 279 51 381 -14 q 122 235 177 117 q 67 510 67 353 q 122 782 67 669 q 278 957 176 896 q 522 1018 381 1018 q 723 973 635 1018 q 866 849 812 927 q 931 672 921 770 l 718 672 q 683 764 708 724 q 615 828 657 805 q 515 851 574 851 q 394 817 445 851 q 317 708 344 783 q 290 508 290 632 q 350 236 290 320 q 515 153 410 153 q 615 180 574 153 q 683 250 657 206 q 718 347 708 294 l 931 347 q 896 211 922 276 q 823 95 870 146 q 701 15 776 44 q 522 -14 627 -14 m 422 1125 l 422 1290 l 616 1290 l 616 1125 l 422 1125 z "},"D":{"ha":1000,"x_min":113,"x_max":933,"o":"m 113 0 l 113 1004 q 155 1004 120 1004 q 238 1004 190 1004 q 333 1004 285 1004 q 413 1003 381 1003 q 710 938 595 999 q 880 767 826 876 q 933 507 933 657 q 876 237 933 351 q 702 62 819 124 q 406 0 585 0 l 113 0 m 317 164 l 410 164 q 566 197 496 164 q 679 306 637 231 q 722 508 722 382 q 684 699 722 626 q 577 806 647 772 q 413 840 508 840 l 317 840 l 317 164 z "},"Ð":{"ha":1040,"x_min":49,"x_max":974,"o":"m 49 425 l 49 573 l 558 573 l 558 425 l 49 425 m 152 0 l 152 1004 q 195 1004 160 1004 q 278 1004 231 1004 q 373 1004 326 1004 q 453 1003 421 1003 q 750 938 635 999 q 919 767 865 876 q 974 507 974 657 q 917 237 974 351 q 743 62 860 124 q 446 0 626 0 l 152 0 m 357 164 l 450 164 q 607 197 536 164 q 719 306 677 231 q 761 508 761 382 q 724 699 761 626 q 617 806 687 772 q 453 840 548 840 l 357 840 l 357 164 z "},"Ď":{"ha":1000,"x_min":113,"x_max":933,"o":"m 113 0 l 113 1004 q 155 1004 120 1004 q 238 1004 190 1004 q 333 1004 285 1004 q 413 1003 381 1003 q 710 938 595 999 q 880 767 826 876 q 933 507 933 657 q 876 237 933 351 q 702 62 819 124 q 406 0 585 0 l 113 0 m 317 164 l 410 164 q 566 197 496 164 q 679 306 637 231 q 722 508 722 382 q 684 699 722 626 q 577 806 647 772 q 413 840 508 840 l 317 840 l 317 164 m 426 1088 l 243 1269 l 394 1269 l 495 1165 l 587 1269 l 745 1269 l 567 1088 l 426 1088 z "},"Đ":{"ha":1040,"x_min":49,"x_max":974,"o":"m 49 425 l 49 573 l 558 573 l 558 425 l 49 425 m 152 0 l 152 1004 q 195 1004 160 1004 q 278 1004 231 1004 q 373 1004 326 1004 q 453 1003 421 1003 q 750 938 635 999 q 919 767 865 876 q 974 507 974 657 q 917 237 974 351 q 743 62 860 124 q 446 0 626 0 l 152 0 m 357 164 l 450 164 q 607 197 536 164 q 719 306 677 231 q 761 508 761 382 q 724 699 761 626 q 617 806 687 772 q 453 840 548 840 l 357 840 l 357 164 z "},"Ḍ":{"ha":1000,"x_min":113,"x_max":933,"o":"m 113 0 l 113 1004 q 155 1004 120 1004 q 238 1004 190 1004 q 333 1004 285 1004 q 413 1003 381 1003 q 710 938 595 999 q 880 767 826 876 q 933 507 933 657 q 876 237 933 351 q 702 62 819 124 q 406 0 585 0 l 113 0 m 317 164 l 410 164 q 566 197 496 164 q 679 306 637 231 q 722 508 722 382 q 684 699 722 626 q 577 806 647 772 q 413 840 508 840 l 317 840 l 317 164 m 395 -276 l 395 -111 l 589 -111 l 589 -276 l 395 -276 z "},"E":{"ha":881,"x_min":113,"x_max":809,"o":"m 113 0 l 113 1004 l 802 1004 l 801 833 l 316 833 l 316 590 l 738 590 l 738 422 l 315 422 l 315 173 l 809 172 l 809 0 l 113 0 z "},"É":{"ha":881,"x_min":113,"x_max":809,"o":"m 113 0 l 113 1004 l 802 1004 l 801 833 l 316 833 l 316 590 l 738 590 l 738 422 l 315 422 l 315 173 l 809 172 l 809 0 l 113 0 m 383 1088 l 526 1290 l 735 1290 l 528 1088 l 383 1088 z "},"Ĕ":{"ha":881,"x_min":113,"x_max":809,"o":"m 113 0 l 113 1004 l 802 1004 l 801 833 l 316 833 l 316 590 l 738 590 l 738 422 l 315 422 l 315 173 l 809 172 l 809 0 l 113 0 m 458 1088 q 348 1108 399 1088 q 262 1167 297 1128 q 215 1265 226 1207 l 342 1265 q 383 1209 353 1231 q 458 1187 413 1187 q 532 1209 502 1187 q 574 1265 563 1231 l 701 1265 q 654 1168 690 1207 q 568 1108 619 1128 q 458 1088 517 1088 z "},"Ě":{"ha":881,"x_min":113,"x_max":809,"o":"m 113 0 l 113 1004 l 802 1004 l 801 833 l 316 833 l 316 590 l 738 590 l 738 422 l 315 422 l 315 173 l 809 172 l 809 0 l 113 0 m 388 1088 l 206 1269 l 356 1269 l 458 1165 l 549 1269 l 708 1269 l 529 1088 l 388 1088 z "},"Ê":{"ha":881,"x_min":113,"x_max":809,"o":"m 113 0 l 113 1004 l 802 1004 l 801 833 l 316 833 l 316 590 l 738 590 l 738 422 l 315 422 l 315 173 l 809 172 l 809 0 l 113 0 m 206 1088 l 389 1268 l 529 1268 l 708 1088 l 549 1088 l 458 1185 l 356 1088 l 206 1088 z "},"Ế":{"ha":881,"x_min":113,"x_max":877,"o":"m 113 0 l 113 1004 l 802 1004 l 801 833 l 316 833 l 316 590 l 738 590 l 738 422 l 315 422 l 315 173 l 809 172 l 809 0 l 113 0 m 206 1088 l 389 1268 l 529 1268 l 708 1088 l 549 1088 l 458 1185 l 356 1088 l 206 1088 m 616 1257 l 722 1439 l 878 1439 l 722 1257 l 616 1257 z "},"Ệ":{"ha":881,"x_min":113,"x_max":809,"o":"m 113 0 l 113 1004 l 802 1004 l 801 833 l 316 833 l 316 590 l 738 590 l 738 422 l 315 422 l 315 173 l 809 172 l 809 0 l 113 0 m 374 -276 l 374 -111 l 567 -111 l 567 -276 l 374 -276 m 206 1088 l 389 1268 l 529 1268 l 708 1088 l 549 1088 l 458 1185 l 356 1088 l 206 1088 z "},"Ề":{"ha":881,"x_min":113,"x_max":809,"o":"m 113 0 l 113 1004 l 802 1004 l 801 833 l 316 833 l 316 590 l 738 590 l 738 422 l 315 422 l 315 173 l 809 172 l 809 0 l 113 0 m 206 1088 l 389 1268 l 529 1268 l 708 1088 l 549 1088 l 458 1185 l 356 1088 l 206 1088 m 676 1257 l 519 1438 l 676 1438 l 785 1257 l 676 1257 z "},"Ể":{"ha":881,"x_min":113,"x_max":809,"o":"m 113 0 l 113 1004 l 802 1004 l 801 833 l 316 833 l 316 590 l 738 590 l 738 422 l 315 422 l 315 173 l 809 172 l 809 0 l 113 0 m 210 1088 l 393 1268 l 533 1268 l 712 1088 l 553 1088 l 462 1185 l 360 1088 l 210 1088 m 665 1226 l 617 1301 q 655 1342 645 1319 q 649 1388 664 1365 q 610 1410 637 1409 q 558 1395 583 1412 l 510 1469 q 636 1500 574 1510 q 729 1440 698 1490 q 752 1325 767 1381 q 665 1226 736 1268 z "},"Ễ":{"ha":881,"x_min":113,"x_max":809,"o":"m 113 0 l 113 1004 l 802 1004 l 801 833 l 316 833 l 316 590 l 738 590 l 738 422 l 315 422 l 315 173 l 809 172 l 809 0 l 113 0 m 207 1088 l 390 1268 l 531 1268 l 709 1088 l 551 1088 l 459 1185 l 358 1088 l 207 1088 m 249 1332 l 218 1438 q 274 1483 243 1465 q 351 1502 304 1502 q 425 1491 390 1502 q 492 1470 460 1481 q 556 1459 525 1459 q 621 1475 592 1459 q 672 1508 650 1490 l 697 1387 q 639 1354 675 1369 q 557 1338 603 1338 q 486 1348 518 1338 q 424 1368 454 1358 q 358 1377 393 1377 q 300 1366 323 1377 q 249 1332 276 1355 z "},"Ȅ":{"ha":881,"x_min":44,"x_max":809,"o":"m 113 0 l 113 1004 l 802 1004 l 801 833 l 316 833 l 316 590 l 738 590 l 738 422 l 315 422 l 315 173 l 809 172 l 809 0 l 113 0 m 260 1088 l 44 1290 l 235 1290 l 406 1088 l 260 1088 m 505 1088 l 326 1290 l 512 1290 l 651 1088 l 505 1088 z "},"Ë":{"ha":881,"x_min":113,"x_max":809,"o":"m 113 0 l 113 1004 l 802 1004 l 801 833 l 316 833 l 316 590 l 738 590 l 738 422 l 315 422 l 315 173 l 809 172 l 809 0 l 113 0 m 524 1125 l 526 1290 l 716 1290 l 715 1125 l 524 1125 m 201 1125 l 203 1290 l 392 1290 l 391 1125 l 201 1125 z "},"Ė":{"ha":881,"x_min":113,"x_max":809,"o":"m 113 0 l 113 1004 l 802 1004 l 801 833 l 316 833 l 316 590 l 738 590 l 738 422 l 315 422 l 315 173 l 809 172 l 809 0 l 113 0 m 361 1125 l 361 1290 l 555 1290 l 555 1125 l 361 1125 z "},"Ẹ":{"ha":881,"x_min":113,"x_max":809,"o":"m 113 0 l 113 1004 l 802 1004 l 801 833 l 316 833 l 316 590 l 738 590 l 738 422 l 315 422 l 315 173 l 809 172 l 809 0 l 113 0 m 374 -276 l 374 -111 l 567 -111 l 567 -276 l 374 -276 z "},"È":{"ha":881,"x_min":113,"x_max":809,"o":"m 113 0 l 113 1004 l 802 1004 l 801 833 l 316 833 l 316 590 l 738 590 l 738 422 l 315 422 l 315 173 l 809 172 l 809 0 l 113 0 m 383 1088 l 178 1290 l 387 1290 l 530 1088 l 383 1088 z "},"Ẻ":{"ha":881,"x_min":113,"x_max":809,"o":"m 113 0 l 113 1004 l 802 1004 l 801 833 l 316 833 l 316 590 l 738 590 l 738 422 l 315 422 l 315 173 l 809 172 l 809 0 l 113 0 m 516 1088 l 468 1163 q 505 1203 496 1180 q 500 1249 515 1226 q 460 1272 488 1270 q 408 1256 433 1273 l 361 1330 q 486 1361 424 1371 q 580 1301 549 1351 q 602 1186 618 1242 q 516 1088 587 1129 z "},"Ȇ":{"ha":881,"x_min":113,"x_max":809,"o":"m 113 0 l 113 1004 l 802 1004 l 801 833 l 316 833 l 316 590 l 738 590 l 738 422 l 315 422 l 315 173 l 809 172 l 809 0 l 113 0 m 213 1106 q 261 1204 226 1165 q 347 1263 297 1243 q 456 1283 398 1283 q 566 1263 515 1283 q 653 1203 617 1242 q 700 1106 689 1164 l 573 1106 q 531 1162 562 1140 q 456 1184 501 1184 q 382 1162 411 1184 q 341 1106 352 1140 l 213 1106 z "},"Ē":{"ha":881,"x_min":113,"x_max":809,"o":"m 113 0 l 113 1004 l 802 1004 l 801 833 l 316 833 l 316 590 l 738 590 l 738 422 l 315 422 l 315 173 l 809 172 l 809 0 l 113 0 m 215 1123 l 215 1253 l 703 1253 l 703 1123 l 215 1123 z "},"Ę":{"ha":881,"x_min":113,"x_max":851,"o":"m 113 0 l 113 1004 l 802 1004 l 801 833 l 316 833 l 316 590 l 738 590 l 738 422 l 315 422 l 315 173 l 809 172 l 809 0 l 113 0 m 706 -234 q 595 -205 635 -234 q 555 -120 555 -176 q 581 -50 555 -82 q 688 10 607 -17 l 830 6 q 729 -44 756 -21 q 701 -95 701 -67 q 713 -128 701 -117 q 751 -140 725 -140 q 808 -130 783 -140 q 852 -109 832 -121 l 852 -201 q 793 -223 833 -212 q 706 -234 753 -234 z "},"Ẽ":{"ha":881,"x_min":113,"x_max":809,"o":"m 113 0 l 113 1004 l 802 1004 l 801 833 l 316 833 l 316 590 l 738 590 l 738 422 l 315 422 l 315 173 l 809 172 l 809 0 l 113 0 m 253 1113 l 222 1219 q 278 1264 247 1245 q 356 1283 308 1283 q 430 1272 394 1283 q 497 1251 465 1262 q 560 1240 529 1240 q 626 1256 597 1240 q 676 1288 654 1272 l 701 1168 q 644 1135 680 1151 q 561 1119 608 1119 q 491 1129 522 1119 q 428 1148 459 1139 q 363 1158 398 1158 q 304 1147 327 1158 q 253 1113 281 1136 z "},"F":{"ha":852,"x_min":113,"x_max":796,"o":"m 113 0 l 113 1004 l 796 1004 l 795 835 l 317 835 l 317 583 l 731 583 l 731 417 l 317 417 l 317 0 l 113 0 z "},"G":{"ha":1054,"x_min":67,"x_max":951,"o":"m 519 -14 q 279 49 381 -14 q 122 227 177 112 q 67 499 67 342 q 125 775 67 659 q 287 955 183 892 q 530 1018 391 1018 q 693 990 619 1018 q 821 912 767 961 q 907 800 876 863 q 940 672 938 738 l 726 672 q 691 759 717 719 q 622 823 664 799 q 525 847 581 847 q 404 812 458 847 q 319 703 350 778 q 288 505 288 628 q 308 340 288 406 q 363 235 328 274 q 442 181 398 197 q 533 165 487 165 q 613 180 578 165 q 673 218 648 194 q 713 270 698 242 q 731 325 727 298 l 739 386 l 531 386 l 531 526 l 951 524 l 951 0 l 813 0 l 813 131 q 750 64 788 97 q 656 8 712 30 q 519 -14 600 -14 z "},"Ğ":{"ha":1054,"x_min":67,"x_max":951,"o":"m 519 -14 q 279 49 381 -14 q 122 227 177 112 q 67 499 67 342 q 125 775 67 659 q 287 955 183 892 q 530 1018 391 1018 q 693 990 619 1018 q 821 912 767 961 q 907 800 876 863 q 940 672 938 738 l 726 672 q 691 759 717 719 q 622 823 664 799 q 525 847 581 847 q 404 812 458 847 q 319 703 350 778 q 288 505 288 628 q 308 340 288 406 q 363 235 328 274 q 442 181 398 197 q 533 165 487 165 q 613 180 578 165 q 673 218 648 194 q 713 270 698 242 q 731 325 727 298 l 739 386 l 531 386 l 531 526 l 951 524 l 951 0 l 813 0 l 813 131 q 750 64 788 97 q 656 8 712 30 q 519 -14 600 -14 m 524 1088 q 415 1108 466 1088 q 328 1167 364 1128 q 281 1265 293 1207 l 409 1265 q 449 1209 419 1231 q 524 1187 479 1187 q 599 1209 569 1187 q 641 1265 629 1231 l 768 1265 q 721 1168 756 1207 q 634 1108 685 1128 q 524 1088 583 1088 z "},"Ĝ":{"ha":1054,"x_min":67,"x_max":951,"o":"m 519 -14 q 279 49 381 -14 q 122 227 177 112 q 67 499 67 342 q 125 775 67 659 q 287 955 183 892 q 530 1018 391 1018 q 693 990 619 1018 q 821 912 767 961 q 907 800 876 863 q 940 672 938 738 l 726 672 q 691 759 717 719 q 622 823 664 799 q 525 847 581 847 q 404 812 458 847 q 319 703 350 778 q 288 505 288 628 q 308 340 288 406 q 363 235 328 274 q 442 181 398 197 q 533 165 487 165 q 613 180 578 165 q 673 218 648 194 q 713 270 698 242 q 731 325 727 298 l 739 386 l 531 386 l 531 526 l 951 524 l 951 0 l 813 0 l 813 131 q 750 64 788 97 q 656 8 712 30 q 519 -14 600 -14 m 272 1088 l 455 1268 l 595 1268 l 774 1088 l 615 1088 l 524 1185 l 422 1088 l 272 1088 z "},"Ģ":{"ha":1054,"x_min":67,"x_max":951,"o":"m 519 -14 q 279 49 381 -14 q 122 227 177 112 q 67 499 67 342 q 125 775 67 659 q 287 955 183 892 q 530 1018 391 1018 q 693 990 619 1018 q 821 912 767 961 q 907 800 876 863 q 940 672 938 738 l 726 672 q 691 759 717 719 q 622 823 664 799 q 525 847 581 847 q 404 812 458 847 q 319 703 350 778 q 288 505 288 628 q 308 340 288 406 q 363 235 328 274 q 442 181 398 197 q 533 165 487 165 q 613 180 578 165 q 673 218 648 194 q 713 270 698 242 q 731 325 727 298 l 739 386 l 531 386 l 531 526 l 951 524 l 951 0 l 813 0 l 813 131 q 750 64 788 97 q 656 8 712 30 q 519 -14 600 -14 m 426 -306 l 490 -202 l 434 -195 l 434 -65 l 606 -65 l 606 -174 l 498 -306 l 426 -306 z "},"Ġ":{"ha":1054,"x_min":67,"x_max":951,"o":"m 519 -14 q 279 49 381 -14 q 122 227 177 112 q 67 499 67 342 q 125 775 67 659 q 287 955 183 892 q 530 1018 391 1018 q 693 990 619 1018 q 821 912 767 961 q 907 800 876 863 q 940 672 938 738 l 726 672 q 691 759 717 719 q 622 823 664 799 q 525 847 581 847 q 404 812 458 847 q 319 703 350 778 q 288 505 288 628 q 308 340 288 406 q 363 235 328 274 q 442 181 398 197 q 533 165 487 165 q 613 180 578 165 q 673 218 648 194 q 713 270 698 242 q 731 325 727 298 l 739 386 l 531 386 l 531 526 l 951 524 l 951 0 l 813 0 l 813 131 q 750 64 788 97 q 656 8 712 30 q 519 -14 600 -14 m 427 1125 l 427 1290 l 621 1290 l 621 1125 l 427 1125 z "},"H":{"ha":1069,"x_min":113,"x_max":957,"o":"m 113 0 l 113 1004 l 315 1004 l 315 601 l 754 601 l 754 1004 l 957 1004 l 957 0 l 754 0 l 754 431 l 315 431 l 315 0 l 113 0 z "},"Ħ":{"ha":1145,"x_min":24,"x_max":1122,"o":"m 24 761 l 24 875 l 1122 875 l 1122 761 l 24 761 m 156 0 l 156 1004 l 358 1004 l 358 601 l 798 601 l 798 1004 l 1001 1004 l 1001 0 l 798 0 l 798 431 l 358 431 l 358 0 l 156 0 z "},"Ĥ":{"ha":1069,"x_min":113,"x_max":957,"o":"m 113 0 l 113 1004 l 315 1004 l 315 601 l 754 601 l 754 1004 l 957 1004 l 957 0 l 754 0 l 754 431 l 315 431 l 315 0 l 113 0 m 282 1091 l 465 1271 l 606 1271 l 784 1091 l 626 1091 l 534 1188 l 433 1091 l 282 1091 z "},"Ḥ":{"ha":1069,"x_min":113,"x_max":957,"o":"m 113 0 l 113 1004 l 315 1004 l 315 601 l 754 601 l 754 1004 l 957 1004 l 957 0 l 754 0 l 754 431 l 315 431 l 315 0 l 113 0 m 444 -276 l 444 -111 l 638 -111 l 638 -276 l 444 -276 z "},"I":{"ha":427,"x_min":113,"x_max":315,"o":"m 113 0 l 113 1004 l 315 1004 l 315 0 l 113 0 z "},"Í":{"ha":427,"x_min":113,"x_max":490,"o":"m 113 0 l 113 1004 l 315 1004 l 315 0 l 113 0 m 138 1088 l 281 1290 l 490 1290 l 284 1088 l 138 1088 z "},"Ĭ":{"ha":427,"x_min":-29,"x_max":458,"o":"m 113 0 l 113 1004 l 315 1004 l 315 0 l 113 0 m 214 1088 q 105 1108 156 1088 q 18 1167 53 1128 q -29 1265 -17 1207 l 99 1265 q 139 1209 109 1231 q 214 1187 169 1187 q 289 1209 258 1187 q 331 1265 319 1231 l 458 1265 q 410 1168 446 1207 q 324 1108 375 1128 q 214 1088 273 1088 z "},"Î":{"ha":427,"x_min":-38,"x_max":464,"o":"m 113 0 l 113 1004 l 315 1004 l 315 0 l 113 0 m -39 1088 l 144 1268 l 285 1268 l 463 1088 l 305 1088 l 213 1185 l 112 1088 l -39 1088 z "},"Ȉ":{"ha":427,"x_min":-200,"x_max":408,"o":"m 113 0 l 113 1004 l 315 1004 l 315 0 l 113 0 m 17 1088 l -200 1290 l -9 1290 l 163 1088 l 17 1088 m 261 1088 l 83 1290 l 268 1290 l 408 1088 l 261 1088 z "},"Ï":{"ha":427,"x_min":-43,"x_max":472,"o":"m 113 0 l 113 1004 l 315 1004 l 315 0 l 113 0 m 281 1125 l 283 1290 l 472 1290 l 471 1125 l 281 1125 m -43 1125 l -41 1290 l 149 1290 l 147 1125 l -43 1125 z "},"İ":{"ha":427,"x_min":113,"x_max":315,"o":"m 113 0 l 113 1004 l 315 1004 l 315 0 l 113 0 m 117 1125 l 117 1290 l 311 1290 l 311 1125 l 117 1125 z "},"Ị":{"ha":427,"x_min":113,"x_max":322,"o":"m 113 0 l 113 1004 l 315 1004 l 315 0 l 113 0 m 128 -276 l 128 -111 l 322 -111 l 322 -276 l 128 -276 z "},"Ì":{"ha":427,"x_min":-67,"x_max":315,"o":"m 113 0 l 113 1004 l 315 1004 l 315 0 l 113 0 m 140 1088 l -66 1290 l 143 1290 l 286 1088 l 140 1088 z "},"Ỉ":{"ha":427,"x_min":113,"x_max":374,"o":"m 113 0 l 113 1004 l 315 1004 l 315 0 l 113 0 m 272 1088 l 224 1163 q 261 1203 251 1180 q 256 1249 270 1226 q 216 1272 243 1270 q 164 1256 189 1273 l 117 1330 q 242 1361 180 1371 q 335 1301 304 1351 q 358 1186 374 1242 q 272 1088 342 1129 z "},"Ȋ":{"ha":427,"x_min":-31,"x_max":457,"o":"m 113 0 l 113 1004 l 315 1004 l 315 0 l 113 0 m -31 1106 q 17 1204 -18 1165 q 103 1263 53 1243 q 213 1283 154 1283 q 323 1263 272 1283 q 409 1203 374 1242 q 456 1106 445 1164 l 329 1106 q 288 1162 318 1140 q 213 1184 257 1184 q 138 1162 167 1184 q 97 1106 108 1140 l -31 1106 z "},"Ī":{"ha":427,"x_min":-30,"x_max":458,"o":"m 113 0 l 113 1004 l 315 1004 l 315 0 l 113 0 m -30 1123 l -30 1253 l 458 1253 l 458 1123 l -30 1123 z "},"Į":{"ha":427,"x_min":38,"x_max":335,"o":"m 113 0 l 113 1004 l 315 1004 l 315 0 l 113 0 m 190 -240 q 79 -210 119 -240 q 39 -126 39 -181 q 65 -55 39 -87 q 172 4 91 -23 l 314 1 q 213 -49 240 -26 q 185 -101 185 -72 q 197 -134 185 -123 q 235 -145 209 -145 q 292 -136 267 -145 q 336 -115 316 -126 l 336 -206 q 277 -229 317 -218 q 190 -240 237 -240 z "},"Ĩ":{"ha":427,"x_min":-22,"x_max":458,"o":"m 113 0 l 113 1004 l 315 1004 l 315 0 l 113 0 m 10 1113 l -22 1219 q 34 1264 3 1245 q 112 1283 65 1283 q 186 1272 151 1283 q 253 1251 221 1262 q 317 1240 285 1240 q 382 1256 353 1240 q 433 1288 410 1272 l 458 1168 q 400 1135 436 1151 q 317 1119 364 1119 q 247 1129 278 1119 q 185 1148 215 1139 q 119 1158 154 1158 q 60 1147 83 1158 q 10 1113 37 1136 z "},"J":{"ha":558,"x_min":38,"x_max":468,"o":"m 211 -14 q 113 -6 163 -14 q 38 8 62 2 l 42 194 q 89 183 63 190 q 147 176 115 176 q 241 213 217 176 q 265 333 265 250 l 265 1004 l 468 1004 l 468 279 q 447 118 468 183 q 371 19 426 53 q 211 -14 315 -14 z "},"Ĵ":{"ha":558,"x_min":38,"x_max":611,"o":"m 211 -14 q 113 -6 163 -14 q 38 8 62 2 l 42 194 q 89 183 63 190 q 147 176 115 176 q 241 213 217 176 q 265 333 265 250 l 265 1004 l 468 1004 l 468 279 q 447 118 468 183 q 371 19 426 53 q 211 -14 315 -14 m 109 1088 l 292 1268 l 433 1268 l 611 1088 l 453 1088 l 361 1185 l 260 1088 l 109 1088 z "},"K":{"ha":996,"x_min":113,"x_max":958,"o":"m 113 0 l 113 1004 l 323 1004 l 323 544 l 689 1004 l 922 1004 l 617 615 l 958 0 l 738 0 l 472 467 l 323 288 l 323 0 l 113 0 z "},"Ķ":{"ha":996,"x_min":113,"x_max":958,"o":"m 113 0 l 113 1004 l 323 1004 l 323 544 l 689 1004 l 922 1004 l 617 615 l 958 0 l 738 0 l 472 467 l 323 288 l 323 0 l 113 0 m 393 -306 l 457 -202 l 401 -195 l 401 -65 l 574 -65 l 574 -174 l 465 -306 l 393 -306 z "},"L":{"ha":802,"x_min":113,"x_max":753,"o":"m 113 0 l 113 1004 l 317 1004 l 317 172 l 753 172 l 753 0 l 113 0 z "},"Ĺ":{"ha":802,"x_min":113,"x_max":753,"o":"m 113 0 l 113 1004 l 317 1004 l 317 172 l 753 172 l 753 0 l 113 0 m 135 1088 l 278 1290 l 487 1290 l 281 1088 l 135 1088 z "},"Ľ":{"ha":802,"x_min":113,"x_max":753,"o":"m 113 0 l 113 1004 l 317 1004 l 317 172 l 753 172 l 753 0 l 113 0 m 544 701 l 601 842 l 551 850 l 551 1004 l 690 1004 l 690 842 l 630 701 l 544 701 z "},"Ļ":{"ha":802,"x_min":113,"x_max":753,"o":"m 113 0 l 113 1004 l 317 1004 l 317 172 l 753 172 l 753 0 l 113 0 m 333 -306 l 397 -202 l 341 -195 l 341 -65 l 513 -65 l 513 -174 l 405 -306 l 333 -306 z "},"Ŀ":{"ha":802,"x_min":113,"x_max":753,"o":"m 113 0 l 113 1004 l 317 1004 l 317 172 l 753 172 l 753 0 l 113 0 m 511 458 l 511 657 l 719 657 l 719 458 l 511 458 z "},"Ł":{"ha":819,"x_min":6,"x_max":769,"o":"m 6 394 l 6 563 l 549 706 l 549 545 l 6 394 m 129 0 l 130 1004 l 333 1004 l 333 172 l 769 172 l 769 0 l 129 0 z "},"M":{"ha":1274,"x_min":113,"x_max":1163,"o":"m 113 0 l 113 1004 l 407 1004 l 637 288 l 869 1004 l 1163 1004 l 1163 0 l 958 0 l 958 768 l 716 0 l 557 0 l 317 765 l 317 0 l 113 0 z "},"N":{"ha":1086,"x_min":113,"x_max":974,"o":"m 113 0 l 113 1004 l 313 1004 l 772 340 l 772 1004 l 974 1004 l 974 0 l 792 0 l 315 691 l 315 0 l 113 0 z "},"Ń":{"ha":1086,"x_min":113,"x_max":974,"o":"m 113 0 l 113 1004 l 313 1004 l 772 340 l 772 1004 l 974 1004 l 974 0 l 792 0 l 315 691 l 315 0 l 113 0 m 467 1088 l 610 1290 l 819 1290 l 613 1088 l 467 1088 z "},"Ň":{"ha":1086,"x_min":113,"x_max":974,"o":"m 113 0 l 113 1004 l 313 1004 l 772 340 l 772 1004 l 974 1004 l 974 0 l 792 0 l 315 691 l 315 0 l 113 0 m 472 1088 l 290 1269 l 440 1269 l 542 1165 l 633 1269 l 792 1269 l 613 1088 l 472 1088 z "},"Ņ":{"ha":1086,"x_min":113,"x_max":974,"o":"m 113 0 l 113 1004 l 313 1004 l 772 340 l 772 1004 l 974 1004 l 974 0 l 792 0 l 315 691 l 315 0 l 113 0 m 438 -306 l 502 -202 l 447 -195 l 447 -65 l 619 -65 l 619 -174 l 510 -306 l 438 -306 z "},"Ṅ":{"ha":1086,"x_min":113,"x_max":974,"o":"m 113 0 l 113 1004 l 313 1004 l 772 340 l 772 1004 l 974 1004 l 974 0 l 792 0 l 315 691 l 315 0 l 113 0 m 446 1125 l 446 1290 l 640 1290 l 640 1125 l 446 1125 z "},"Ŋ":{"ha":1086,"x_min":113,"x_max":974,"o":"m 716 -333 q 618 -325 669 -333 q 543 -311 567 -317 l 548 -126 q 594 -137 568 -130 q 651 -144 620 -144 q 742 -114 713 -144 q 770 -19 770 -85 l 770 31 l 315 691 l 315 0 l 113 0 l 113 1004 l 313 1004 l 772 340 l 772 1004 l 974 1004 l 974 -39 q 950 -209 974 -144 q 869 -303 926 -274 q 716 -333 813 -333 z "},"Ñ":{"ha":1086,"x_min":113,"x_max":974,"o":"m 113 0 l 113 1004 l 313 1004 l 772 340 l 772 1004 l 974 1004 l 974 0 l 792 0 l 315 691 l 315 0 l 113 0 m 338 1113 l 307 1219 q 363 1264 332 1245 q 440 1283 393 1283 q 514 1272 479 1283 q 582 1251 549 1262 q 645 1240 614 1240 q 710 1256 682 1240 q 761 1288 739 1272 l 786 1168 q 728 1135 765 1151 q 646 1119 692 1119 q 575 1129 607 1119 q 513 1148 544 1139 q 447 1158 483 1158 q 389 1147 412 1158 q 338 1113 365 1136 z "},"O":{"ha":1056,"x_min":67,"x_max":990,"o":"m 530 -14 q 284 48 388 -14 q 123 225 180 110 q 67 500 67 340 q 124 776 67 660 q 285 955 181 892 q 530 1018 390 1018 q 773 956 669 1018 q 933 777 876 893 q 990 500 990 661 q 934 226 990 341 q 774 48 878 110 q 530 -14 671 -14 m 530 153 q 657 188 603 153 q 740 299 711 223 q 769 497 769 375 q 740 701 769 623 q 657 815 710 778 q 530 851 603 851 q 403 815 457 851 q 319 700 349 778 q 289 497 289 622 q 319 299 289 374 q 403 188 349 223 q 530 153 457 153 z "},"Ó":{"ha":1056,"x_min":67,"x_max":990,"o":"m 530 -14 q 284 48 388 -14 q 123 225 180 110 q 67 500 67 340 q 124 776 67 660 q 285 955 181 892 q 530 1018 390 1018 q 773 956 669 1018 q 933 777 876 893 q 990 500 990 661 q 934 226 990 341 q 774 48 878 110 q 530 -14 671 -14 m 530 153 q 657 188 603 153 q 740 299 711 223 q 769 497 769 375 q 740 701 769 623 q 657 815 710 778 q 530 851 603 851 q 403 815 457 851 q 319 700 349 778 q 289 497 289 622 q 319 299 289 374 q 403 188 349 223 q 530 153 457 153 m 453 1088 l 597 1290 l 806 1290 l 599 1088 l 453 1088 z "},"Ŏ":{"ha":1056,"x_min":67,"x_max":990,"o":"m 530 -14 q 284 48 388 -14 q 123 225 180 110 q 67 500 67 340 q 124 776 67 660 q 285 955 181 892 q 530 1018 390 1018 q 773 956 669 1018 q 933 777 876 893 q 990 500 990 661 q 934 226 990 341 q 774 48 878 110 q 530 -14 671 -14 m 530 153 q 657 188 603 153 q 740 299 711 223 q 769 497 769 375 q 740 701 769 623 q 657 815 710 778 q 530 851 603 851 q 403 815 457 851 q 319 700 349 778 q 289 497 289 622 q 319 299 289 374 q 403 188 349 223 q 530 153 457 153 m 529 1088 q 420 1108 471 1088 q 333 1167 369 1128 q 286 1265 298 1207 l 414 1265 q 454 1209 424 1231 q 529 1187 484 1187 q 604 1209 574 1187 q 646 1265 634 1231 l 773 1265 q 726 1168 761 1207 q 639 1108 690 1128 q 529 1088 588 1088 z "},"Ô":{"ha":1056,"x_min":67,"x_max":990,"o":"m 530 -14 q 284 48 388 -14 q 123 225 180 110 q 67 500 67 340 q 124 776 67 660 q 285 955 181 892 q 530 1018 390 1018 q 773 956 669 1018 q 933 777 876 893 q 990 500 990 661 q 934 226 990 341 q 774 48 878 110 q 530 -14 671 -14 m 530 153 q 657 188 603 153 q 740 299 711 223 q 769 497 769 375 q 740 701 769 623 q 657 815 710 778 q 530 851 603 851 q 403 815 457 851 q 319 700 349 778 q 289 497 289 622 q 319 299 289 374 q 403 188 349 223 q 530 153 457 153 m 276 1088 l 460 1268 l 600 1268 l 778 1088 l 620 1088 l 528 1185 l 427 1088 l 276 1088 z "},"Ố":{"ha":1056,"x_min":67,"x_max":990,"o":"m 530 -14 q 284 48 388 -14 q 123 225 180 110 q 67 500 67 340 q 124 776 67 660 q 285 955 181 892 q 530 1018 390 1018 q 773 956 669 1018 q 933 777 876 893 q 990 500 990 661 q 934 226 990 341 q 774 48 878 110 q 530 -14 671 -14 m 530 153 q 657 188 603 153 q 740 299 711 223 q 769 497 769 375 q 740 701 769 623 q 657 815 710 778 q 530 851 603 851 q 403 815 457 851 q 319 700 349 778 q 289 497 289 622 q 319 299 289 374 q 403 188 349 223 q 530 153 457 153 m 276 1088 l 460 1268 l 600 1268 l 778 1088 l 620 1088 l 528 1185 l 427 1088 l 276 1088 m 687 1257 l 792 1439 l 949 1439 l 792 1257 l 687 1257 z "},"Ộ":{"ha":1056,"x_min":67,"x_max":990,"o":"m 530 -14 q 284 48 388 -14 q 123 225 180 110 q 67 500 67 340 q 124 776 67 660 q 285 955 181 892 q 530 1018 390 1018 q 773 956 669 1018 q 933 777 876 893 q 990 500 990 661 q 934 226 990 341 q 774 48 878 110 q 530 -14 671 -14 m 530 153 q 657 188 603 153 q 740 299 711 223 q 769 497 769 375 q 740 701 769 623 q 657 815 710 778 q 530 851 603 851 q 403 815 457 851 q 319 700 349 778 q 289 497 289 622 q 319 299 289 374 q 403 188 349 223 q 530 153 457 153 m 435 -276 l 435 -111 l 628 -111 l 628 -276 l 435 -276 m 276 1088 l 460 1268 l 600 1268 l 778 1088 l 620 1088 l 528 1185 l 427 1088 l 276 1088 z "},"Ồ":{"ha":1056,"x_min":67,"x_max":990,"o":"m 530 -14 q 284 48 388 -14 q 123 225 180 110 q 67 500 67 340 q 124 776 67 660 q 285 955 181 892 q 530 1018 390 1018 q 773 956 669 1018 q 933 777 876 893 q 990 500 990 661 q 934 226 990 341 q 774 48 878 110 q 530 -14 671 -14 m 530 153 q 657 188 603 153 q 740 299 711 223 q 769 497 769 375 q 740 701 769 623 q 657 815 710 778 q 530 851 603 851 q 403 815 457 851 q 319 700 349 778 q 289 497 289 622 q 319 299 289 374 q 403 188 349 223 q 530 153 457 153 m 276 1088 l 460 1268 l 600 1268 l 778 1088 l 620 1088 l 528 1185 l 427 1088 l 276 1088 m 747 1257 l 590 1438 l 747 1438 l 856 1257 l 747 1257 z "},"Ổ":{"ha":1056,"x_min":67,"x_max":990,"o":"m 530 -14 q 284 48 388 -14 q 123 225 180 110 q 67 500 67 340 q 124 776 67 660 q 285 955 181 892 q 530 1018 390 1018 q 773 956 669 1018 q 933 777 876 893 q 990 500 990 661 q 934 226 990 341 q 774 48 878 110 q 530 -14 671 -14 m 530 153 q 657 188 603 153 q 740 299 711 223 q 769 497 769 375 q 740 701 769 623 q 657 815 710 778 q 530 851 603 851 q 403 815 457 851 q 319 700 349 778 q 289 497 289 622 q 319 299 289 374 q 403 188 349 223 q 530 153 457 153 m 281 1088 l 465 1268 l 605 1268 l 783 1088 l 625 1088 l 533 1185 l 432 1088 l 281 1088 m 737 1226 l 689 1301 q 726 1342 717 1319 q 721 1388 735 1365 q 681 1410 708 1409 q 629 1395 654 1412 l 581 1469 q 707 1500 645 1510 q 801 1440 769 1490 q 823 1325 839 1381 q 737 1226 808 1268 z "},"Ỗ":{"ha":1056,"x_min":67,"x_max":990,"o":"m 530 -14 q 284 48 388 -14 q 123 225 180 110 q 67 500 67 340 q 124 776 67 660 q 285 955 181 892 q 530 1018 390 1018 q 773 956 669 1018 q 933 777 876 893 q 990 500 990 661 q 934 226 990 341 q 774 48 878 110 q 530 -14 671 -14 m 530 153 q 657 188 603 153 q 740 299 711 223 q 769 497 769 375 q 740 701 769 623 q 657 815 710 778 q 530 851 603 851 q 403 815 457 851 q 319 700 349 778 q 289 497 289 622 q 319 299 289 374 q 403 188 349 223 q 530 153 457 153 m 278 1088 l 462 1268 l 602 1268 l 781 1088 l 622 1088 l 531 1185 l 429 1088 l 278 1088 m 320 1332 l 290 1438 q 345 1483 315 1465 q 423 1502 376 1502 q 497 1491 462 1502 q 564 1470 531 1481 q 628 1459 597 1459 q 693 1475 664 1459 q 743 1508 722 1490 l 769 1387 q 711 1354 747 1369 q 628 1338 675 1338 q 558 1348 590 1338 q 495 1368 526 1358 q 429 1377 465 1377 q 371 1366 394 1377 q 320 1332 348 1355 z "},"Ȍ":{"ha":1056,"x_min":67,"x_max":990,"o":"m 530 -14 q 284 48 388 -14 q 123 225 180 110 q 67 500 67 340 q 124 776 67 660 q 285 955 181 892 q 530 1018 390 1018 q 773 956 669 1018 q 933 777 876 893 q 990 500 990 661 q 934 226 990 341 q 774 48 878 110 q 530 -14 671 -14 m 530 153 q 657 188 603 153 q 740 299 711 223 q 769 497 769 375 q 740 701 769 623 q 657 815 710 778 q 530 851 603 851 q 403 815 457 851 q 319 700 349 778 q 289 497 289 622 q 319 299 289 374 q 403 188 349 223 q 530 153 457 153 m 332 1088 l 115 1290 l 306 1290 l 478 1088 l 332 1088 m 576 1088 l 398 1290 l 583 1290 l 723 1088 l 576 1088 z "},"Ö":{"ha":1056,"x_min":67,"x_max":990,"o":"m 530 -14 q 284 48 388 -14 q 123 225 180 110 q 67 500 67 340 q 124 776 67 660 q 285 955 181 892 q 530 1018 390 1018 q 773 956 669 1018 q 933 777 876 893 q 990 500 990 661 q 934 226 990 341 q 774 48 878 110 q 530 -14 671 -14 m 530 153 q 657 188 603 153 q 740 299 711 223 q 769 497 769 375 q 740 701 769 623 q 657 815 710 778 q 530 851 603 851 q 403 815 457 851 q 319 700 349 778 q 289 497 289 622 q 319 299 289 374 q 403 188 349 223 q 530 153 457 153 m 595 1125 l 597 1290 l 787 1290 l 785 1125 l 595 1125 m 272 1125 l 274 1290 l 463 1290 l 462 1125 l 272 1125 z "},"Ọ":{"ha":1056,"x_min":67,"x_max":990,"o":"m 530 -14 q 284 48 388 -14 q 123 225 180 110 q 67 500 67 340 q 124 776 67 660 q 285 955 181 892 q 530 1018 390 1018 q 773 956 669 1018 q 933 777 876 893 q 990 500 990 661 q 934 226 990 341 q 774 48 878 110 q 530 -14 671 -14 m 530 153 q 657 188 603 153 q 740 299 711 223 q 769 497 769 375 q 740 701 769 623 q 657 815 710 778 q 530 851 603 851 q 403 815 457 851 q 319 700 349 778 q 289 497 289 622 q 319 299 289 374 q 403 188 349 223 q 530 153 457 153 m 435 -276 l 435 -111 l 628 -111 l 628 -276 l 435 -276 z "},"Ò":{"ha":1056,"x_min":67,"x_max":990,"o":"m 530 -14 q 284 48 388 -14 q 123 225 180 110 q 67 500 67 340 q 124 776 67 660 q 285 955 181 892 q 530 1018 390 1018 q 773 956 669 1018 q 933 777 876 893 q 990 500 990 661 q 934 226 990 341 q 774 48 878 110 q 530 -14 671 -14 m 530 153 q 657 188 603 153 q 740 299 711 223 q 769 497 769 375 q 740 701 769 623 q 657 815 710 778 q 530 851 603 851 q 403 815 457 851 q 319 700 349 778 q 289 497 289 622 q 319 299 289 374 q 403 188 349 223 q 530 153 457 153 m 454 1088 l 249 1290 l 458 1290 l 601 1088 l 454 1088 z "},"Ỏ":{"ha":1056,"x_min":67,"x_max":990,"o":"m 530 -14 q 284 48 388 -14 q 123 225 180 110 q 67 500 67 340 q 124 776 67 660 q 285 955 181 892 q 530 1018 390 1018 q 773 956 669 1018 q 933 777 876 893 q 990 500 990 661 q 934 226 990 341 q 774 48 878 110 q 530 -14 671 -14 m 530 153 q 657 188 603 153 q 740 299 711 223 q 769 497 769 375 q 740 701 769 623 q 657 815 710 778 q 530 851 603 851 q 403 815 457 851 q 319 700 349 778 q 289 497 289 622 q 319 299 289 374 q 403 188 349 223 q 530 153 457 153 m 587 1088 l 539 1163 q 576 1203 567 1180 q 571 1249 585 1226 q 531 1272 558 1270 q 479 1256 504 1273 l 432 1330 q 557 1361 495 1371 q 651 1301 619 1351 q 673 1186 689 1242 q 587 1088 658 1129 z "},"Ơ":{"ha":1160,"x_min":67,"x_max":1122,"o":"m 530 -14 q 284 48 388 -14 q 123 225 180 110 q 67 500 67 340 q 124 776 67 660 q 285 955 181 892 q 530 1018 390 1018 q 716 984 633 1018 q 859 885 799 950 q 914 889 892 885 q 952 906 937 892 q 975 949 967 919 q 988 1031 984 978 l 1122 1031 q 1103 892 1121 947 q 1044 810 1085 838 q 931 781 1003 783 q 974 654 959 724 q 990 500 990 583 q 934 226 990 341 q 774 48 878 110 q 530 -14 671 -14 m 530 153 q 657 188 603 153 q 740 299 711 223 q 769 497 769 375 q 740 701 769 623 q 657 815 710 778 q 530 851 603 851 q 403 815 457 851 q 319 700 349 778 q 289 497 289 622 q 319 299 289 374 q 403 188 349 223 q 530 153 457 153 z "},"Ớ":{"ha":1160,"x_min":67,"x_max":1122,"o":"m 530 -14 q 284 48 388 -14 q 123 225 180 110 q 67 500 67 340 q 124 776 67 660 q 285 955 181 892 q 530 1018 390 1018 q 716 984 633 1018 q 859 885 799 950 q 914 889 892 885 q 952 906 937 892 q 975 949 967 919 q 988 1031 984 978 l 1122 1031 q 1103 892 1121 947 q 1044 810 1085 838 q 931 781 1003 783 q 974 654 959 724 q 990 500 990 583 q 934 226 990 341 q 774 48 878 110 q 530 -14 671 -14 m 530 153 q 657 188 603 153 q 740 299 711 223 q 769 497 769 375 q 740 701 769 623 q 657 815 710 778 q 530 851 603 851 q 403 815 457 851 q 319 700 349 778 q 289 497 289 622 q 319 299 289 374 q 403 188 349 223 q 530 153 457 153 m 453 1088 l 597 1290 l 806 1290 l 599 1088 l 453 1088 z "},"Ợ":{"ha":1160,"x_min":67,"x_max":1122,"o":"m 530 -14 q 284 48 388 -14 q 123 225 180 110 q 67 500 67 340 q 124 776 67 660 q 285 955 181 892 q 530 1018 390 1018 q 716 984 633 1018 q 859 885 799 950 q 914 889 892 885 q 952 906 937 892 q 975 949 967 919 q 988 1031 984 978 l 1122 1031 q 1103 892 1121 947 q 1044 810 1085 838 q 931 781 1003 783 q 974 654 959 724 q 990 500 990 583 q 934 226 990 341 q 774 48 878 110 q 530 -14 671 -14 m 530 153 q 657 188 603 153 q 740 299 711 223 q 769 497 769 375 q 740 701 769 623 q 657 815 710 778 q 530 851 603 851 q 403 815 457 851 q 319 700 349 778 q 289 497 289 622 q 319 299 289 374 q 403 188 349 223 q 530 153 457 153 m 435 -276 l 435 -111 l 628 -111 l 628 -276 l 435 -276 z "},"Ờ":{"ha":1160,"x_min":67,"x_max":1122,"o":"m 530 -14 q 284 48 388 -14 q 123 225 180 110 q 67 500 67 340 q 124 776 67 660 q 285 955 181 892 q 530 1018 390 1018 q 716 984 633 1018 q 859 885 799 950 q 914 889 892 885 q 952 906 937 892 q 975 949 967 919 q 988 1031 984 978 l 1122 1031 q 1103 892 1121 947 q 1044 810 1085 838 q 931 781 1003 783 q 974 654 959 724 q 990 500 990 583 q 934 226 990 341 q 774 48 878 110 q 530 -14 671 -14 m 530 153 q 657 188 603 153 q 740 299 711 223 q 769 497 769 375 q 740 701 769 623 q 657 815 710 778 q 530 851 603 851 q 403 815 457 851 q 319 700 349 778 q 289 497 289 622 q 319 299 289 374 q 403 188 349 223 q 530 153 457 153 m 454 1088 l 249 1290 l 458 1290 l 601 1088 l 454 1088 z "},"Ở":{"ha":1160,"x_min":67,"x_max":1122,"o":"m 530 -14 q 284 48 388 -14 q 123 225 180 110 q 67 500 67 340 q 124 776 67 660 q 285 955 181 892 q 530 1018 390 1018 q 716 984 633 1018 q 859 885 799 950 q 914 889 892 885 q 952 906 937 892 q 975 949 967 919 q 988 1031 984 978 l 1122 1031 q 1103 892 1121 947 q 1044 810 1085 838 q 931 781 1003 783 q 974 654 959 724 q 990 500 990 583 q 934 226 990 341 q 774 48 878 110 q 530 -14 671 -14 m 530 153 q 657 188 603 153 q 740 299 711 223 q 769 497 769 375 q 740 701 769 623 q 657 815 710 778 q 530 851 603 851 q 403 815 457 851 q 319 700 349 778 q 289 497 289 622 q 319 299 289 374 q 403 188 349 223 q 530 153 457 153 m 587 1088 l 539 1163 q 576 1203 567 1180 q 571 1249 585 1226 q 531 1272 558 1270 q 479 1256 504 1273 l 432 1330 q 557 1361 495 1371 q 651 1301 619 1351 q 673 1186 689 1242 q 587 1088 658 1129 z "},"Ỡ":{"ha":1160,"x_min":67,"x_max":1122,"o":"m 530 -14 q 284 48 388 -14 q 123 225 180 110 q 67 500 67 340 q 124 776 67 660 q 285 955 181 892 q 530 1018 390 1018 q 716 984 633 1018 q 859 885 799 950 q 914 889 892 885 q 952 906 937 892 q 975 949 967 919 q 988 1031 984 978 l 1122 1031 q 1103 892 1121 947 q 1044 810 1085 838 q 931 781 1003 783 q 974 654 959 724 q 990 500 990 583 q 934 226 990 341 q 774 48 878 110 q 530 -14 671 -14 m 530 153 q 657 188 603 153 q 740 299 711 223 q 769 497 769 375 q 740 701 769 623 q 657 815 710 778 q 530 851 603 851 q 403 815 457 851 q 319 700 349 778 q 289 497 289 622 q 319 299 289 374 q 403 188 349 223 q 530 153 457 153 m 324 1113 l 293 1219 q 349 1264 318 1245 q 426 1283 379 1283 q 500 1272 465 1283 q 568 1251 535 1262 q 631 1240 600 1240 q 697 1256 668 1240 q 747 1288 725 1272 l 772 1168 q 715 1135 751 1151 q 632 1119 678 1119 q 561 1129 593 1119 q 499 1148 530 1139 q 433 1158 469 1158 q 375 1147 398 1158 q 324 1113 351 1136 z "},"Ő":{"ha":1056,"x_min":67,"x_max":990,"o":"m 530 -14 q 284 48 388 -14 q 123 225 180 110 q 67 500 67 340 q 124 776 67 660 q 285 955 181 892 q 530 1018 390 1018 q 773 956 669 1018 q 933 777 876 893 q 990 500 990 661 q 934 226 990 341 q 774 48 878 110 q 530 -14 671 -14 m 530 153 q 657 188 603 153 q 740 299 711 223 q 769 497 769 375 q 740 701 769 623 q 657 815 710 778 q 530 851 603 851 q 403 815 457 851 q 319 700 349 778 q 289 497 289 622 q 319 299 289 374 q 403 188 349 223 q 530 153 457 153 m 579 1088 l 751 1290 l 942 1290 l 726 1088 l 579 1088 m 334 1088 l 474 1290 l 659 1290 l 481 1088 l 334 1088 z "},"Ȏ":{"ha":1056,"x_min":67,"x_max":990,"o":"m 530 -14 q 284 48 388 -14 q 123 225 180 110 q 67 500 67 340 q 124 776 67 660 q 285 955 181 892 q 530 1018 390 1018 q 773 956 669 1018 q 933 777 876 893 q 990 500 990 661 q 934 226 990 341 q 774 48 878 110 q 530 -14 671 -14 m 530 153 q 657 188 603 153 q 740 299 711 223 q 769 497 769 375 q 740 701 769 623 q 657 815 710 778 q 530 851 603 851 q 403 815 457 851 q 319 700 349 778 q 289 497 289 622 q 319 299 289 374 q 403 188 349 223 q 530 153 457 153 m 284 1106 q 332 1204 297 1165 q 418 1263 367 1243 q 527 1283 469 1283 q 637 1263 586 1283 q 724 1203 688 1242 q 771 1106 760 1164 l 644 1106 q 602 1162 633 1140 q 527 1184 572 1184 q 452 1162 482 1184 q 412 1106 423 1140 l 284 1106 z "},"Ō":{"ha":1056,"x_min":67,"x_max":990,"o":"m 530 -14 q 284 48 388 -14 q 123 225 180 110 q 67 500 67 340 q 124 776 67 660 q 285 955 181 892 q 530 1018 390 1018 q 773 956 669 1018 q 933 777 876 893 q 990 500 990 661 q 934 226 990 341 q 774 48 878 110 q 530 -14 671 -14 m 530 153 q 657 188 603 153 q 740 299 711 223 q 769 497 769 375 q 740 701 769 623 q 657 815 710 778 q 530 851 603 851 q 403 815 457 851 q 319 700 349 778 q 289 497 289 622 q 319 299 289 374 q 403 188 349 223 q 530 153 457 153 m 285 1123 l 285 1253 l 774 1253 l 774 1123 l 285 1123 z "},"Ǫ":{"ha":1056,"x_min":67,"x_max":990,"o":"m 546 -235 q 435 -206 475 -235 q 394 -121 394 -176 q 421 -50 394 -83 q 528 9 447 -17 l 669 6 q 569 -44 597 -22 q 541 -96 541 -67 q 553 -129 541 -118 q 591 -140 565 -140 q 647 -131 623 -140 q 692 -110 672 -122 l 692 -201 q 632 -224 672 -213 q 546 -235 592 -235 m 530 -14 q 284 48 388 -14 q 123 225 180 110 q 67 500 67 340 q 124 776 67 660 q 285 955 181 892 q 530 1018 390 1018 q 773 956 669 1018 q 933 777 876 893 q 990 500 990 661 q 934 226 990 341 q 774 48 878 110 q 530 -14 671 -14 m 530 153 q 657 188 603 153 q 740 299 711 223 q 769 497 769 375 q 740 701 769 623 q 657 815 710 778 q 530 851 603 851 q 403 815 457 851 q 319 700 349 778 q 289 497 289 622 q 319 299 289 374 q 403 188 349 223 q 530 153 457 153 z "},"Ø":{"ha":1078,"x_min":30,"x_max":1043,"o":"m 119 -19 l 30 72 l 146 192 q 91 330 110 252 q 72 499 72 407 q 129 776 72 660 q 290 955 186 892 q 535 1018 394 1018 q 707 990 629 1018 q 842 906 784 961 l 955 1022 l 1043 932 l 922 806 q 976 668 958 745 q 995 500 995 591 q 939 226 995 341 q 779 48 883 110 q 534 -14 676 -14 q 363 14 440 -14 q 229 92 286 42 l 119 -19 m 535 149 q 680 209 628 149 q 742 396 731 269 q 746 507 747 451 q 736 623 744 563 l 367 231 q 535 149 421 149 m 331 374 l 701 767 q 633 835 674 813 q 535 857 592 857 q 385 790 438 857 q 322 583 333 724 q 320 479 318 531 q 331 374 323 426 z "},"Ǿ":{"ha":1078,"x_min":30,"x_max":1043,"o":"m 119 -19 l 30 72 l 146 192 q 91 330 110 252 q 72 499 72 407 q 129 776 72 660 q 290 955 186 892 q 535 1018 394 1018 q 707 990 629 1018 q 842 906 784 961 l 955 1022 l 1043 932 l 922 806 q 976 668 958 745 q 995 500 995 591 q 939 226 995 341 q 779 48 883 110 q 534 -14 676 -14 q 363 14 440 -14 q 229 92 286 42 l 119 -19 m 535 149 q 680 209 628 149 q 742 396 731 269 q 746 507 747 451 q 736 623 744 563 l 367 231 q 535 149 421 149 m 331 374 l 701 767 q 633 835 674 813 q 535 857 592 857 q 385 790 438 857 q 322 583 333 724 q 320 479 318 531 q 331 374 323 426 m 458 1088 l 601 1290 l 810 1290 l 603 1088 l 458 1088 z "},"Õ":{"ha":1056,"x_min":67,"x_max":990,"o":"m 530 -14 q 284 48 388 -14 q 123 225 180 110 q 67 500 67 340 q 124 776 67 660 q 285 955 181 892 q 530 1018 390 1018 q 773 956 669 1018 q 933 777 876 893 q 990 500 990 661 q 934 226 990 341 q 774 48 878 110 q 530 -14 671 -14 m 530 153 q 657 188 603 153 q 740 299 711 223 q 769 497 769 375 q 740 701 769 623 q 657 815 710 778 q 530 851 603 851 q 403 815 457 851 q 319 700 349 778 q 289 497 289 622 q 319 299 289 374 q 403 188 349 223 q 530 153 457 153 m 324 1113 l 293 1219 q 349 1264 318 1245 q 426 1283 379 1283 q 500 1272 465 1283 q 568 1251 535 1262 q 631 1240 600 1240 q 697 1256 668 1240 q 747 1288 725 1272 l 772 1168 q 715 1135 751 1151 q 632 1119 678 1119 q 561 1129 593 1119 q 499 1148 530 1139 q 433 1158 469 1158 q 375 1147 398 1158 q 324 1113 351 1136 z "},"Œ":{"ha":1565,"x_min":67,"x_max":1493,"o":"m 999 422 l 999 173 l 1493 172 l 1493 0 l 796 0 l 796 92 q 680 13 747 40 q 530 -14 613 -14 q 284 48 388 -14 q 123 225 180 110 q 67 500 67 340 q 124 776 67 660 q 285 955 181 892 q 530 1018 390 1018 q 680 991 613 1018 q 796 911 747 964 l 796 1004 l 1486 1004 l 1485 833 l 1000 833 l 1000 590 l 1421 590 l 1421 422 l 999 422 m 530 153 q 657 188 603 153 q 740 299 711 223 q 769 497 769 375 q 740 701 769 623 q 657 815 710 778 q 530 851 603 851 q 403 815 457 851 q 319 700 349 778 q 289 497 289 622 q 319 299 289 374 q 403 188 349 223 q 530 153 457 153 z "},"P":{"ha":906,"x_min":113,"x_max":866,"o":"m 113 0 l 113 1004 l 482 1004 q 678 966 592 1004 q 816 855 765 928 q 866 675 866 781 q 822 504 866 575 q 697 396 777 433 q 508 358 617 358 l 317 358 l 317 0 l 113 0 m 315 515 l 503 515 q 628 564 579 515 q 676 685 676 613 q 625 805 676 760 q 500 849 574 849 l 315 849 l 315 515 z "},"Þ":{"ha":945,"x_min":113,"x_max":905,"o":"m 113 0 l 113 1004 l 317 1004 l 317 812 l 521 812 q 719 779 633 812 q 856 680 806 746 q 905 512 905 613 q 856 345 905 413 q 720 243 806 278 q 524 208 634 208 l 317 208 l 317 0 l 113 0 m 317 376 l 515 376 q 609 389 569 376 q 671 432 649 402 q 693 513 693 463 q 671 590 693 561 q 608 632 649 619 q 512 645 567 645 l 317 645 l 317 376 z "},"Q":{"ha":1074,"x_min":67,"x_max":991,"o":"m 987 -171 q 863 -160 922 -171 q 750 -113 804 -149 q 644 -4 696 -77 q 583 -11 609 -9 q 529 -14 557 -14 q 284 48 388 -14 q 124 224 181 109 q 67 500 67 339 q 124 777 67 661 q 285 956 181 893 q 529 1018 389 1018 q 774 956 670 1018 q 934 777 877 893 q 991 500 991 661 q 950 258 991 363 q 824 84 908 154 q 886 17 840 42 q 987 -8 931 -8 l 987 -171 m 529 153 q 706 233 643 153 q 769 498 769 313 q 706 768 769 685 q 529 851 643 851 q 353 768 416 851 q 290 497 290 684 q 353 233 290 313 q 529 153 416 153 z "},"R":{"ha":967,"x_min":113,"x_max":892,"o":"m 113 0 l 113 1004 l 536 1004 q 733 966 656 1004 q 845 860 809 928 q 881 704 881 792 q 857 570 881 625 q 792 480 832 516 q 705 421 752 444 l 892 0 l 681 0 l 518 387 l 315 387 l 315 0 l 113 0 m 315 543 l 500 543 q 629 587 581 543 q 676 699 676 631 q 631 809 676 769 q 515 849 585 849 l 315 849 l 315 543 z "},"Ŕ":{"ha":967,"x_min":113,"x_max":892,"o":"m 113 0 l 113 1004 l 536 1004 q 733 966 656 1004 q 845 860 809 928 q 881 704 881 792 q 857 570 881 625 q 792 480 832 516 q 705 421 752 444 l 892 0 l 681 0 l 518 387 l 315 387 l 315 0 l 113 0 m 315 543 l 500 543 q 629 587 581 543 q 676 699 676 631 q 631 809 676 769 q 515 849 585 849 l 315 849 l 315 543 m 397 1088 l 540 1290 l 749 1290 l 542 1088 l 397 1088 z "},"Ř":{"ha":967,"x_min":113,"x_max":892,"o":"m 113 0 l 113 1004 l 536 1004 q 733 966 656 1004 q 845 860 809 928 q 881 704 881 792 q 857 570 881 625 q 792 480 832 516 q 705 421 752 444 l 892 0 l 681 0 l 518 387 l 315 387 l 315 0 l 113 0 m 315 543 l 500 543 q 629 587 581 543 q 676 699 676 631 q 631 809 676 769 q 515 849 585 849 l 315 849 l 315 543 m 402 1088 l 219 1269 l 370 1269 l 472 1165 l 563 1269 l 722 1269 l 543 1088 l 402 1088 z "},"Ŗ":{"ha":967,"x_min":113,"x_max":892,"o":"m 113 0 l 113 1004 l 536 1004 q 733 966 656 1004 q 845 860 809 928 q 881 704 881 792 q 857 570 881 625 q 792 480 832 516 q 705 421 752 444 l 892 0 l 681 0 l 518 387 l 315 387 l 315 0 l 113 0 m 315 543 l 500 543 q 629 587 581 543 q 676 699 676 631 q 631 809 676 769 q 515 849 585 849 l 315 849 l 315 543 m 390 -306 l 454 -202 l 399 -195 l 399 -65 l 571 -65 l 571 -174 l 463 -306 l 390 -306 z "},"Ȑ":{"ha":967,"x_min":58,"x_max":892,"o":"m 113 0 l 113 1004 l 536 1004 q 733 966 656 1004 q 845 860 809 928 q 881 704 881 792 q 857 570 881 625 q 792 480 832 516 q 705 421 752 444 l 892 0 l 681 0 l 518 387 l 315 387 l 315 0 l 113 0 m 315 543 l 500 543 q 629 587 581 543 q 676 699 676 631 q 631 809 676 769 q 515 849 585 849 l 315 849 l 315 543 m 274 1088 l 58 1290 l 249 1290 l 420 1088 l 274 1088 m 519 1088 l 340 1290 l 526 1290 l 665 1088 l 519 1088 z "},"Ṛ":{"ha":967,"x_min":113,"x_max":892,"o":"m 113 0 l 113 1004 l 536 1004 q 733 966 656 1004 q 845 860 809 928 q 881 704 881 792 q 857 570 881 625 q 792 480 832 516 q 705 421 752 444 l 892 0 l 681 0 l 518 387 l 315 387 l 315 0 l 113 0 m 315 543 l 500 543 q 629 587 581 543 q 676 699 676 631 q 631 809 676 769 q 515 849 585 849 l 315 849 l 315 543 m 388 -276 l 388 -111 l 582 -111 l 582 -276 l 388 -276 z "},"Ȓ":{"ha":967,"x_min":113,"x_max":892,"o":"m 113 0 l 113 1004 l 536 1004 q 733 966 656 1004 q 845 860 809 928 q 881 704 881 792 q 857 570 881 625 q 792 480 832 516 q 705 421 752 444 l 892 0 l 681 0 l 518 387 l 315 387 l 315 0 l 113 0 m 315 543 l 500 543 q 629 587 581 543 q 676 699 676 631 q 631 809 676 769 q 515 849 585 849 l 315 849 l 315 543 m 227 1106 q 275 1204 240 1165 q 361 1263 310 1243 q 470 1283 412 1283 q 580 1263 529 1283 q 667 1203 631 1242 q 714 1106 703 1164 l 587 1106 q 545 1162 576 1140 q 470 1184 515 1184 q 395 1162 425 1184 q 355 1106 366 1140 l 227 1106 z "},"S":{"ha":961,"x_min":69,"x_max":893,"o":"m 489 -14 q 342 5 414 -14 q 212 61 271 24 q 115 155 153 99 q 69 287 77 211 l 277 287 q 317 210 288 241 q 393 162 347 178 q 501 145 440 145 q 592 159 549 145 q 662 201 635 173 q 689 273 689 230 q 651 350 689 324 q 549 392 614 376 l 361 433 q 222 484 281 449 q 131 576 163 519 q 99 714 99 633 q 150 876 99 808 q 291 980 202 944 q 492 1017 381 1017 q 704 976 617 1017 q 836 866 790 935 q 883 713 882 797 l 680 713 q 648 796 674 765 q 580 842 622 828 q 486 856 539 856 q 353 819 395 856 q 312 734 312 783 q 343 660 312 688 q 445 617 375 632 l 619 580 q 777 520 717 561 q 865 422 838 480 q 893 293 893 365 q 841 133 893 202 q 699 25 790 64 q 489 -14 608 -14 z "},"Ś":{"ha":961,"x_min":69,"x_max":893,"o":"m 489 -14 q 342 5 414 -14 q 212 61 271 24 q 115 155 153 99 q 69 287 77 211 l 277 287 q 317 210 288 241 q 393 162 347 178 q 501 145 440 145 q 592 159 549 145 q 662 201 635 173 q 689 273 689 230 q 651 350 689 324 q 549 392 614 376 l 361 433 q 222 484 281 449 q 131 576 163 519 q 99 714 99 633 q 150 876 99 808 q 291 980 202 944 q 492 1017 381 1017 q 704 976 617 1017 q 836 866 790 935 q 883 713 882 797 l 680 713 q 648 796 674 765 q 580 842 622 828 q 486 856 539 856 q 353 819 395 856 q 312 734 312 783 q 343 660 312 688 q 445 617 375 632 l 619 580 q 777 520 717 561 q 865 422 838 480 q 893 293 893 365 q 841 133 893 202 q 699 25 790 64 q 489 -14 608 -14 m 406 1088 l 549 1290 l 758 1290 l 552 1088 l 406 1088 z "},"Š":{"ha":961,"x_min":69,"x_max":893,"o":"m 489 -14 q 342 5 414 -14 q 212 61 271 24 q 115 155 153 99 q 69 287 77 211 l 277 287 q 317 210 288 241 q 393 162 347 178 q 501 145 440 145 q 592 159 549 145 q 662 201 635 173 q 689 273 689 230 q 651 350 689 324 q 549 392 614 376 l 361 433 q 222 484 281 449 q 131 576 163 519 q 99 714 99 633 q 150 876 99 808 q 291 980 202 944 q 492 1017 381 1017 q 704 976 617 1017 q 836 866 790 935 q 883 713 882 797 l 680 713 q 648 796 674 765 q 580 842 622 828 q 486 856 539 856 q 353 819 395 856 q 312 734 312 783 q 343 660 312 688 q 445 617 375 632 l 619 580 q 777 520 717 561 q 865 422 838 480 q 893 293 893 365 q 841 133 893 202 q 699 25 790 64 q 489 -14 608 -14 m 412 1088 l 229 1269 l 380 1269 l 481 1165 l 573 1269 l 731 1269 l 553 1088 l 412 1088 z "},"Ş":{"ha":961,"x_min":69,"x_max":893,"o":"m 473 -295 q 389 -287 430 -295 q 313 -258 349 -278 l 341 -190 q 390 -213 363 -203 q 448 -224 418 -224 q 499 -212 481 -224 q 517 -181 517 -201 q 491 -139 517 -153 q 400 -124 465 -124 q 388 -121 391 -124 q 388 -110 385 -119 l 440 7 l 529 7 l 499 -74 q 582 -92 551 -76 q 626 -134 613 -109 q 639 -183 639 -158 q 616 -243 639 -218 q 555 -282 593 -269 q 473 -295 517 -295 m 489 -14 q 342 5 414 -14 q 212 61 271 24 q 115 155 153 99 q 69 287 77 211 l 277 287 q 317 210 288 241 q 393 162 347 178 q 501 145 440 145 q 592 159 549 145 q 662 201 635 173 q 689 273 689 230 q 651 350 689 324 q 549 392 614 376 l 361 433 q 222 484 281 449 q 131 576 163 519 q 99 714 99 633 q 150 876 99 808 q 291 980 202 944 q 492 1017 381 1017 q 704 976 617 1017 q 836 866 790 935 q 883 713 882 797 l 680 713 q 648 796 674 765 q 580 842 622 828 q 486 856 539 856 q 353 819 395 856 q 312 734 312 783 q 343 660 312 688 q 445 617 375 632 l 619 580 q 777 520 717 561 q 865 422 838 480 q 893 293 893 365 q 841 133 893 202 q 699 25 790 64 q 489 -14 608 -14 z "},"Ŝ":{"ha":961,"x_min":69,"x_max":893,"o":"m 489 -14 q 342 5 414 -14 q 212 61 271 24 q 115 155 153 99 q 69 287 77 211 l 277 287 q 317 210 288 241 q 393 162 347 178 q 501 145 440 145 q 592 159 549 145 q 662 201 635 173 q 689 273 689 230 q 651 350 689 324 q 549 392 614 376 l 361 433 q 222 484 281 449 q 131 576 163 519 q 99 714 99 633 q 150 876 99 808 q 291 980 202 944 q 492 1017 381 1017 q 704 976 617 1017 q 836 866 790 935 q 883 713 882 797 l 680 713 q 648 796 674 765 q 580 842 622 828 q 486 856 539 856 q 353 819 395 856 q 312 734 312 783 q 343 660 312 688 q 445 617 375 632 l 619 580 q 777 520 717 561 q 865 422 838 480 q 893 293 893 365 q 841 133 893 202 q 699 25 790 64 q 489 -14 608 -14 m 229 1088 l 413 1268 l 553 1268 l 731 1088 l 573 1088 l 481 1185 l 380 1088 l 229 1088 z "},"Ș":{"ha":961,"x_min":69,"x_max":893,"o":"m 489 -14 q 342 5 414 -14 q 212 61 271 24 q 115 155 153 99 q 69 287 77 211 l 277 287 q 317 210 288 241 q 393 162 347 178 q 501 145 440 145 q 592 159 549 145 q 662 201 635 173 q 689 273 689 230 q 651 350 689 324 q 549 392 614 376 l 361 433 q 222 484 281 449 q 131 576 163 519 q 99 714 99 633 q 150 876 99 808 q 291 980 202 944 q 492 1017 381 1017 q 704 976 617 1017 q 836 866 790 935 q 883 713 882 797 l 680 713 q 648 796 674 765 q 580 842 622 828 q 486 856 539 856 q 353 819 395 856 q 312 734 312 783 q 343 660 312 688 q 445 617 375 632 l 619 580 q 777 520 717 561 q 865 422 838 480 q 893 293 893 365 q 841 133 893 202 q 699 25 790 64 q 489 -14 608 -14 m 385 -306 l 449 -202 l 393 -195 l 393 -65 l 565 -65 l 565 -174 l 457 -306 l 385 -306 z "},"Ṣ":{"ha":961,"x_min":69,"x_max":893,"o":"m 489 -14 q 342 5 414 -14 q 212 61 271 24 q 115 155 153 99 q 69 287 77 211 l 277 287 q 317 210 288 241 q 393 162 347 178 q 501 145 440 145 q 592 159 549 145 q 662 201 635 173 q 689 273 689 230 q 651 350 689 324 q 549 392 614 376 l 361 433 q 222 484 281 449 q 131 576 163 519 q 99 714 99 633 q 150 876 99 808 q 291 980 202 944 q 492 1017 381 1017 q 704 976 617 1017 q 836 866 790 935 q 883 713 882 797 l 680 713 q 648 796 674 765 q 580 842 622 828 q 486 856 539 856 q 353 819 395 856 q 312 734 312 783 q 343 660 312 688 q 445 617 375 632 l 619 580 q 777 520 717 561 q 865 422 838 480 q 893 293 893 365 q 841 133 893 202 q 699 25 790 64 q 489 -14 608 -14 m 383 -276 l 383 -111 l 577 -111 l 577 -276 l 383 -276 z "},"Ə":{"ha":1054,"x_min":67,"x_max":988,"o":"m 526 -14 q 288 45 391 -14 q 126 231 184 105 q 67 556 67 357 l 746 556 q 687 758 746 687 q 522 829 628 829 q 426 813 468 829 q 355 772 384 797 q 310 715 326 746 q 294 656 294 685 l 67 656 q 99 780 67 716 q 191 897 131 843 q 335 985 251 951 q 526 1018 420 1018 q 774 959 670 1018 q 932 786 877 899 q 988 510 988 672 q 928 217 988 333 q 765 43 869 101 q 526 -14 661 -14 m 526 164 q 645 195 597 164 q 718 281 694 226 q 744 408 743 336 l 315 409 q 339 281 315 337 q 410 195 363 226 q 526 164 458 164 z "},"T":{"ha":856,"x_min":26,"x_max":830,"o":"m 330 0 l 330 824 l 26 824 l 26 1004 l 830 1004 l 830 824 l 533 824 l 533 0 l 330 0 z "},"Ŧ":{"ha":856,"x_min":26,"x_max":830,"o":"m 146 414 l 146 563 l 708 563 l 708 414 l 146 414 m 330 0 l 330 824 l 26 824 l 26 1004 l 830 1004 l 830 824 l 533 824 l 533 0 l 330 0 z "},"Ť":{"ha":856,"x_min":26,"x_max":830,"o":"m 330 0 l 330 824 l 26 824 l 26 1004 l 830 1004 l 830 824 l 533 824 l 533 0 l 330 0 m 371 1088 l 188 1269 l 339 1269 l 440 1165 l 532 1269 l 690 1269 l 512 1088 l 371 1088 z "},"Ţ":{"ha":856,"x_min":26,"x_max":830,"o":"m 435 -294 q 350 -286 391 -294 q 275 -257 310 -278 l 303 -188 q 352 -212 324 -201 q 410 -223 379 -223 q 461 -211 443 -223 q 479 -180 479 -200 q 453 -138 479 -152 q 361 -123 426 -124 q 350 -120 353 -123 q 350 -110 347 -118 l 401 8 l 491 8 l 460 -74 q 543 -91 513 -74 q 587 -133 574 -108 q 601 -182 601 -158 q 577 -242 601 -217 q 517 -281 554 -267 q 435 -294 479 -294 m 330 0 l 330 824 l 26 824 l 26 1004 l 830 1004 l 830 824 l 533 824 l 533 0 l 330 0 z "},"Ț":{"ha":856,"x_min":26,"x_max":830,"o":"m 330 0 l 330 824 l 26 824 l 26 1004 l 830 1004 l 830 824 l 533 824 l 533 0 l 330 0 m 347 -305 l 410 -201 l 355 -194 l 355 -65 l 527 -65 l 527 -173 l 419 -305 l 347 -305 z "},"Ṭ":{"ha":856,"x_min":26,"x_max":830,"o":"m 330 0 l 330 824 l 26 824 l 26 1004 l 830 1004 l 830 824 l 533 824 l 533 0 l 330 0 m 344 -276 l 344 -110 l 538 -110 l 538 -276 l 344 -276 z "},"U":{"ha":1006,"x_min":113,"x_max":916,"o":"m 514 -14 q 279 35 367 -14 q 152 174 191 84 q 113 390 113 265 l 113 1004 l 319 1004 l 319 374 q 373 210 319 262 q 514 158 427 158 q 616 181 572 158 q 686 251 660 203 q 711 374 711 299 l 711 1004 l 916 1004 l 916 383 q 876 172 916 261 q 748 34 837 83 q 514 -14 660 -14 z "},"Ú":{"ha":1006,"x_min":113,"x_max":916,"o":"m 514 -14 q 279 35 367 -14 q 152 174 191 84 q 113 390 113 265 l 113 1004 l 319 1004 l 319 374 q 373 210 319 262 q 514 158 427 158 q 616 181 572 158 q 686 251 660 203 q 711 374 711 299 l 711 1004 l 916 1004 l 916 383 q 876 172 916 261 q 748 34 837 83 q 514 -14 660 -14 m 439 1088 l 582 1290 l 791 1290 l 585 1088 l 439 1088 z "},"Ŭ":{"ha":1006,"x_min":113,"x_max":916,"o":"m 514 -14 q 279 35 367 -14 q 152 174 191 84 q 113 390 113 265 l 113 1004 l 319 1004 l 319 374 q 373 210 319 262 q 514 158 427 158 q 616 181 572 158 q 686 251 660 203 q 711 374 711 299 l 711 1004 l 916 1004 l 916 383 q 876 172 916 261 q 748 34 837 83 q 514 -14 660 -14 m 515 1088 q 405 1108 456 1088 q 319 1167 354 1128 q 272 1265 283 1207 l 399 1265 q 440 1209 410 1231 q 515 1187 469 1187 q 589 1209 559 1187 q 631 1265 619 1231 l 758 1265 q 711 1168 747 1207 q 625 1108 676 1128 q 515 1088 574 1088 z "},"Û":{"ha":1006,"x_min":113,"x_max":916,"o":"m 514 -14 q 279 35 367 -14 q 152 174 191 84 q 113 390 113 265 l 113 1004 l 319 1004 l 319 374 q 373 210 319 262 q 514 158 427 158 q 616 181 572 158 q 686 251 660 203 q 711 374 711 299 l 711 1004 l 916 1004 l 916 383 q 876 172 916 261 q 748 34 837 83 q 514 -14 660 -14 m 262 1088 l 445 1268 l 585 1268 l 764 1088 l 606 1088 l 514 1185 l 413 1088 l 262 1088 z "},"Ȕ":{"ha":1006,"x_min":101,"x_max":916,"o":"m 514 -14 q 279 35 367 -14 q 152 174 191 84 q 113 390 113 265 l 113 1004 l 319 1004 l 319 374 q 373 210 319 262 q 514 158 427 158 q 616 181 572 158 q 686 251 660 203 q 711 374 711 299 l 711 1004 l 916 1004 l 916 383 q 876 172 916 261 q 748 34 837 83 q 514 -14 660 -14 m 317 1088 l 101 1290 l 292 1290 l 463 1088 l 317 1088 m 562 1088 l 383 1290 l 569 1290 l 708 1088 l 562 1088 z "},"Ü":{"ha":1006,"x_min":113,"x_max":916,"o":"m 514 -14 q 279 35 367 -14 q 152 174 191 84 q 113 390 113 265 l 113 1004 l 319 1004 l 319 374 q 373 210 319 262 q 514 158 427 158 q 616 181 572 158 q 686 251 660 203 q 711 374 711 299 l 711 1004 l 916 1004 l 916 383 q 876 172 916 261 q 748 34 837 83 q 514 -14 660 -14 m 581 1125 l 583 1290 l 772 1290 l 771 1125 l 581 1125 m 257 1125 l 259 1290 l 449 1290 l 447 1125 l 257 1125 z "},"Ụ":{"ha":1006,"x_min":113,"x_max":916,"o":"m 514 -14 q 279 35 367 -14 q 152 174 191 84 q 113 390 113 265 l 113 1004 l 319 1004 l 319 374 q 373 210 319 262 q 514 158 427 158 q 616 181 572 158 q 686 251 660 203 q 711 374 711 299 l 711 1004 l 916 1004 l 916 383 q 876 172 916 261 q 748 34 837 83 q 514 -14 660 -14 m 417 -276 l 417 -110 l 611 -110 l 611 -276 l 417 -276 z "},"Ù":{"ha":1006,"x_min":113,"x_max":916,"o":"m 514 -14 q 279 35 367 -14 q 152 174 191 84 q 113 390 113 265 l 113 1004 l 319 1004 l 319 374 q 373 210 319 262 q 514 158 427 158 q 616 181 572 158 q 686 251 660 203 q 711 374 711 299 l 711 1004 l 916 1004 l 916 383 q 876 172 916 261 q 748 34 837 83 q 514 -14 660 -14 m 440 1088 l 234 1290 l 443 1290 l 586 1088 l 440 1088 z "},"Ủ":{"ha":1006,"x_min":113,"x_max":916,"o":"m 514 -14 q 279 35 367 -14 q 152 174 191 84 q 113 390 113 265 l 113 1004 l 319 1004 l 319 374 q 373 210 319 262 q 514 158 427 158 q 616 181 572 158 q 686 251 660 203 q 711 374 711 299 l 711 1004 l 916 1004 l 916 383 q 876 172 916 261 q 748 34 837 83 q 514 -14 660 -14 m 572 1088 l 524 1163 q 561 1203 552 1180 q 556 1249 571 1226 q 517 1272 544 1270 q 465 1256 490 1273 l 417 1330 q 543 1361 481 1371 q 636 1301 605 1351 q 659 1186 674 1242 q 572 1088 643 1129 z "},"Ư":{"ha":1195,"x_min":113,"x_max":1147,"o":"m 514 -14 q 279 35 367 -14 q 152 174 191 84 q 113 390 113 265 l 113 1004 l 319 1004 l 319 374 q 373 210 319 262 q 514 158 427 158 q 616 181 572 158 q 686 251 660 203 q 711 374 711 299 l 711 1004 l 916 1004 l 916 885 q 967 897 948 886 q 998 940 987 908 q 1013 1031 1009 971 l 1147 1031 q 1125 883 1146 940 q 1055 801 1104 826 q 916 782 1005 777 l 916 383 q 876 172 916 261 q 748 34 837 83 q 514 -14 660 -14 z "},"Ứ":{"ha":1195,"x_min":113,"x_max":1147,"o":"m 514 -14 q 279 35 367 -14 q 152 174 191 84 q 113 390 113 265 l 113 1004 l 319 1004 l 319 374 q 373 210 319 262 q 514 158 427 158 q 616 181 572 158 q 686 251 660 203 q 711 374 711 299 l 711 1004 l 916 1004 l 916 885 q 967 897 948 886 q 998 940 987 908 q 1013 1031 1009 971 l 1147 1031 q 1125 883 1146 940 q 1055 801 1104 826 q 916 782 1005 777 l 916 383 q 876 172 916 261 q 748 34 837 83 q 514 -14 660 -14 m 439 1088 l 582 1290 l 791 1290 l 585 1088 l 439 1088 z "},"Ự":{"ha":1195,"x_min":113,"x_max":1147,"o":"m 514 -14 q 279 35 367 -14 q 152 174 191 84 q 113 390 113 265 l 113 1004 l 319 1004 l 319 374 q 373 210 319 262 q 514 158 427 158 q 616 181 572 158 q 686 251 660 203 q 711 374 711 299 l 711 1004 l 916 1004 l 916 885 q 967 897 948 886 q 998 940 987 908 q 1013 1031 1009 971 l 1147 1031 q 1125 883 1146 940 q 1055 801 1104 826 q 916 782 1005 777 l 916 383 q 876 172 916 261 q 748 34 837 83 q 514 -14 660 -14 m 417 -276 l 417 -110 l 611 -110 l 611 -276 l 417 -276 z "},"Ừ":{"ha":1195,"x_min":113,"x_max":1147,"o":"m 514 -14 q 279 35 367 -14 q 152 174 191 84 q 113 390 113 265 l 113 1004 l 319 1004 l 319 374 q 373 210 319 262 q 514 158 427 158 q 616 181 572 158 q 686 251 660 203 q 711 374 711 299 l 711 1004 l 916 1004 l 916 885 q 967 897 948 886 q 998 940 987 908 q 1013 1031 1009 971 l 1147 1031 q 1125 883 1146 940 q 1055 801 1104 826 q 916 782 1005 777 l 916 383 q 876 172 916 261 q 748 34 837 83 q 514 -14 660 -14 m 440 1088 l 234 1290 l 443 1290 l 586 1088 l 440 1088 z "},"Ử":{"ha":1195,"x_min":113,"x_max":1147,"o":"m 514 -14 q 279 35 367 -14 q 152 174 191 84 q 113 390 113 265 l 113 1004 l 319 1004 l 319 374 q 373 210 319 262 q 514 158 427 158 q 616 181 572 158 q 686 251 660 203 q 711 374 711 299 l 711 1004 l 916 1004 l 916 885 q 967 897 948 886 q 998 940 987 908 q 1013 1031 1009 971 l 1147 1031 q 1125 883 1146 940 q 1055 801 1104 826 q 916 782 1005 777 l 916 383 q 876 172 916 261 q 748 34 837 83 q 514 -14 660 -14 m 572 1088 l 524 1163 q 561 1203 552 1180 q 556 1249 571 1226 q 517 1272 544 1270 q 465 1256 490 1273 l 417 1330 q 543 1361 481 1371 q 636 1301 605 1351 q 659 1186 674 1242 q 572 1088 643 1129 z "},"Ữ":{"ha":1190,"x_min":113,"x_max":1147,"o":"m 514 -14 q 279 35 367 -14 q 152 174 191 84 q 113 390 113 265 l 113 1004 l 319 1004 l 319 374 q 373 210 319 262 q 514 158 427 158 q 616 181 572 158 q 686 251 660 203 q 711 374 711 299 l 711 1004 l 916 1004 l 916 885 q 967 897 948 886 q 998 940 987 908 q 1013 1031 1009 971 l 1147 1031 q 1125 883 1146 940 q 1055 801 1104 826 q 916 782 1005 777 l 916 383 q 876 172 916 261 q 748 34 837 83 q 514 -14 660 -14 m 310 1113 l 278 1219 q 334 1264 303 1245 q 412 1283 365 1283 q 486 1272 451 1283 q 553 1251 521 1262 q 617 1240 585 1240 q 682 1256 653 1240 q 733 1288 710 1272 l 758 1168 q 700 1135 736 1151 q 617 1119 664 1119 q 547 1129 578 1119 q 485 1148 515 1139 q 419 1158 454 1158 q 360 1147 383 1158 q 310 1113 337 1136 z "},"Ű":{"ha":1006,"x_min":113,"x_max":928,"o":"m 514 -14 q 279 35 367 -14 q 152 174 191 84 q 113 390 113 265 l 113 1004 l 319 1004 l 319 374 q 373 210 319 262 q 514 158 427 158 q 616 181 572 158 q 686 251 660 203 q 711 374 711 299 l 711 1004 l 916 1004 l 916 383 q 876 172 916 261 q 748 34 837 83 q 514 -14 660 -14 m 565 1088 l 736 1290 l 927 1290 l 711 1088 l 565 1088 m 319 1088 l 460 1290 l 644 1290 l 466 1088 l 319 1088 z "},"Ȗ":{"ha":1006,"x_min":113,"x_max":916,"o":"m 514 -14 q 279 35 367 -14 q 152 174 191 84 q 113 390 113 265 l 113 1004 l 319 1004 l 319 374 q 373 210 319 262 q 514 158 427 158 q 616 181 572 158 q 686 251 660 203 q 711 374 711 299 l 711 1004 l 916 1004 l 916 383 q 876 172 916 261 q 748 34 837 83 q 514 -14 660 -14 m 269 1106 q 317 1204 282 1165 q 403 1263 353 1243 q 513 1283 454 1283 q 623 1263 572 1283 q 709 1203 674 1242 q 756 1106 745 1164 l 629 1106 q 588 1162 618 1140 q 513 1184 557 1184 q 438 1162 467 1184 q 397 1106 408 1140 l 269 1106 z "},"Ū":{"ha":1006,"x_min":113,"x_max":916,"o":"m 514 -14 q 279 35 367 -14 q 152 174 191 84 q 113 390 113 265 l 113 1004 l 319 1004 l 319 374 q 373 210 319 262 q 514 158 427 158 q 616 181 572 158 q 686 251 660 203 q 711 374 711 299 l 711 1004 l 916 1004 l 916 383 q 876 172 916 261 q 748 34 837 83 q 514 -14 660 -14 m 271 1123 l 271 1253 l 759 1253 l 759 1123 l 271 1123 z "},"Ų":{"ha":1006,"x_min":113,"x_max":916,"o":"m 519 -233 q 408 -203 449 -233 q 368 -119 368 -174 q 394 -48 368 -81 q 501 11 420 -16 l 643 7 q 542 -43 569 -19 q 515 -94 515 -66 q 527 -127 515 -116 q 565 -138 539 -138 q 621 -129 597 -138 q 665 -108 645 -119 l 665 -200 q 606 -222 646 -211 q 519 -233 566 -233 m 514 -14 q 279 35 367 -14 q 152 174 191 84 q 113 390 113 265 l 113 1004 l 319 1004 l 319 374 q 373 210 319 262 q 514 158 427 158 q 616 181 572 158 q 686 251 660 203 q 711 374 711 299 l 711 1004 l 916 1004 l 916 383 q 876 172 916 261 q 748 34 837 83 q 514 -14 660 -14 z "},"Ů":{"ha":1006,"x_min":113,"x_max":916,"o":"m 514 -14 q 279 35 367 -14 q 152 174 191 84 q 113 390 113 265 l 113 1004 l 319 1004 l 319 374 q 373 210 319 262 q 514 158 427 158 q 616 181 572 158 q 686 251 660 203 q 711 374 711 299 l 711 1004 l 916 1004 l 916 383 q 876 172 916 261 q 748 34 837 83 q 514 -14 660 -14 m 515 1074 q 408 1119 451 1074 q 364 1228 364 1163 q 408 1331 364 1289 q 515 1374 453 1374 q 591 1354 556 1374 q 645 1300 625 1334 q 666 1225 666 1267 q 622 1118 666 1162 q 515 1074 578 1074 m 513 1153 q 562 1175 542 1153 q 582 1224 582 1197 q 562 1274 582 1254 q 513 1293 542 1293 q 464 1274 485 1293 q 442 1224 442 1254 q 464 1175 442 1197 q 513 1153 485 1153 z "},"Ũ":{"ha":1006,"x_min":113,"x_max":916,"o":"m 514 -14 q 279 35 367 -14 q 152 174 191 84 q 113 390 113 265 l 113 1004 l 319 1004 l 319 374 q 373 210 319 262 q 514 158 427 158 q 616 181 572 158 q 686 251 660 203 q 711 374 711 299 l 711 1004 l 916 1004 l 916 383 q 876 172 916 261 q 748 34 837 83 q 514 -14 660 -14 m 310 1113 l 278 1219 q 334 1264 303 1245 q 412 1283 365 1283 q 486 1272 451 1283 q 553 1251 521 1262 q 617 1240 585 1240 q 682 1256 653 1240 q 733 1288 710 1272 l 758 1168 q 700 1135 736 1151 q 617 1119 664 1119 q 547 1129 578 1119 q 485 1148 515 1139 q 419 1158 454 1158 q 360 1147 383 1158 q 310 1113 337 1136 z "},"V":{"ha":977,"x_min":26,"x_max":951,"o":"m 374 0 l 26 1004 l 220 1004 l 489 235 l 756 1004 l 951 1004 l 603 0 l 374 0 z "},"W":{"ha":1345,"x_min":26,"x_max":1319,"o":"m 322 0 l 26 1004 l 225 1004 l 412 341 l 599 1004 l 745 1004 l 934 341 l 1121 1004 l 1319 1004 l 1022 0 l 860 0 l 672 656 l 481 0 l 322 0 z "},"Ẃ":{"ha":1345,"x_min":26,"x_max":1319,"o":"m 322 0 l 26 1004 l 225 1004 l 412 341 l 599 1004 l 745 1004 l 934 341 l 1121 1004 l 1319 1004 l 1022 0 l 860 0 l 672 656 l 481 0 l 322 0 m 596 1088 l 739 1290 l 948 1290 l 742 1088 l 596 1088 z "},"Ŵ":{"ha":1345,"x_min":26,"x_max":1319,"o":"m 322 0 l 26 1004 l 225 1004 l 412 341 l 599 1004 l 745 1004 l 934 341 l 1121 1004 l 1319 1004 l 1022 0 l 860 0 l 672 656 l 481 0 l 322 0 m 419 1088 l 602 1268 l 742 1268 l 921 1088 l 763 1088 l 671 1185 l 569 1088 l 419 1088 z "},"Ẅ":{"ha":1345,"x_min":26,"x_max":1319,"o":"m 322 0 l 26 1004 l 225 1004 l 412 341 l 599 1004 l 745 1004 l 934 341 l 1121 1004 l 1319 1004 l 1022 0 l 860 0 l 672 656 l 481 0 l 322 0 m 738 1125 l 740 1290 l 929 1290 l 928 1125 l 738 1125 m 414 1125 l 416 1290 l 606 1290 l 604 1125 l 414 1125 z "},"Ẁ":{"ha":1345,"x_min":26,"x_max":1319,"o":"m 322 0 l 26 1004 l 225 1004 l 412 341 l 599 1004 l 745 1004 l 934 341 l 1121 1004 l 1319 1004 l 1022 0 l 860 0 l 672 656 l 481 0 l 322 0 m 597 1088 l 391 1290 l 600 1290 l 743 1088 l 597 1088 z "},"X":{"ha":996,"x_min":38,"x_max":958,"o":"m 38 0 l 372 510 l 49 1004 l 299 1004 l 500 679 l 699 1004 l 914 1004 l 604 536 l 958 0 l 705 0 l 478 363 l 256 0 l 38 0 z "},"Y":{"ha":927,"x_min":13,"x_max":914,"o":"m 362 0 l 362 423 l 13 1004 l 233 1004 l 464 597 l 692 1004 l 914 1004 l 565 422 l 565 0 l 362 0 z "},"Ý":{"ha":927,"x_min":13,"x_max":914,"o":"m 362 0 l 362 423 l 13 1004 l 233 1004 l 464 597 l 692 1004 l 914 1004 l 565 422 l 565 0 l 362 0 m 411 1089 l 554 1291 l 763 1291 l 557 1089 l 411 1089 z "},"Ŷ":{"ha":927,"x_min":13,"x_max":914,"o":"m 362 0 l 362 423 l 13 1004 l 233 1004 l 464 597 l 692 1004 l 914 1004 l 565 422 l 565 0 l 362 0 m 234 1089 l 417 1269 l 558 1269 l 736 1089 l 578 1089 l 486 1186 l 385 1089 l 234 1089 z "},"Ÿ":{"ha":927,"x_min":13,"x_max":914,"o":"m 362 0 l 362 423 l 13 1004 l 233 1004 l 464 597 l 692 1004 l 914 1004 l 565 422 l 565 0 l 362 0 m 553 1126 l 555 1291 l 744 1291 l 743 1126 l 553 1126 m 229 1126 l 231 1291 l 421 1291 l 419 1126 l 229 1126 z "},"Ỵ":{"ha":927,"x_min":13,"x_max":914,"o":"m 362 0 l 362 423 l 13 1004 l 233 1004 l 464 597 l 692 1004 l 914 1004 l 565 422 l 565 0 l 362 0 m 367 -276 l 367 -111 l 561 -111 l 561 -276 l 367 -276 z "},"Ỳ":{"ha":927,"x_min":13,"x_max":914,"o":"m 362 0 l 362 423 l 13 1004 l 233 1004 l 464 597 l 692 1004 l 914 1004 l 565 422 l 565 0 l 362 0 m 412 1089 l 206 1291 l 415 1291 l 558 1089 l 412 1089 z "},"Ỷ":{"ha":927,"x_min":13,"x_max":914,"o":"m 362 0 l 362 423 l 13 1004 l 233 1004 l 464 597 l 692 1004 l 914 1004 l 565 422 l 565 0 l 362 0 m 544 1088 l 497 1163 q 534 1204 524 1181 q 528 1250 543 1227 q 489 1272 516 1271 q 437 1257 462 1274 l 390 1331 q 515 1361 453 1372 q 608 1302 577 1351 q 631 1186 647 1243 q 544 1088 615 1130 z "},"Ỹ":{"ha":927,"x_min":13,"x_max":914,"o":"m 362 0 l 362 423 l 13 1004 l 233 1004 l 464 597 l 692 1004 l 914 1004 l 565 422 l 565 0 l 362 0 m 283 1114 l 251 1220 q 307 1265 276 1246 q 385 1283 338 1283 q 459 1273 424 1283 q 526 1252 494 1263 q 590 1241 558 1241 q 655 1257 626 1241 q 706 1289 683 1272 l 731 1169 q 673 1136 709 1151 q 590 1120 637 1120 q 520 1130 551 1120 q 458 1149 488 1140 q 392 1158 427 1158 q 333 1148 356 1158 q 283 1114 310 1137 z "},"Z":{"ha":930,"x_min":75,"x_max":874,"o":"m 75 0 l 75 99 l 585 835 l 109 835 l 109 1004 l 874 1004 l 874 910 l 357 172 l 868 172 l 868 0 l 75 0 z "},"Ź":{"ha":930,"x_min":75,"x_max":874,"o":"m 75 0 l 75 99 l 585 835 l 109 835 l 109 1004 l 874 1004 l 874 910 l 357 172 l 868 172 l 868 0 l 75 0 m 425 1088 l 568 1290 l 777 1290 l 571 1088 l 425 1088 z "},"Ž":{"ha":930,"x_min":75,"x_max":874,"o":"m 75 0 l 75 99 l 585 835 l 109 835 l 109 1004 l 874 1004 l 874 910 l 357 172 l 868 172 l 868 0 l 75 0 m 431 1088 l 248 1269 l 399 1269 l 500 1165 l 592 1269 l 750 1269 l 572 1088 l 431 1088 z "},"Ż":{"ha":930,"x_min":75,"x_max":874,"o":"m 75 0 l 75 99 l 585 835 l 109 835 l 109 1004 l 874 1004 l 874 910 l 357 172 l 868 172 l 868 0 l 75 0 m 404 1125 l 404 1290 l 598 1290 l 598 1125 l 404 1125 z "},"Ẓ":{"ha":930,"x_min":75,"x_max":874,"o":"m 75 0 l 75 99 l 585 835 l 109 835 l 109 1004 l 874 1004 l 874 910 l 357 172 l 868 172 l 868 0 l 75 0 m 386 -276 l 386 -111 l 580 -111 l 580 -276 l 386 -276 z "},"a":{"ha":787,"x_min":58,"x_max":709,"o":"m 300 -14 q 177 12 232 -14 q 90 86 122 38 q 58 206 58 135 q 146 385 58 324 q 424 449 234 447 l 515 450 l 515 493 q 486 569 515 542 q 396 595 457 596 q 312 574 352 594 q 257 504 272 554 l 88 504 q 134 632 92 582 q 245 707 175 683 q 406 732 315 732 q 582 705 515 732 q 679 626 649 677 q 709 505 709 575 l 709 0 l 540 0 l 523 124 q 431 16 486 46 q 300 -14 376 -14 m 369 119 q 422 130 396 119 q 469 157 448 140 q 502 195 490 174 q 515 240 514 217 l 515 346 l 442 344 q 347 332 391 344 q 277 295 303 321 q 250 226 250 269 q 284 148 250 176 q 369 119 319 119 z "},"á":{"ha":787,"x_min":58,"x_max":709,"o":"m 300 -14 q 177 12 232 -14 q 90 86 122 38 q 58 206 58 135 q 146 385 58 324 q 424 449 234 447 l 515 450 l 515 493 q 486 569 515 542 q 396 595 457 596 q 312 574 352 594 q 257 504 272 554 l 88 504 q 134 632 92 582 q 245 707 175 683 q 406 732 315 732 q 582 705 515 732 q 679 626 649 677 q 709 505 709 575 l 709 0 l 540 0 l 523 124 q 431 16 486 46 q 300 -14 376 -14 m 369 119 q 422 130 396 119 q 469 157 448 140 q 502 195 490 174 q 515 240 514 217 l 515 346 l 442 344 q 347 332 391 344 q 277 295 303 321 q 250 226 250 269 q 284 148 250 176 q 369 119 319 119 m 331 802 l 474 1004 l 683 1004 l 477 802 l 331 802 z "},"ă":{"ha":787,"x_min":58,"x_max":709,"o":"m 300 -14 q 177 12 232 -14 q 90 86 122 38 q 58 206 58 135 q 146 385 58 324 q 424 449 234 447 l 515 450 l 515 493 q 486 569 515 542 q 396 595 457 596 q 312 574 352 594 q 257 504 272 554 l 88 504 q 134 632 92 582 q 245 707 175 683 q 406 732 315 732 q 582 705 515 732 q 679 626 649 677 q 709 505 709 575 l 709 0 l 540 0 l 523 124 q 431 16 486 46 q 300 -14 376 -14 m 369 119 q 422 130 396 119 q 469 157 448 140 q 502 195 490 174 q 515 240 514 217 l 515 346 l 442 344 q 347 332 391 344 q 277 295 303 321 q 250 226 250 269 q 284 148 250 176 q 369 119 319 119 m 407 802 q 298 822 349 802 q 211 881 247 842 q 164 979 176 921 l 292 979 q 332 923 302 944 q 407 901 362 901 q 482 923 451 901 q 524 979 512 944 l 651 979 q 603 882 639 921 q 517 822 568 842 q 407 802 466 802 z "},"ắ":{"ha":787,"x_min":58,"x_max":709,"o":"m 300 -14 q 177 12 232 -14 q 90 86 122 38 q 58 206 58 135 q 146 385 58 324 q 424 449 234 447 l 515 450 l 515 493 q 486 569 515 542 q 396 595 457 596 q 312 574 352 594 q 257 504 272 554 l 88 504 q 134 632 92 582 q 245 707 175 683 q 406 732 315 732 q 582 705 515 732 q 679 626 649 677 q 709 505 709 575 l 709 0 l 540 0 l 523 124 q 431 16 486 46 q 300 -14 376 -14 m 369 119 q 422 130 396 119 q 469 157 448 140 q 502 195 490 174 q 515 240 514 217 l 515 346 l 442 344 q 347 332 391 344 q 277 295 303 321 q 250 226 250 269 q 284 148 250 176 q 369 119 319 119 m 408 802 q 299 822 350 802 q 213 881 248 842 q 165 979 177 921 l 293 979 q 333 923 303 944 q 408 901 363 901 q 483 923 453 901 q 525 979 513 944 l 652 979 q 605 882 640 921 q 518 822 569 842 q 408 802 467 802 m 353 1019 l 459 1201 l 615 1201 l 459 1019 l 353 1019 z "},"ặ":{"ha":787,"x_min":58,"x_max":709,"o":"m 300 -14 q 177 12 232 -14 q 90 86 122 38 q 58 206 58 135 q 146 385 58 324 q 424 449 234 447 l 515 450 l 515 493 q 486 569 515 542 q 396 595 457 596 q 312 574 352 594 q 257 504 272 554 l 88 504 q 134 632 92 582 q 245 707 175 683 q 406 732 315 732 q 582 705 515 732 q 679 626 649 677 q 709 505 709 575 l 709 0 l 540 0 l 523 124 q 431 16 486 46 q 300 -14 376 -14 m 369 119 q 422 130 396 119 q 469 157 448 140 q 502 195 490 174 q 515 240 514 217 l 515 346 l 442 344 q 347 332 391 344 q 277 295 303 321 q 250 226 250 269 q 284 148 250 176 q 369 119 319 119 m 308 -276 l 308 -111 l 501 -111 l 501 -276 l 308 -276 m 407 802 q 298 822 349 802 q 211 881 247 842 q 164 979 176 921 l 292 979 q 332 923 302 944 q 407 901 362 901 q 482 923 451 901 q 524 979 512 944 l 651 979 q 603 882 639 921 q 517 822 568 842 q 407 802 466 802 z "},"ằ":{"ha":787,"x_min":58,"x_max":709,"o":"m 300 -14 q 177 12 232 -14 q 90 86 122 38 q 58 206 58 135 q 146 385 58 324 q 424 449 234 447 l 515 450 l 515 493 q 486 569 515 542 q 396 595 457 596 q 312 574 352 594 q 257 504 272 554 l 88 504 q 134 632 92 582 q 245 707 175 683 q 406 732 315 732 q 582 705 515 732 q 679 626 649 677 q 709 505 709 575 l 709 0 l 540 0 l 523 124 q 431 16 486 46 q 300 -14 376 -14 m 369 119 q 422 130 396 119 q 469 157 448 140 q 502 195 490 174 q 515 240 514 217 l 515 346 l 442 344 q 347 332 391 344 q 277 295 303 321 q 250 226 250 269 q 284 148 250 176 q 369 119 319 119 m 408 802 q 299 822 350 802 q 213 881 248 842 q 165 979 177 921 l 293 979 q 333 923 303 944 q 408 901 363 901 q 483 923 453 901 q 525 979 513 944 l 652 979 q 605 882 640 921 q 518 822 569 842 q 408 802 467 802 m 363 1019 l 205 1201 l 362 1201 l 472 1019 l 363 1019 z "},"ẳ":{"ha":787,"x_min":58,"x_max":709,"o":"m 300 -14 q 177 12 232 -14 q 90 86 122 38 q 58 206 58 135 q 146 385 58 324 q 424 449 234 447 l 515 450 l 515 493 q 486 569 515 542 q 396 595 457 596 q 312 574 352 594 q 257 504 272 554 l 88 504 q 134 632 92 582 q 245 707 175 683 q 406 732 315 732 q 582 705 515 732 q 679 626 649 677 q 709 505 709 575 l 709 0 l 540 0 l 523 124 q 431 16 486 46 q 300 -14 376 -14 m 369 119 q 422 130 396 119 q 469 157 448 140 q 502 195 490 174 q 515 240 514 217 l 515 346 l 442 344 q 347 332 391 344 q 277 295 303 321 q 250 226 250 269 q 284 148 250 176 q 369 119 319 119 m 408 802 q 299 822 350 802 q 213 881 248 842 q 165 979 177 921 l 293 979 q 333 923 303 944 q 408 901 363 901 q 483 923 453 901 q 525 979 513 944 l 652 979 q 605 882 640 921 q 518 822 569 842 q 408 802 467 802 m 415 967 l 367 1042 q 403 1083 394 1060 q 399 1129 413 1106 q 359 1151 386 1150 q 307 1136 332 1153 l 259 1210 q 363 1242 310 1242 q 478 1181 439 1242 q 500 1066 516 1122 q 415 967 485 1009 z "},"ẵ":{"ha":787,"x_min":58,"x_max":709,"o":"m 300 -14 q 177 12 232 -14 q 90 86 122 38 q 58 206 58 135 q 146 385 58 324 q 424 449 234 447 l 515 450 l 515 493 q 486 569 515 542 q 396 595 457 596 q 312 574 352 594 q 257 504 272 554 l 88 504 q 134 632 92 582 q 245 707 175 683 q 406 732 315 732 q 582 705 515 732 q 679 626 649 677 q 709 505 709 575 l 709 0 l 540 0 l 523 124 q 431 16 486 46 q 300 -14 376 -14 m 369 119 q 422 130 396 119 q 469 157 448 140 q 502 195 490 174 q 515 240 514 217 l 515 346 l 442 344 q 347 332 391 344 q 277 295 303 321 q 250 226 250 269 q 284 148 250 176 q 369 119 319 119 m 408 802 q 299 822 350 802 q 213 881 248 842 q 165 979 177 921 l 293 979 q 333 923 303 944 q 408 901 363 901 q 483 923 453 901 q 525 979 513 944 l 652 979 q 605 882 640 921 q 518 822 569 842 q 408 802 467 802 m 197 1045 l 167 1151 q 222 1197 192 1178 q 300 1215 253 1215 q 374 1205 339 1215 q 441 1183 408 1194 q 505 1172 474 1172 q 570 1188 541 1172 q 620 1221 599 1203 l 646 1100 q 588 1067 624 1083 q 506 1051 552 1051 q 435 1061 467 1051 q 372 1081 403 1072 q 306 1090 342 1090 q 248 1079 272 1090 q 197 1045 225 1068 z "},"â":{"ha":787,"x_min":58,"x_max":709,"o":"m 300 -14 q 177 12 232 -14 q 90 86 122 38 q 58 206 58 135 q 146 385 58 324 q 424 449 234 447 l 515 450 l 515 493 q 486 569 515 542 q 396 595 457 596 q 312 574 352 594 q 257 504 272 554 l 88 504 q 134 632 92 582 q 245 707 175 683 q 406 732 315 732 q 582 705 515 732 q 679 626 649 677 q 709 505 709 575 l 709 0 l 540 0 l 523 124 q 431 16 486 46 q 300 -14 376 -14 m 369 119 q 422 130 396 119 q 469 157 448 140 q 502 195 490 174 q 515 240 514 217 l 515 346 l 442 344 q 347 332 391 344 q 277 295 303 321 q 250 226 250 269 q 284 148 250 176 q 369 119 319 119 m 154 802 l 338 982 l 478 982 l 656 802 l 498 802 l 406 899 l 305 802 l 154 802 z "},"ấ":{"ha":787,"x_min":58,"x_max":826,"o":"m 300 -14 q 177 12 232 -14 q 90 86 122 38 q 58 206 58 135 q 146 385 58 324 q 424 449 234 447 l 515 450 l 515 493 q 486 569 515 542 q 396 595 457 596 q 312 574 352 594 q 257 504 272 554 l 88 504 q 134 632 92 582 q 245 707 175 683 q 406 732 315 732 q 582 705 515 732 q 679 626 649 677 q 709 505 709 575 l 709 0 l 540 0 l 523 124 q 431 16 486 46 q 300 -14 376 -14 m 369 119 q 422 130 396 119 q 469 157 448 140 q 502 195 490 174 q 515 240 514 217 l 515 346 l 442 344 q 347 332 391 344 q 277 295 303 321 q 250 226 250 269 q 284 148 250 176 q 369 119 319 119 m 154 802 l 338 982 l 478 982 l 656 802 l 498 802 l 406 899 l 305 802 l 154 802 m 565 971 l 670 1153 l 826 1153 l 670 971 l 565 971 z "},"ậ":{"ha":787,"x_min":58,"x_max":709,"o":"m 300 -14 q 177 12 232 -14 q 90 86 122 38 q 58 206 58 135 q 146 385 58 324 q 424 449 234 447 l 515 450 l 515 493 q 486 569 515 542 q 396 595 457 596 q 312 574 352 594 q 257 504 272 554 l 88 504 q 134 632 92 582 q 245 707 175 683 q 406 732 315 732 q 582 705 515 732 q 679 626 649 677 q 709 505 709 575 l 709 0 l 540 0 l 523 124 q 431 16 486 46 q 300 -14 376 -14 m 369 119 q 422 130 396 119 q 469 157 448 140 q 502 195 490 174 q 515 240 514 217 l 515 346 l 442 344 q 347 332 391 344 q 277 295 303 321 q 250 226 250 269 q 284 148 250 176 q 369 119 319 119 m 308 -276 l 308 -111 l 501 -111 l 501 -276 l 308 -276 m 154 802 l 338 982 l 478 982 l 656 802 l 498 802 l 406 899 l 305 802 l 154 802 z "},"ầ":{"ha":787,"x_min":58,"x_max":734,"o":"m 300 -14 q 177 12 232 -14 q 90 86 122 38 q 58 206 58 135 q 146 385 58 324 q 424 449 234 447 l 515 450 l 515 493 q 486 569 515 542 q 396 595 457 596 q 312 574 352 594 q 257 504 272 554 l 88 504 q 134 632 92 582 q 245 707 175 683 q 406 732 315 732 q 582 705 515 732 q 679 626 649 677 q 709 505 709 575 l 709 0 l 540 0 l 523 124 q 431 16 486 46 q 300 -14 376 -14 m 369 119 q 422 130 396 119 q 469 157 448 140 q 502 195 490 174 q 515 240 514 217 l 515 346 l 442 344 q 347 332 391 344 q 277 295 303 321 q 250 226 250 269 q 284 148 250 176 q 369 119 319 119 m 154 802 l 338 982 l 478 982 l 656 802 l 498 802 l 406 899 l 305 802 l 154 802 m 625 971 l 467 1152 l 624 1152 l 734 971 l 625 971 z "},"ẩ":{"ha":787,"x_min":58,"x_max":717,"o":"m 300 -14 q 177 12 232 -14 q 90 86 122 38 q 58 206 58 135 q 146 385 58 324 q 424 449 234 447 l 515 450 l 515 493 q 486 569 515 542 q 396 595 457 596 q 312 574 352 594 q 257 504 272 554 l 88 504 q 134 632 92 582 q 245 707 175 683 q 406 732 315 732 q 582 705 515 732 q 679 626 649 677 q 709 505 709 575 l 709 0 l 540 0 l 523 124 q 431 16 486 46 q 300 -14 376 -14 m 369 119 q 422 130 396 119 q 469 157 448 140 q 502 195 490 174 q 515 240 514 217 l 515 346 l 442 344 q 347 332 391 344 q 277 295 303 321 q 250 226 250 269 q 284 148 250 176 q 369 119 319 119 m 159 802 l 342 982 l 483 982 l 661 802 l 503 802 l 411 899 l 310 802 l 159 802 m 615 940 l 567 1015 q 604 1056 594 1033 q 599 1102 613 1078 q 559 1124 586 1123 q 507 1109 532 1126 l 459 1183 q 585 1214 523 1224 q 678 1154 647 1203 q 701 1039 717 1095 q 615 940 685 982 z "},"ẫ":{"ha":787,"x_min":58,"x_max":709,"o":"m 300 -14 q 177 12 232 -14 q 90 86 122 38 q 58 206 58 135 q 146 385 58 324 q 424 449 234 447 l 515 450 l 515 493 q 486 569 515 542 q 396 595 457 596 q 312 574 352 594 q 257 504 272 554 l 88 504 q 134 632 92 582 q 245 707 175 683 q 406 732 315 732 q 582 705 515 732 q 679 626 649 677 q 709 505 709 575 l 709 0 l 540 0 l 523 124 q 431 16 486 46 q 300 -14 376 -14 m 369 119 q 422 130 396 119 q 469 157 448 140 q 502 195 490 174 q 515 240 514 217 l 515 346 l 442 344 q 347 332 391 344 q 277 295 303 321 q 250 226 250 269 q 284 148 250 176 q 369 119 319 119 m 156 802 l 340 982 l 480 982 l 658 802 l 500 802 l 408 899 l 307 802 l 156 802 m 198 1046 l 167 1152 q 223 1197 192 1178 q 301 1216 253 1216 q 374 1205 340 1216 q 442 1184 409 1194 q 506 1173 474 1173 q 570 1189 542 1173 q 621 1222 599 1204 l 647 1101 q 589 1068 624 1083 q 506 1052 553 1052 q 435 1062 467 1052 q 373 1082 403 1072 q 307 1091 342 1091 q 249 1080 272 1091 q 198 1046 226 1069 z "},"ȁ":{"ha":787,"x_min":-7,"x_max":709,"o":"m 300 -14 q 177 12 232 -14 q 90 86 122 38 q 58 206 58 135 q 146 385 58 324 q 424 449 234 447 l 515 450 l 515 493 q 486 569 515 542 q 396 595 457 596 q 312 574 352 594 q 257 504 272 554 l 88 504 q 134 632 92 582 q 245 707 175 683 q 406 732 315 732 q 582 705 515 732 q 679 626 649 677 q 709 505 709 575 l 709 0 l 540 0 l 523 124 q 431 16 486 46 q 300 -14 376 -14 m 369 119 q 422 130 396 119 q 469 157 448 140 q 502 195 490 174 q 515 240 514 217 l 515 346 l 442 344 q 347 332 391 344 q 277 295 303 321 q 250 226 250 269 q 284 148 250 176 q 369 119 319 119 m 210 802 l -7 1004 l 184 1004 l 356 802 l 210 802 m 454 802 l 276 1004 l 461 1004 l 601 802 l 454 802 z "},"ä":{"ha":787,"x_min":58,"x_max":709,"o":"m 300 -14 q 177 12 232 -14 q 90 86 122 38 q 58 206 58 135 q 146 385 58 324 q 424 449 234 447 l 515 450 l 515 493 q 486 569 515 542 q 396 595 457 596 q 312 574 352 594 q 257 504 272 554 l 88 504 q 134 632 92 582 q 245 707 175 683 q 406 732 315 732 q 582 705 515 732 q 679 626 649 677 q 709 505 709 575 l 709 0 l 540 0 l 523 124 q 431 16 486 46 q 300 -14 376 -14 m 369 119 q 422 130 396 119 q 469 157 448 140 q 502 195 490 174 q 515 240 514 217 l 515 346 l 442 344 q 347 332 391 344 q 277 295 303 321 q 250 226 250 269 q 284 148 250 176 q 369 119 319 119 m 474 839 l 476 1004 l 665 1004 l 664 839 l 474 839 m 150 839 l 152 1004 l 342 1004 l 340 839 l 150 839 z "},"ạ":{"ha":787,"x_min":58,"x_max":709,"o":"m 300 -14 q 177 12 232 -14 q 90 86 122 38 q 58 206 58 135 q 146 385 58 324 q 424 449 234 447 l 515 450 l 515 493 q 486 569 515 542 q 396 595 457 596 q 312 574 352 594 q 257 504 272 554 l 88 504 q 134 632 92 582 q 245 707 175 683 q 406 732 315 732 q 582 705 515 732 q 679 626 649 677 q 709 505 709 575 l 709 0 l 540 0 l 523 124 q 431 16 486 46 q 300 -14 376 -14 m 369 119 q 422 130 396 119 q 469 157 448 140 q 502 195 490 174 q 515 240 514 217 l 515 346 l 442 344 q 347 332 391 344 q 277 295 303 321 q 250 226 250 269 q 284 148 250 176 q 369 119 319 119 m 308 -276 l 308 -111 l 501 -111 l 501 -276 l 308 -276 z "},"à":{"ha":787,"x_min":58,"x_max":709,"o":"m 300 -14 q 177 12 232 -14 q 90 86 122 38 q 58 206 58 135 q 146 385 58 324 q 424 449 234 447 l 515 450 l 515 493 q 486 569 515 542 q 396 595 457 596 q 312 574 352 594 q 257 504 272 554 l 88 504 q 134 632 92 582 q 245 707 175 683 q 406 732 315 732 q 582 705 515 732 q 679 626 649 677 q 709 505 709 575 l 709 0 l 540 0 l 523 124 q 431 16 486 46 q 300 -14 376 -14 m 369 119 q 422 130 396 119 q 469 157 448 140 q 502 195 490 174 q 515 240 514 217 l 515 346 l 442 344 q 347 332 391 344 q 277 295 303 321 q 250 226 250 269 q 284 148 250 176 q 369 119 319 119 m 333 802 l 127 1004 l 336 1004 l 479 802 l 333 802 z "},"ả":{"ha":787,"x_min":58,"x_max":709,"o":"m 300 -14 q 177 12 232 -14 q 90 86 122 38 q 58 206 58 135 q 146 385 58 324 q 424 449 234 447 l 515 450 l 515 493 q 486 569 515 542 q 396 595 457 596 q 312 574 352 594 q 257 504 272 554 l 88 504 q 134 632 92 582 q 245 707 175 683 q 406 732 315 732 q 582 705 515 732 q 679 626 649 677 q 709 505 709 575 l 709 0 l 540 0 l 523 124 q 431 16 486 46 q 300 -14 376 -14 m 369 119 q 422 130 396 119 q 469 157 448 140 q 502 195 490 174 q 515 240 514 217 l 515 346 l 442 344 q 347 332 391 344 q 277 295 303 321 q 250 226 250 269 q 284 148 250 176 q 369 119 319 119 m 465 801 l 417 876 q 454 917 444 894 q 449 963 463 940 q 409 985 436 984 q 357 970 382 987 l 310 1044 q 435 1075 373 1085 q 528 1015 497 1065 q 551 900 567 956 q 465 801 535 843 z "},"ȃ":{"ha":787,"x_min":58,"x_max":709,"o":"m 300 -14 q 177 12 232 -14 q 90 86 122 38 q 58 206 58 135 q 146 385 58 324 q 424 449 234 447 l 515 450 l 515 493 q 486 569 515 542 q 396 595 457 596 q 312 574 352 594 q 257 504 272 554 l 88 504 q 134 632 92 582 q 245 707 175 683 q 406 732 315 732 q 582 705 515 732 q 679 626 649 677 q 709 505 709 575 l 709 0 l 540 0 l 523 124 q 431 16 486 46 q 300 -14 376 -14 m 369 119 q 422 130 396 119 q 469 157 448 140 q 502 195 490 174 q 515 240 514 217 l 515 346 l 442 344 q 347 332 391 344 q 277 295 303 321 q 250 226 250 269 q 284 148 250 176 q 369 119 319 119 m 163 819 q 210 918 175 878 q 297 977 246 957 q 406 997 347 997 q 516 976 465 997 q 602 917 567 956 q 649 819 638 878 l 522 819 q 481 876 511 853 q 406 898 450 898 q 331 876 360 898 q 290 819 301 853 l 163 819 z "},"ā":{"ha":787,"x_min":58,"x_max":709,"o":"m 300 -14 q 177 12 232 -14 q 90 86 122 38 q 58 206 58 135 q 146 385 58 324 q 424 449 234 447 l 515 450 l 515 493 q 486 569 515 542 q 396 595 457 596 q 312 574 352 594 q 257 504 272 554 l 88 504 q 134 632 92 582 q 245 707 175 683 q 406 732 315 732 q 582 705 515 732 q 679 626 649 677 q 709 505 709 575 l 709 0 l 540 0 l 523 124 q 431 16 486 46 q 300 -14 376 -14 m 369 119 q 422 130 396 119 q 469 157 448 140 q 502 195 490 174 q 515 240 514 217 l 515 346 l 442 344 q 347 332 391 344 q 277 295 303 321 q 250 226 250 269 q 284 148 250 176 q 369 119 319 119 m 163 837 l 163 967 l 651 967 l 651 837 l 163 837 z "},"ą":{"ha":787,"x_min":58,"x_max":725,"o":"m 300 -14 q 177 12 232 -14 q 90 86 122 38 q 58 206 58 135 q 146 385 58 324 q 424 449 234 447 l 515 450 l 515 493 q 486 569 515 542 q 396 595 457 596 q 312 574 352 594 q 257 504 272 554 l 88 504 q 134 632 92 582 q 245 707 175 683 q 406 732 315 732 q 582 705 515 732 q 679 626 649 677 q 709 505 709 575 l 709 0 l 540 0 l 523 124 q 431 16 486 46 q 300 -14 376 -14 m 369 119 q 422 130 396 119 q 469 157 448 140 q 502 195 490 174 q 515 240 514 217 l 515 346 l 442 344 q 347 332 391 344 q 277 295 303 321 q 250 226 250 269 q 284 148 250 176 q 369 119 319 119 m 578 -233 q 468 -203 508 -233 q 428 -119 428 -174 q 454 -48 428 -81 q 561 11 480 -16 l 703 8 q 602 -42 629 -19 q 574 -94 574 -65 q 586 -127 574 -116 q 624 -138 598 -138 q 681 -129 656 -138 q 725 -108 705 -119 l 725 -199 q 666 -222 706 -211 q 578 -233 626 -233 z "},"å":{"ha":787,"x_min":58,"x_max":709,"o":"m 300 -14 q 177 12 232 -14 q 90 86 122 38 q 58 206 58 135 q 146 385 58 324 q 424 449 234 447 l 515 450 l 515 493 q 486 569 515 542 q 396 595 457 596 q 312 574 352 594 q 257 504 272 554 l 88 504 q 134 632 92 582 q 245 707 175 683 q 406 732 315 732 q 582 705 515 732 q 679 626 649 677 q 709 505 709 575 l 709 0 l 540 0 l 523 124 q 431 16 486 46 q 300 -14 376 -14 m 369 119 q 422 130 396 119 q 469 157 448 140 q 502 195 490 174 q 515 240 514 217 l 515 346 l 442 344 q 347 332 391 344 q 277 295 303 321 q 250 226 250 269 q 284 148 250 176 q 369 119 319 119 m 408 788 q 301 833 344 788 q 257 942 257 877 q 301 1045 257 1003 q 408 1088 346 1088 q 484 1068 449 1088 q 539 1014 518 1048 q 559 939 559 981 q 515 832 559 876 q 408 788 471 788 m 406 867 q 455 889 435 867 q 475 938 475 910 q 455 988 475 968 q 406 1007 435 1007 q 357 988 378 1007 q 335 938 335 968 q 357 889 335 910 q 406 867 378 867 z "},"ǻ":{"ha":787,"x_min":58,"x_max":709,"o":"m 502 1039 l 461 940 q 523 892 499 925 q 547 814 547 858 q 505 714 547 753 q 402 676 463 676 q 300 715 342 676 q 258 817 258 755 q 288 900 258 865 q 362 946 317 935 l 384 1039 l 502 1039 m 401 742 q 450 763 430 742 q 470 813 470 785 q 450 862 470 842 q 401 881 430 881 q 352 862 374 881 q 331 813 331 842 q 352 763 331 785 q 401 742 374 742 m 300 -14 q 177 12 232 -14 q 90 86 122 38 q 58 206 58 135 q 146 385 58 324 q 424 449 234 447 l 515 450 l 515 493 q 486 569 515 542 q 396 595 457 596 q 312 574 352 594 q 257 504 272 554 l 88 504 q 134 632 92 582 q 245 707 175 683 q 406 732 315 732 q 582 705 515 732 q 679 626 649 677 q 709 505 709 575 l 709 0 l 540 0 l 523 124 q 431 16 486 46 q 300 -14 376 -14 m 369 119 q 422 130 396 119 q 469 157 448 140 q 502 195 490 174 q 515 240 514 217 l 515 346 l 442 344 q 347 332 391 344 q 277 295 303 321 q 250 226 250 269 q 284 148 250 176 q 369 119 319 119 z "},"ã":{"ha":787,"x_min":58,"x_max":709,"o":"m 300 -14 q 177 12 232 -14 q 90 86 122 38 q 58 206 58 135 q 146 385 58 324 q 424 449 234 447 l 515 450 l 515 493 q 486 569 515 542 q 396 595 457 596 q 312 574 352 594 q 257 504 272 554 l 88 504 q 134 632 92 582 q 245 707 175 683 q 406 732 315 732 q 582 705 515 732 q 679 626 649 677 q 709 505 709 575 l 709 0 l 540 0 l 523 124 q 431 16 486 46 q 300 -14 376 -14 m 369 119 q 422 130 396 119 q 469 157 448 140 q 502 195 490 174 q 515 240 514 217 l 515 346 l 442 344 q 347 332 391 344 q 277 295 303 321 q 250 226 250 269 q 284 148 250 176 q 369 119 319 119 m 203 827 l 172 933 q 227 978 197 959 q 305 997 258 997 q 379 986 344 997 q 446 965 414 976 q 510 954 478 954 q 575 970 547 954 q 626 1002 603 985 l 651 882 q 593 849 629 865 q 510 833 557 833 q 440 843 472 833 q 378 862 408 853 q 312 872 347 872 q 253 861 276 872 q 203 827 230 850 z "},"æ":{"ha":1269,"x_min":58,"x_max":1209,"o":"m 300 -14 q 177 12 232 -14 q 90 86 122 38 q 58 206 58 135 q 146 385 58 324 q 425 449 235 447 l 515 450 l 515 493 q 484 570 515 544 q 396 595 453 596 q 312 574 352 594 q 257 504 272 553 l 88 504 q 134 629 92 578 q 245 706 175 680 q 406 732 316 732 q 557 709 495 732 q 653 644 619 686 q 749 709 693 686 q 874 732 805 732 q 1059 686 984 732 q 1171 557 1133 640 q 1209 367 1209 475 l 1209 313 l 727 313 q 744 217 726 258 q 797 155 763 176 q 880 133 831 133 q 971 155 932 133 q 1026 228 1010 177 l 1208 228 q 1148 97 1197 151 q 1029 15 1099 43 q 885 -14 960 -14 q 709 26 785 -14 q 586 138 632 65 q 530 56 568 90 q 434 4 492 22 q 300 -14 376 -14 m 369 119 q 444 139 412 119 q 495 189 476 159 q 514 250 513 219 l 514 346 l 442 344 q 348 332 391 344 q 277 295 304 321 q 250 226 250 269 q 284 148 250 176 q 369 119 319 119 m 726 433 l 1019 433 q 1003 513 1019 476 q 955 569 988 549 q 874 590 923 590 q 794 568 827 590 q 744 509 761 545 q 726 433 726 473 z "},"ǽ":{"ha":1269,"x_min":58,"x_max":1209,"o":"m 300 -14 q 177 12 232 -14 q 90 86 122 38 q 58 206 58 135 q 146 385 58 324 q 425 449 235 447 l 515 450 l 515 493 q 484 570 515 544 q 396 595 453 596 q 312 574 352 594 q 257 504 272 553 l 88 504 q 134 629 92 578 q 245 706 175 680 q 406 732 316 732 q 557 709 495 732 q 653 644 619 686 q 749 709 693 686 q 874 732 805 732 q 1059 686 984 732 q 1171 557 1133 640 q 1209 367 1209 475 l 1209 313 l 727 313 q 744 217 726 258 q 797 155 763 176 q 880 133 831 133 q 971 155 932 133 q 1026 228 1010 177 l 1208 228 q 1148 97 1197 151 q 1029 15 1099 43 q 885 -14 960 -14 q 709 26 785 -14 q 586 138 632 65 q 530 56 568 90 q 434 4 492 22 q 300 -14 376 -14 m 369 119 q 444 139 412 119 q 495 189 476 159 q 514 250 513 219 l 514 346 l 442 344 q 348 332 391 344 q 277 295 304 321 q 250 226 250 269 q 284 148 250 176 q 369 119 319 119 m 726 433 l 1019 433 q 1003 513 1019 476 q 955 569 988 549 q 874 590 923 590 q 794 568 827 590 q 744 509 761 545 q 726 433 726 473 m 528 802 l 672 1004 l 881 1004 l 674 802 l 528 802 z "},"b":{"ha":845,"x_min":87,"x_max":792,"o":"m 487 -14 q 394 0 433 -14 q 328 37 356 14 q 284 89 301 60 q 257 147 267 117 l 234 0 l 87 0 l 87 1032 l 290 1032 l 290 621 q 324 664 303 644 q 373 699 345 684 q 434 723 401 715 q 506 732 468 732 q 716 635 640 732 q 792 363 792 539 q 758 165 792 249 q 655 33 723 80 q 487 -14 587 -14 m 442 132 q 551 186 508 132 q 594 366 594 240 q 553 531 594 478 q 441 585 512 585 q 357 561 390 585 q 307 488 324 537 q 290 366 291 440 q 328 185 290 239 q 442 132 366 132 z "},"c":{"ha":760,"x_min":53,"x_max":702,"o":"m 399 -14 q 221 31 299 -14 q 98 158 142 75 q 53 356 53 241 q 96 552 53 467 q 217 684 139 637 q 399 732 295 732 q 555 695 490 732 q 659 596 621 658 q 702 456 697 533 l 533 456 q 513 513 528 485 q 470 559 498 541 q 401 578 442 578 q 286 523 330 578 q 242 358 242 469 q 285 191 242 253 q 405 130 328 130 q 473 150 446 130 q 516 198 501 170 q 535 251 531 226 l 700 251 q 657 116 695 176 q 553 21 619 56 q 399 -14 488 -14 z "},"ć":{"ha":760,"x_min":53,"x_max":702,"o":"m 399 -14 q 221 31 299 -14 q 98 158 142 75 q 53 356 53 241 q 96 552 53 467 q 217 684 139 637 q 399 732 295 732 q 555 695 490 732 q 659 596 621 658 q 702 456 697 533 l 533 456 q 513 513 528 485 q 470 559 498 541 q 401 578 442 578 q 286 523 330 578 q 242 358 242 469 q 285 191 242 253 q 405 130 328 130 q 473 150 446 130 q 516 198 501 170 q 535 251 531 226 l 700 251 q 657 116 695 176 q 553 21 619 56 q 399 -14 488 -14 m 323 802 l 466 1004 l 675 1004 l 469 802 l 323 802 z "},"č":{"ha":760,"x_min":53,"x_max":702,"o":"m 399 -14 q 221 31 299 -14 q 98 158 142 75 q 53 356 53 241 q 96 552 53 467 q 217 684 139 637 q 399 732 295 732 q 555 695 490 732 q 659 596 621 658 q 702 456 697 533 l 533 456 q 513 513 528 485 q 470 559 498 541 q 401 578 442 578 q 286 523 330 578 q 242 358 242 469 q 285 191 242 253 q 405 130 328 130 q 473 150 446 130 q 516 198 501 170 q 535 251 531 226 l 700 251 q 657 116 695 176 q 553 21 619 56 q 399 -14 488 -14 m 328 802 l 146 983 l 297 983 l 398 879 l 490 983 l 648 983 l 469 802 l 328 802 z "},"ç":{"ha":760,"x_min":53,"x_max":702,"o":"m 392 -295 q 309 -287 349 -295 q 233 -258 268 -278 l 260 -190 q 310 -213 282 -203 q 367 -224 338 -224 q 419 -212 401 -224 q 437 -181 437 -201 q 410 -139 437 -153 q 319 -124 384 -124 q 307 -121 310 -124 q 308 -110 304 -119 l 359 7 l 449 7 l 418 -74 q 501 -92 470 -76 q 545 -134 532 -109 q 558 -183 558 -158 q 535 -243 558 -218 q 475 -282 513 -269 q 392 -295 437 -295 m 399 -14 q 221 31 299 -14 q 98 158 142 75 q 53 356 53 241 q 96 552 53 467 q 217 684 139 637 q 399 732 295 732 q 555 695 490 732 q 659 596 621 658 q 702 456 697 533 l 533 456 q 513 513 528 485 q 470 559 498 541 q 401 578 442 578 q 286 523 330 578 q 242 358 242 469 q 285 191 242 253 q 405 130 328 130 q 473 150 446 130 q 516 198 501 170 q 535 251 531 226 l 700 251 q 657 116 695 176 q 553 21 619 56 q 399 -14 488 -14 z "},"ĉ":{"ha":760,"x_min":53,"x_max":702,"o":"m 399 -14 q 221 31 299 -14 q 98 158 142 75 q 53 356 53 241 q 96 552 53 467 q 217 684 139 637 q 399 732 295 732 q 555 695 490 732 q 659 596 621 658 q 702 456 697 533 l 533 456 q 513 513 528 485 q 470 559 498 541 q 401 578 442 578 q 286 523 330 578 q 242 358 242 469 q 285 191 242 253 q 405 130 328 130 q 473 150 446 130 q 516 198 501 170 q 535 251 531 226 l 700 251 q 657 116 695 176 q 553 21 619 56 q 399 -14 488 -14 m 146 802 l 329 982 l 469 982 l 648 802 l 490 802 l 398 899 l 297 802 l 146 802 z "},"ċ":{"ha":760,"x_min":53,"x_max":702,"o":"m 399 -14 q 221 31 299 -14 q 98 158 142 75 q 53 356 53 241 q 96 552 53 467 q 217 684 139 637 q 399 732 295 732 q 555 695 490 732 q 659 596 621 658 q 702 456 697 533 l 533 456 q 513 513 528 485 q 470 559 498 541 q 401 578 442 578 q 286 523 330 578 q 242 358 242 469 q 285 191 242 253 q 405 130 328 130 q 473 150 446 130 q 516 198 501 170 q 535 251 531 226 l 700 251 q 657 116 695 176 q 553 21 619 56 q 399 -14 488 -14 m 301 839 l 301 1004 l 495 1004 l 495 839 l 301 839 z "},"d":{"ha":845,"x_min":53,"x_max":758,"o":"m 358 -14 q 133 86 214 -14 q 53 363 53 185 q 85 558 53 476 q 182 686 118 641 q 338 732 246 732 q 411 723 377 732 q 472 699 444 715 q 521 664 500 684 q 555 621 542 644 l 555 1032 l 758 1032 l 758 0 l 611 0 l 588 147 q 561 89 578 117 q 517 37 544 60 q 450 0 490 14 q 358 -14 411 -14 m 403 132 q 517 185 479 132 q 555 366 555 239 q 538 488 554 440 q 488 561 521 537 q 404 585 455 585 q 294 534 338 585 q 251 366 251 484 q 292 189 251 246 q 403 132 333 132 z "},"ð":{"ha":799,"x_min":53,"x_max":747,"o":"m 396 -14 q 215 34 292 -14 q 95 163 138 81 q 53 347 53 244 q 79 505 53 436 q 151 619 106 573 q 257 690 197 666 q 383 713 317 713 q 556 656 490 713 q 634 492 622 599 l 506 594 q 470 729 499 665 q 399 849 440 793 q 314 950 358 905 q 234 1028 270 995 l 397 1028 q 516 926 455 988 q 629 782 577 865 q 714 599 681 700 q 747 381 747 498 q 706 170 747 258 q 587 34 665 81 q 396 -14 509 -14 m 401 137 q 486 166 453 137 q 534 244 519 194 q 549 355 549 294 q 513 511 549 453 q 402 569 476 569 q 288 509 324 569 q 251 355 251 449 q 266 245 251 295 q 314 166 281 196 q 401 137 347 137 m 226 767 l 199 855 l 679 997 l 706 909 l 226 767 z "},"ď":{"ha":840,"x_min":53,"x_max":976,"o":"m 358 -14 q 133 86 214 -14 q 53 363 53 185 q 85 558 53 476 q 182 686 118 641 q 338 732 246 732 q 411 723 377 732 q 472 699 444 715 q 521 664 500 684 q 555 621 542 644 l 555 1032 l 758 1032 l 758 0 l 611 0 l 588 147 q 561 89 578 117 q 517 37 544 60 q 450 0 490 14 q 358 -14 411 -14 m 403 132 q 517 185 479 132 q 555 366 555 239 q 538 488 554 440 q 488 561 521 537 q 404 585 455 585 q 294 534 338 585 q 251 366 251 484 q 292 189 251 246 q 403 132 333 132 m 831 729 l 888 869 l 838 878 l 838 1032 l 976 1032 l 976 870 l 917 729 l 831 729 z "},"đ":{"ha":888,"x_min":53,"x_max":846,"o":"m 378 806 l 378 919 l 846 919 l 846 806 l 378 806 m 358 -14 q 133 86 214 -14 q 53 363 53 185 q 85 558 53 476 q 182 686 118 641 q 338 732 246 732 q 411 723 377 732 q 472 699 444 715 q 521 664 500 684 q 555 621 542 644 l 555 1032 l 758 1032 l 758 0 l 611 0 l 588 147 q 561 89 578 117 q 517 37 544 60 q 450 0 490 14 q 358 -14 411 -14 m 403 132 q 517 185 479 132 q 555 366 555 239 q 538 488 554 440 q 488 561 521 537 q 404 585 455 585 q 294 534 338 585 q 251 366 251 484 q 292 189 251 246 q 403 132 333 132 z "},"ḍ":{"ha":845,"x_min":53,"x_max":758,"o":"m 358 -14 q 133 86 214 -14 q 53 363 53 185 q 85 558 53 476 q 182 686 118 641 q 338 732 246 732 q 411 723 377 732 q 472 699 444 715 q 521 664 500 684 q 555 621 542 644 l 555 1032 l 758 1032 l 758 0 l 611 0 l 588 147 q 561 89 578 117 q 517 37 544 60 q 450 0 490 14 q 358 -14 411 -14 m 403 132 q 517 185 479 132 q 555 366 555 239 q 538 488 554 440 q 488 561 521 537 q 404 585 455 585 q 294 534 338 585 q 251 366 251 484 q 292 189 251 246 q 403 132 333 132 m 282 -276 l 282 -111 l 476 -111 l 476 -276 l 282 -276 z "},"e":{"ha":801,"x_min":58,"x_max":741,"o":"m 417 -14 q 229 31 310 -14 q 103 158 148 76 q 58 351 58 240 q 99 545 58 458 q 218 682 140 631 q 406 732 296 732 q 590 686 516 732 q 703 557 665 640 q 741 367 741 475 l 741 313 l 258 313 q 276 217 258 258 q 329 155 294 176 q 412 133 363 133 q 503 155 464 133 q 558 228 542 177 l 740 228 q 679 97 728 151 q 561 15 631 43 q 417 -14 492 -14 m 258 433 l 551 433 q 535 513 551 476 q 486 569 519 549 q 406 590 454 590 q 326 568 359 590 q 275 509 293 545 q 258 433 258 473 z "},"é":{"ha":801,"x_min":58,"x_max":741,"o":"m 417 -14 q 229 31 310 -14 q 103 158 148 76 q 58 351 58 240 q 99 545 58 458 q 218 682 140 631 q 406 732 296 732 q 590 686 516 732 q 703 557 665 640 q 741 367 741 475 l 741 313 l 258 313 q 276 217 258 258 q 329 155 294 176 q 412 133 363 133 q 503 155 464 133 q 558 228 542 177 l 740 228 q 679 97 728 151 q 561 15 631 43 q 417 -14 492 -14 m 258 433 l 551 433 q 535 513 551 476 q 486 569 519 549 q 406 590 454 590 q 326 568 359 590 q 275 509 293 545 q 258 433 258 473 m 331 802 l 474 1004 l 683 1004 l 477 802 l 331 802 z "},"ĕ":{"ha":801,"x_min":58,"x_max":741,"o":"m 417 -14 q 229 31 310 -14 q 103 158 148 76 q 58 351 58 240 q 99 545 58 458 q 218 682 140 631 q 406 732 296 732 q 590 686 516 732 q 703 557 665 640 q 741 367 741 475 l 741 313 l 258 313 q 276 217 258 258 q 329 155 294 176 q 412 133 363 133 q 503 155 464 133 q 558 228 542 177 l 740 228 q 679 97 728 151 q 561 15 631 43 q 417 -14 492 -14 m 258 433 l 551 433 q 535 513 551 476 q 486 569 519 549 q 406 590 454 590 q 326 568 359 590 q 275 509 293 545 q 258 433 258 473 m 407 802 q 298 822 349 802 q 211 881 247 842 q 164 979 176 921 l 292 979 q 332 923 302 944 q 407 901 362 901 q 482 923 451 901 q 524 979 512 944 l 651 979 q 603 882 639 921 q 517 822 568 842 q 407 802 466 802 z "},"ě":{"ha":790,"x_min":58,"x_max":741,"o":"m 417 -14 q 229 31 310 -14 q 103 158 148 76 q 58 351 58 240 q 99 545 58 458 q 218 682 140 631 q 406 732 296 732 q 590 686 516 732 q 703 557 665 640 q 741 367 741 475 l 741 313 l 258 313 q 276 217 258 258 q 329 155 294 176 q 412 133 363 133 q 503 155 464 133 q 558 228 542 177 l 740 228 q 679 97 728 151 q 561 15 631 43 q 417 -14 492 -14 m 258 433 l 551 433 q 535 513 551 476 q 486 569 519 549 q 406 590 454 590 q 326 568 359 590 q 275 509 293 545 q 258 433 258 473 m 329 802 l 147 983 l 297 983 l 399 879 l 490 983 l 649 983 l 470 802 l 329 802 z "},"ê":{"ha":801,"x_min":58,"x_max":741,"o":"m 417 -14 q 229 31 310 -14 q 103 158 148 76 q 58 351 58 240 q 99 545 58 458 q 218 682 140 631 q 406 732 296 732 q 590 686 516 732 q 703 557 665 640 q 741 367 741 475 l 741 313 l 258 313 q 276 217 258 258 q 329 155 294 176 q 412 133 363 133 q 503 155 464 133 q 558 228 542 177 l 740 228 q 679 97 728 151 q 561 15 631 43 q 417 -14 492 -14 m 258 433 l 551 433 q 535 513 551 476 q 486 569 519 549 q 406 590 454 590 q 326 568 359 590 q 275 509 293 545 q 258 433 258 473 m 154 802 l 338 982 l 478 982 l 656 802 l 498 802 l 406 899 l 305 802 l 154 802 z "},"ế":{"ha":801,"x_min":58,"x_max":826,"o":"m 417 -14 q 229 31 310 -14 q 103 158 148 76 q 58 351 58 240 q 99 545 58 458 q 218 682 140 631 q 406 732 296 732 q 590 686 516 732 q 703 557 665 640 q 741 367 741 475 l 741 313 l 258 313 q 276 217 258 258 q 329 155 294 176 q 412 133 363 133 q 503 155 464 133 q 558 228 542 177 l 740 228 q 679 97 728 151 q 561 15 631 43 q 417 -14 492 -14 m 258 433 l 551 433 q 535 513 551 476 q 486 569 519 549 q 406 590 454 590 q 326 568 359 590 q 275 509 293 545 q 258 433 258 473 m 154 802 l 338 982 l 478 982 l 656 802 l 498 802 l 406 899 l 305 802 l 154 802 m 565 971 l 670 1153 l 826 1153 l 670 971 l 565 971 z "},"ệ":{"ha":801,"x_min":58,"x_max":741,"o":"m 417 -14 q 229 31 310 -14 q 103 158 148 76 q 58 351 58 240 q 99 545 58 458 q 218 682 140 631 q 406 732 296 732 q 590 686 516 732 q 703 557 665 640 q 741 367 741 475 l 741 313 l 258 313 q 276 217 258 258 q 329 155 294 176 q 412 133 363 133 q 503 155 464 133 q 558 228 542 177 l 740 228 q 679 97 728 151 q 561 15 631 43 q 417 -14 492 -14 m 258 433 l 551 433 q 535 513 551 476 q 486 569 519 549 q 406 590 454 590 q 326 568 359 590 q 275 509 293 545 q 258 433 258 473 m 313 -276 l 313 -111 l 507 -111 l 507 -276 l 313 -276 m 154 802 l 338 982 l 478 982 l 656 802 l 498 802 l 406 899 l 305 802 l 154 802 z "},"ề":{"ha":801,"x_min":58,"x_max":741,"o":"m 417 -14 q 229 31 310 -14 q 103 158 148 76 q 58 351 58 240 q 99 545 58 458 q 218 682 140 631 q 406 732 296 732 q 590 686 516 732 q 703 557 665 640 q 741 367 741 475 l 741 313 l 258 313 q 276 217 258 258 q 329 155 294 176 q 412 133 363 133 q 503 155 464 133 q 558 228 542 177 l 740 228 q 679 97 728 151 q 561 15 631 43 q 417 -14 492 -14 m 258 433 l 551 433 q 535 513 551 476 q 486 569 519 549 q 406 590 454 590 q 326 568 359 590 q 275 509 293 545 q 258 433 258 473 m 154 802 l 338 982 l 478 982 l 656 802 l 498 802 l 406 899 l 305 802 l 154 802 m 625 971 l 467 1152 l 624 1152 l 734 971 l 625 971 z "},"ể":{"ha":801,"x_min":58,"x_max":741,"o":"m 417 -14 q 229 31 310 -14 q 103 158 148 76 q 58 351 58 240 q 99 545 58 458 q 218 682 140 631 q 406 732 296 732 q 590 686 516 732 q 703 557 665 640 q 741 367 741 475 l 741 313 l 258 313 q 276 217 258 258 q 329 155 294 176 q 412 133 363 133 q 503 155 464 133 q 558 228 542 177 l 740 228 q 679 97 728 151 q 561 15 631 43 q 417 -14 492 -14 m 258 433 l 551 433 q 535 513 551 476 q 486 569 519 549 q 406 590 454 590 q 326 568 359 590 q 275 509 293 545 q 258 433 258 473 m 159 802 l 342 982 l 483 982 l 661 802 l 503 802 l 411 899 l 310 802 l 159 802 m 615 940 l 567 1015 q 604 1056 594 1033 q 599 1102 613 1078 q 559 1124 586 1123 q 507 1109 532 1126 l 459 1183 q 585 1214 523 1224 q 678 1154 647 1203 q 701 1039 717 1095 q 615 940 685 982 z "},"ễ":{"ha":801,"x_min":58,"x_max":741,"o":"m 417 -14 q 229 31 310 -14 q 103 158 148 76 q 58 351 58 240 q 99 545 58 458 q 218 682 140 631 q 406 732 296 732 q 590 686 516 732 q 703 557 665 640 q 741 367 741 475 l 741 313 l 258 313 q 276 217 258 258 q 329 155 294 176 q 412 133 363 133 q 503 155 464 133 q 558 228 542 177 l 740 228 q 679 97 728 151 q 561 15 631 43 q 417 -14 492 -14 m 258 433 l 551 433 q 535 513 551 476 q 486 569 519 549 q 406 590 454 590 q 326 568 359 590 q 275 509 293 545 q 258 433 258 473 m 156 802 l 340 982 l 480 982 l 658 802 l 500 802 l 408 899 l 307 802 l 156 802 m 198 1046 l 167 1152 q 223 1197 192 1178 q 301 1216 253 1216 q 374 1205 340 1216 q 442 1184 409 1194 q 506 1173 474 1173 q 570 1189 542 1173 q 621 1222 599 1204 l 647 1101 q 589 1068 624 1083 q 506 1052 553 1052 q 435 1062 467 1052 q 373 1082 403 1072 q 307 1091 342 1091 q 249 1080 272 1091 q 198 1046 226 1069 z "},"ȅ":{"ha":801,"x_min":-7,"x_max":741,"o":"m 417 -14 q 229 31 310 -14 q 103 158 148 76 q 58 351 58 240 q 99 545 58 458 q 218 682 140 631 q 406 732 296 732 q 590 686 516 732 q 703 557 665 640 q 741 367 741 475 l 741 313 l 258 313 q 276 217 258 258 q 329 155 294 176 q 412 133 363 133 q 503 155 464 133 q 558 228 542 177 l 740 228 q 679 97 728 151 q 561 15 631 43 q 417 -14 492 -14 m 258 433 l 551 433 q 535 513 551 476 q 486 569 519 549 q 406 590 454 590 q 326 568 359 590 q 275 509 293 545 q 258 433 258 473 m 210 802 l -7 1004 l 184 1004 l 356 802 l 210 802 m 454 802 l 276 1004 l 461 1004 l 601 802 l 454 802 z "},"ë":{"ha":801,"x_min":58,"x_max":741,"o":"m 417 -14 q 229 31 310 -14 q 103 158 148 76 q 58 351 58 240 q 99 545 58 458 q 218 682 140 631 q 406 732 296 732 q 590 686 516 732 q 703 557 665 640 q 741 367 741 475 l 741 313 l 258 313 q 276 217 258 258 q 329 155 294 176 q 412 133 363 133 q 503 155 464 133 q 558 228 542 177 l 740 228 q 679 97 728 151 q 561 15 631 43 q 417 -14 492 -14 m 258 433 l 551 433 q 535 513 551 476 q 486 569 519 549 q 406 590 454 590 q 326 568 359 590 q 275 509 293 545 q 258 433 258 473 m 473 839 l 475 1004 l 665 1004 l 663 839 l 473 839 m 149 839 l 151 1004 l 341 1004 l 340 839 l 149 839 z "},"ė":{"ha":801,"x_min":58,"x_max":741,"o":"m 417 -14 q 229 31 310 -14 q 103 158 148 76 q 58 351 58 240 q 99 545 58 458 q 218 682 140 631 q 406 732 296 732 q 590 686 516 732 q 703 557 665 640 q 741 367 741 475 l 741 313 l 258 313 q 276 217 258 258 q 329 155 294 176 q 412 133 363 133 q 503 155 464 133 q 558 228 542 177 l 740 228 q 679 97 728 151 q 561 15 631 43 q 417 -14 492 -14 m 258 433 l 551 433 q 535 513 551 476 q 486 569 519 549 q 406 590 454 590 q 326 568 359 590 q 275 509 293 545 q 258 433 258 473 m 310 839 l 310 1004 l 503 1004 l 503 839 l 310 839 z "},"ẹ":{"ha":801,"x_min":58,"x_max":741,"o":"m 417 -14 q 229 31 310 -14 q 103 158 148 76 q 58 351 58 240 q 99 545 58 458 q 218 682 140 631 q 406 732 296 732 q 590 686 516 732 q 703 557 665 640 q 741 367 741 475 l 741 313 l 258 313 q 276 217 258 258 q 329 155 294 176 q 412 133 363 133 q 503 155 464 133 q 558 228 542 177 l 740 228 q 679 97 728 151 q 561 15 631 43 q 417 -14 492 -14 m 258 433 l 551 433 q 535 513 551 476 q 486 569 519 549 q 406 590 454 590 q 326 568 359 590 q 275 509 293 545 q 258 433 258 473 m 313 -276 l 313 -111 l 507 -111 l 507 -276 l 313 -276 z "},"è":{"ha":801,"x_min":58,"x_max":741,"o":"m 417 -14 q 229 31 310 -14 q 103 158 148 76 q 58 351 58 240 q 99 545 58 458 q 218 682 140 631 q 406 732 296 732 q 590 686 516 732 q 703 557 665 640 q 741 367 741 475 l 741 313 l 258 313 q 276 217 258 258 q 329 155 294 176 q 412 133 363 133 q 503 155 464 133 q 558 228 542 177 l 740 228 q 679 97 728 151 q 561 15 631 43 q 417 -14 492 -14 m 258 433 l 551 433 q 535 513 551 476 q 486 569 519 549 q 406 590 454 590 q 326 568 359 590 q 275 509 293 545 q 258 433 258 473 m 332 802 l 126 1004 l 335 1004 l 478 802 l 332 802 z "},"ẻ":{"ha":801,"x_min":58,"x_max":741,"o":"m 417 -14 q 229 31 310 -14 q 103 158 148 76 q 58 351 58 240 q 99 545 58 458 q 218 682 140 631 q 406 732 296 732 q 590 686 516 732 q 703 557 665 640 q 741 367 741 475 l 741 313 l 258 313 q 276 217 258 258 q 329 155 294 176 q 412 133 363 133 q 503 155 464 133 q 558 228 542 177 l 740 228 q 679 97 728 151 q 561 15 631 43 q 417 -14 492 -14 m 258 433 l 551 433 q 535 513 551 476 q 486 569 519 549 q 406 590 454 590 q 326 568 359 590 q 275 509 293 545 q 258 433 258 473 m 465 801 l 417 876 q 454 917 444 894 q 449 963 463 940 q 409 985 436 984 q 357 970 382 987 l 310 1044 q 435 1075 373 1085 q 528 1015 497 1065 q 551 900 567 956 q 465 801 535 843 z "},"ȇ":{"ha":801,"x_min":58,"x_max":741,"o":"m 417 -14 q 229 31 310 -14 q 103 158 148 76 q 58 351 58 240 q 99 545 58 458 q 218 682 140 631 q 406 732 296 732 q 590 686 516 732 q 703 557 665 640 q 741 367 741 475 l 741 313 l 258 313 q 276 217 258 258 q 329 155 294 176 q 412 133 363 133 q 503 155 464 133 q 558 228 542 177 l 740 228 q 679 97 728 151 q 561 15 631 43 q 417 -14 492 -14 m 258 433 l 551 433 q 535 513 551 476 q 486 569 519 549 q 406 590 454 590 q 326 568 359 590 q 275 509 293 545 q 258 433 258 473 m 162 819 q 210 918 174 878 q 296 977 245 957 q 405 997 347 997 q 515 976 464 997 q 602 917 566 956 q 649 819 638 878 l 522 819 q 480 876 510 853 q 405 898 449 898 q 330 876 360 898 q 290 819 301 853 l 162 819 z "},"ē":{"ha":801,"x_min":58,"x_max":741,"o":"m 417 -14 q 229 31 310 -14 q 103 158 148 76 q 58 351 58 240 q 99 545 58 458 q 218 682 140 631 q 406 732 296 732 q 590 686 516 732 q 703 557 665 640 q 741 367 741 475 l 741 313 l 258 313 q 276 217 258 258 q 329 155 294 176 q 412 133 363 133 q 503 155 464 133 q 558 228 542 177 l 740 228 q 679 97 728 151 q 561 15 631 43 q 417 -14 492 -14 m 258 433 l 551 433 q 535 513 551 476 q 486 569 519 549 q 406 590 454 590 q 326 568 359 590 q 275 509 293 545 q 258 433 258 473 m 163 837 l 163 967 l 651 967 l 651 837 l 163 837 z "},"ę":{"ha":801,"x_min":58,"x_max":741,"o":"m 469 -217 q 358 -187 399 -217 q 318 -102 318 -158 q 328 -54 318 -77 q 369 -11 339 -31 q 206 45 276 -1 q 97 169 135 92 q 58 351 58 247 q 99 545 58 458 q 218 682 140 631 q 406 732 296 732 q 590 686 516 732 q 703 557 665 640 q 741 367 741 475 l 741 313 l 258 313 q 276 217 258 258 q 329 155 294 176 q 412 133 363 133 q 503 155 464 133 q 558 228 542 177 l 740 228 q 686 107 728 156 q 572 19 644 58 q 491 -30 518 -8 q 465 -78 465 -51 q 477 -111 465 -99 q 515 -122 489 -122 q 571 -113 547 -122 q 615 -92 595 -103 l 615 -183 q 556 -206 596 -195 q 469 -217 516 -217 m 258 433 l 551 433 q 535 513 551 476 q 486 569 519 549 q 406 590 454 590 q 326 568 359 590 q 275 509 293 545 q 258 433 258 473 z "},"ẽ":{"ha":801,"x_min":58,"x_max":741,"o":"m 417 -14 q 229 31 310 -14 q 103 158 148 76 q 58 351 58 240 q 99 545 58 458 q 218 682 140 631 q 406 732 296 732 q 590 686 516 732 q 703 557 665 640 q 741 367 741 475 l 741 313 l 258 313 q 276 217 258 258 q 329 155 294 176 q 412 133 363 133 q 503 155 464 133 q 558 228 542 177 l 740 228 q 679 97 728 151 q 561 15 631 43 q 417 -14 492 -14 m 258 433 l 551 433 q 535 513 551 476 q 486 569 519 549 q 406 590 454 590 q 326 568 359 590 q 275 509 293 545 q 258 433 258 473 m 202 827 l 171 933 q 226 978 196 959 q 304 997 257 997 q 378 986 343 997 q 445 965 413 976 q 509 954 478 954 q 574 970 546 954 q 625 1002 603 985 l 650 882 q 592 849 628 865 q 510 833 556 833 q 439 843 471 833 q 377 862 408 853 q 311 872 347 872 q 252 861 276 872 q 202 827 229 850 z "},"ə":{"ha":801,"x_min":60,"x_max":742,"o":"m 394 -14 q 210 33 285 -14 q 98 161 135 79 q 60 351 60 243 l 60 406 l 542 406 q 524 501 542 460 q 472 564 506 542 q 389 585 438 585 q 298 563 337 585 q 243 490 258 541 l 60 490 q 122 621 73 567 q 240 703 170 675 q 384 732 310 732 q 572 688 491 732 q 697 561 652 643 q 742 367 742 479 q 701 173 742 260 q 583 36 660 87 q 394 -14 505 -14 m 394 128 q 475 151 442 128 q 525 209 508 174 q 542 285 542 245 l 249 285 q 265 206 249 242 q 314 149 281 170 q 394 128 346 128 z "},"f":{"ha":551,"x_min":35,"x_max":529,"o":"m 167 0 l 167 577 l 35 577 l 35 718 l 167 718 l 167 822 q 219 956 167 908 q 363 1004 270 1004 l 528 1004 l 529 869 l 434 869 q 381 850 396 869 q 367 788 367 831 l 367 718 l 522 718 l 522 577 l 371 577 l 371 0 l 167 0 z "},"g":{"ha":873,"x_min":29,"x_max":843,"o":"m 420 -237 q 129 -189 228 -237 q 29 -61 29 -140 q 48 1 29 -24 q 93 41 67 26 q 141 64 119 56 q 169 74 163 72 q 136 93 158 81 q 98 126 115 105 q 81 181 81 147 q 117 252 81 219 q 228 297 153 285 q 120 388 157 331 q 83 504 83 444 q 127 626 83 575 q 249 703 172 676 q 423 729 326 729 q 544 714 497 729 q 632 673 592 698 q 674 689 648 679 q 731 711 700 699 q 791 736 762 724 q 843 758 820 748 l 842 601 l 718 581 q 729 540 725 562 q 733 505 733 519 q 697 388 733 442 q 588 301 660 334 q 408 267 516 267 q 374 268 396 267 q 338 270 351 269 q 282 260 297 268 q 266 240 266 251 q 297 218 266 224 q 392 209 328 213 q 454 206 415 208 q 541 200 494 203 q 738 135 673 191 q 803 -6 803 79 q 707 -172 803 -106 q 420 -237 612 -237 m 453 -124 q 573 -103 537 -124 q 610 -44 610 -83 q 582 9 610 -11 q 501 33 553 30 l 336 44 q 279 35 303 46 q 241 4 255 24 q 228 -37 228 -15 q 283 -103 228 -83 q 453 -124 338 -124 m 415 381 q 507 412 472 381 q 542 498 542 444 q 507 588 542 554 q 415 622 472 622 q 322 588 357 622 q 286 498 286 554 q 320 413 286 444 q 415 381 355 381 z "},"ğ":{"ha":873,"x_min":29,"x_max":843,"o":"m 420 -237 q 129 -189 228 -237 q 29 -61 29 -140 q 48 1 29 -24 q 93 41 67 26 q 141 64 119 56 q 169 74 163 72 q 136 93 158 81 q 98 126 115 105 q 81 181 81 147 q 117 252 81 219 q 228 297 153 285 q 120 388 157 331 q 83 504 83 444 q 127 626 83 575 q 249 703 172 676 q 423 729 326 729 q 544 714 497 729 q 632 673 592 698 q 674 689 648 679 q 731 711 700 699 q 791 736 762 724 q 843 758 820 748 l 842 601 l 718 581 q 729 540 725 562 q 733 505 733 519 q 697 388 733 442 q 588 301 660 334 q 408 267 516 267 q 374 268 396 267 q 338 270 351 269 q 282 260 297 268 q 266 240 266 251 q 297 218 266 224 q 392 209 328 213 q 454 206 415 208 q 541 200 494 203 q 738 135 673 191 q 803 -6 803 79 q 707 -172 803 -106 q 420 -237 612 -237 m 453 -124 q 573 -103 537 -124 q 610 -44 610 -83 q 582 9 610 -11 q 501 33 553 30 l 336 44 q 279 35 303 46 q 241 4 255 24 q 228 -37 228 -15 q 283 -103 228 -83 q 453 -124 338 -124 m 415 381 q 507 412 472 381 q 542 498 542 444 q 507 588 542 554 q 415 622 472 622 q 322 588 357 622 q 286 498 286 554 q 320 413 286 444 q 415 381 355 381 m 422 802 q 313 822 364 802 q 226 881 262 842 q 179 979 191 921 l 307 979 q 347 923 317 944 q 422 901 377 901 q 497 923 467 901 q 539 979 527 944 l 666 979 q 619 882 654 921 q 532 822 583 842 q 422 802 481 802 z "},"ĝ":{"ha":873,"x_min":29,"x_max":843,"o":"m 420 -237 q 129 -189 228 -237 q 29 -61 29 -140 q 48 1 29 -24 q 93 41 67 26 q 141 64 119 56 q 169 74 163 72 q 136 93 158 81 q 98 126 115 105 q 81 181 81 147 q 117 252 81 219 q 228 297 153 285 q 120 388 157 331 q 83 504 83 444 q 127 626 83 575 q 249 703 172 676 q 423 729 326 729 q 544 714 497 729 q 632 673 592 698 q 674 689 648 679 q 731 711 700 699 q 791 736 762 724 q 843 758 820 748 l 842 601 l 718 581 q 729 540 725 562 q 733 505 733 519 q 697 388 733 442 q 588 301 660 334 q 408 267 516 267 q 374 268 396 267 q 338 270 351 269 q 282 260 297 268 q 266 240 266 251 q 297 218 266 224 q 392 209 328 213 q 454 206 415 208 q 541 200 494 203 q 738 135 673 191 q 803 -6 803 79 q 707 -172 803 -106 q 420 -237 612 -237 m 453 -124 q 573 -103 537 -124 q 610 -44 610 -83 q 582 9 610 -11 q 501 33 553 30 l 336 44 q 279 35 303 46 q 241 4 255 24 q 228 -37 228 -15 q 283 -103 228 -83 q 453 -124 338 -124 m 415 381 q 507 412 472 381 q 542 498 542 444 q 507 588 542 554 q 415 622 472 622 q 322 588 357 622 q 286 498 286 554 q 320 413 286 444 q 415 381 355 381 m 169 802 l 353 982 l 493 982 l 672 802 l 513 802 l 422 899 l 320 802 l 169 802 z "},"ģ":{"ha":873,"x_min":29,"x_max":843,"o":"m 420 -237 q 129 -189 228 -237 q 29 -61 29 -140 q 48 1 29 -24 q 93 41 67 26 q 141 64 119 56 q 169 74 163 72 q 136 93 158 81 q 98 126 115 105 q 81 181 81 147 q 117 252 81 219 q 228 297 153 285 q 120 388 157 331 q 83 504 83 444 q 127 626 83 575 q 249 703 172 676 q 423 729 326 729 q 544 714 497 729 q 632 673 592 698 q 674 689 648 679 q 731 711 700 699 q 791 736 762 724 q 843 758 820 748 l 842 601 l 718 581 q 729 540 725 562 q 733 505 733 519 q 697 388 733 442 q 588 301 660 334 q 408 267 516 267 q 374 268 396 267 q 338 270 351 269 q 282 260 297 268 q 266 240 266 251 q 297 218 266 224 q 392 209 328 213 q 454 206 415 208 q 541 200 494 203 q 738 135 673 191 q 803 -6 803 79 q 707 -172 803 -106 q 420 -237 612 -237 m 453 -124 q 573 -103 537 -124 q 610 -44 610 -83 q 582 9 610 -11 q 501 33 553 30 l 336 44 q 279 35 303 46 q 241 4 255 24 q 228 -37 228 -15 q 283 -103 228 -83 q 453 -124 338 -124 m 415 381 q 507 412 472 381 q 542 498 542 444 q 507 588 542 554 q 415 622 472 622 q 322 588 357 622 q 286 498 286 554 q 320 413 286 444 q 415 381 355 381 m 337 802 l 337 925 l 438 1060 l 512 1060 l 450 948 l 506 942 l 506 802 l 337 802 z "},"ġ":{"ha":873,"x_min":29,"x_max":843,"o":"m 420 -237 q 129 -189 228 -237 q 29 -61 29 -140 q 48 1 29 -24 q 93 41 67 26 q 141 64 119 56 q 169 74 163 72 q 136 93 158 81 q 98 126 115 105 q 81 181 81 147 q 117 252 81 219 q 228 297 153 285 q 120 388 157 331 q 83 504 83 444 q 127 626 83 575 q 249 703 172 676 q 423 729 326 729 q 544 714 497 729 q 632 673 592 698 q 674 689 648 679 q 731 711 700 699 q 791 736 762 724 q 843 758 820 748 l 842 601 l 718 581 q 729 540 725 562 q 733 505 733 519 q 697 388 733 442 q 588 301 660 334 q 408 267 516 267 q 374 268 396 267 q 338 270 351 269 q 282 260 297 268 q 266 240 266 251 q 297 218 266 224 q 392 209 328 213 q 454 206 415 208 q 541 200 494 203 q 738 135 673 191 q 803 -6 803 79 q 707 -172 803 -106 q 420 -237 612 -237 m 453 -124 q 573 -103 537 -124 q 610 -44 610 -83 q 582 9 610 -11 q 501 33 553 30 l 336 44 q 279 35 303 46 q 241 4 255 24 q 228 -37 228 -15 q 283 -103 228 -83 q 453 -124 338 -124 m 415 381 q 507 412 472 381 q 542 498 542 444 q 507 588 542 554 q 415 622 472 622 q 322 588 357 622 q 286 498 286 554 q 320 413 286 444 q 415 381 355 381 m 325 839 l 325 1004 l 519 1004 l 519 839 l 325 839 z "},"h":{"ha":823,"x_min":87,"x_max":745,"o":"m 87 0 l 87 1032 l 288 1032 l 288 615 q 332 664 306 640 q 398 706 358 689 q 494 722 438 722 q 620 695 563 722 q 711 618 676 669 q 745 494 745 567 l 745 0 l 542 0 l 542 465 q 507 539 542 513 q 422 565 472 565 q 358 553 389 565 q 309 518 328 542 q 290 458 290 494 l 290 0 l 87 0 z "},"ħ":{"ha":859,"x_min":28,"x_max":781,"o":"m 28 806 l 28 919 l 495 919 l 495 806 l 28 806 m 123 0 l 123 1032 l 324 1032 l 324 615 q 368 664 342 640 q 434 706 394 689 q 531 722 474 722 q 656 695 599 722 q 747 618 713 669 q 781 494 781 567 l 781 0 l 578 0 l 578 465 q 543 539 578 513 q 458 565 508 565 q 394 553 425 565 q 345 518 364 542 q 326 458 326 494 l 326 0 l 123 0 z "},"ĥ":{"ha":823,"x_min":-67,"x_max":745,"o":"m 87 0 l 87 1032 l 288 1032 l 288 615 q 332 664 306 640 q 398 706 358 689 q 494 722 438 722 q 620 695 563 722 q 711 618 676 669 q 745 494 745 567 l 745 0 l 542 0 l 542 465 q 507 539 542 513 q 422 565 472 565 q 358 553 389 565 q 309 518 328 542 q 290 458 290 494 l 290 0 l 87 0 m -67 1088 l 116 1268 l 256 1268 l 435 1088 l 276 1088 l 185 1185 l 83 1088 l -67 1088 z "},"ḥ":{"ha":823,"x_min":87,"x_max":745,"o":"m 87 0 l 87 1032 l 288 1032 l 288 615 q 332 664 306 640 q 398 706 358 689 q 494 722 438 722 q 620 695 563 722 q 711 618 676 669 q 745 494 745 567 l 745 0 l 542 0 l 542 465 q 507 539 542 513 q 422 565 472 565 q 358 553 389 565 q 309 518 328 542 q 290 458 290 494 l 290 0 l 87 0 m 325 -276 l 325 -111 l 519 -111 l 519 -276 l 325 -276 z "},"i":{"ha":371,"x_min":87,"x_max":284,"o":"m 89 0 l 89 718 l 283 718 l 283 0 l 89 0 m 87 821 l 87 1003 l 284 1003 l 284 821 l 87 821 z "},"ı":{"ha":367,"x_min":87,"x_max":281,"o":"m 87 0 l 87 718 l 281 718 l 281 0 l 87 0 z "},"í":{"ha":367,"x_min":87,"x_max":401,"o":"m 87 0 l 87 718 l 281 718 l 281 0 l 87 0 m 249 802 l 111 803 l 201 1004 l 401 1004 l 249 802 z "},"ĭ":{"ha":367,"x_min":-57,"x_max":430,"o":"m 87 0 l 87 718 l 281 718 l 281 0 l 87 0 m 186 802 q 77 822 128 802 q -10 881 26 842 q -57 979 -45 921 l 71 979 q 111 923 81 944 q 186 901 141 901 q 261 923 231 901 q 303 979 291 944 l 430 979 q 383 882 418 921 q 296 822 347 842 q 186 802 245 802 z "},"î":{"ha":367,"x_min":-66,"x_max":436,"o":"m 87 0 l 87 718 l 281 718 l 281 0 l 87 0 m -66 802 l 117 982 l 258 982 l 436 802 l 278 802 l 186 899 l 85 802 l -66 802 z "},"ȉ":{"ha":367,"x_min":-228,"x_max":380,"o":"m 87 0 l 87 718 l 281 718 l 281 0 l 87 0 m -11 802 l -228 1004 l -37 1004 l 135 802 l -11 802 m 233 802 l 55 1004 l 240 1004 l 380 802 l 233 802 z "},"ï":{"ha":533,"x_min":9,"x_max":524,"o":"m 164 0 l 164 718 l 358 718 l 358 0 l 164 0 m 333 836 l 335 1001 l 524 1001 l 523 836 l 333 836 m 9 836 l 11 1001 l 201 1001 l 199 836 l 9 836 z "},"ị":{"ha":371,"x_min":87,"x_max":284,"o":"m 89 0 l 89 718 l 283 718 l 283 0 l 89 0 m 87 821 l 87 1003 l 284 1003 l 284 821 l 87 821 m 89 -276 l 89 -111 l 283 -111 l 283 -276 l 89 -276 z "},"ì":{"ha":367,"x_min":-32,"x_max":281,"o":"m 87 0 l 87 718 l 281 718 l 281 0 l 87 0 m 120 802 l -32 1004 l 167 1004 l 258 803 l 120 802 z "},"ỉ":{"ha":367,"x_min":87,"x_max":346,"o":"m 87 0 l 87 718 l 281 718 l 281 0 l 87 0 m 244 801 l 197 876 q 234 917 224 894 q 228 963 243 940 q 189 985 216 984 q 137 970 162 987 l 90 1044 q 215 1075 153 1085 q 308 1015 277 1065 q 331 900 347 956 q 244 801 315 843 z "},"ȋ":{"ha":481,"x_min":-5,"x_max":483,"o":"m 140 0 l 140 718 l 334 718 l 334 0 l 140 0 m -5 819 q 43 918 8 878 q 129 977 78 957 q 238 997 180 997 q 348 976 297 997 q 435 917 399 956 q 482 819 471 878 l 355 819 q 313 876 344 853 q 238 898 283 898 q 164 876 193 898 q 123 819 134 853 l -5 819 z "},"ī":{"ha":487,"x_min":-1,"x_max":487,"o":"m 143 0 l 143 718 l 337 718 l 337 0 l 143 0 m -1 837 l -1 967 l 488 967 l 488 837 l -1 837 z "},"į":{"ha":367,"x_min":8,"x_max":306,"o":"m 87 0 l 87 718 l 281 718 l 281 0 l 87 0 m 90 839 l 90 1004 l 283 1004 l 283 839 l 90 839 m 159 -234 q 48 -205 88 -234 q 8 -120 8 -176 q 34 -50 8 -82 q 142 10 60 -17 l 283 6 q 182 -44 210 -21 q 155 -95 155 -67 q 167 -128 155 -117 q 205 -140 178 -140 q 261 -130 237 -140 q 306 -109 285 -121 l 306 -201 q 246 -223 286 -212 q 159 -234 206 -234 z "},"ĩ":{"ha":472,"x_min":-3,"x_max":476,"o":"m 133 0 l 133 718 l 326 718 l 326 0 l 133 0 m 28 827 l -3 933 q 52 978 22 959 q 130 997 83 997 q 204 986 169 997 q 271 965 239 976 q 335 954 303 954 q 400 970 372 954 q 451 1002 428 985 l 476 882 q 418 849 454 865 q 335 833 382 833 q 265 843 297 833 q 203 862 233 853 q 137 872 172 872 q 78 861 101 872 q 28 827 55 850 z "},"j":{"ha":401,"x_min":-22,"x_max":314,"o":"m 70 -231 q -4 -220 14 -231 q -22 -210 -22 -210 l -22 -75 l 33 -69 q 93 -46 76 -64 q 110 7 110 -28 l 110 718 l 312 718 l 312 5 q 255 -172 312 -112 q 70 -231 198 -231 m 107 821 l 107 1003 l 314 1003 l 314 821 l 107 821 z "},"ȷ":{"ha":399,"x_min":-22,"x_max":313,"o":"m 69 -231 q -4 -222 13 -231 q -22 -210 -22 -213 l -22 -75 l 33 -69 q 93 -46 76 -64 q 110 7 110 -28 l 110 718 l 313 718 l 313 5 q 255 -172 313 -112 q 69 -231 197 -231 z "},"ĵ":{"ha":399,"x_min":-42,"x_max":460,"o":"m 69 -231 q -4 -222 13 -231 q -22 -210 -22 -213 l -22 -75 l 33 -69 q 93 -46 76 -64 q 110 7 110 -28 l 110 718 l 313 718 l 313 5 q 255 -172 313 -112 q 69 -231 197 -231 m -42 802 l 141 982 l 281 982 l 460 802 l 301 802 l 210 899 l 108 802 l -42 802 z "},"k":{"ha":805,"x_min":87,"x_max":781,"o":"m 87 0 l 87 1032 l 290 1032 l 290 420 l 553 718 l 772 718 l 510 432 l 781 0 l 578 0 l 385 310 l 290 208 l 290 0 l 87 0 z "},"ķ":{"ha":805,"x_min":87,"x_max":781,"o":"m 87 0 l 87 1032 l 290 1032 l 290 420 l 553 718 l 772 718 l 510 432 l 781 0 l 578 0 l 385 310 l 290 208 l 290 0 l 87 0 m 310 -306 l 374 -202 l 319 -195 l 319 -65 l 491 -65 l 491 -174 l 383 -306 l 310 -306 z "},"ĸ":{"ha":835,"x_min":87,"x_max":810,"o":"m 87 0 l 87 718 l 290 718 l 290 401 l 583 718 l 789 718 l 550 477 l 810 0 l 578 0 l 415 330 l 290 208 l 290 0 l 87 0 z "},"l":{"ha":457,"x_min":87,"x_max":401,"o":"m 316 -12 q 190 6 237 -12 q 122 56 144 25 q 93 125 99 87 q 87 201 87 163 l 87 1032 l 285 1032 l 285 226 q 302 162 285 187 q 367 132 319 138 l 401 130 l 401 5 q 358 -7 380 -2 q 316 -12 337 -12 z "},"ĺ":{"ha":457,"x_min":87,"x_max":462,"o":"m 316 -12 q 190 6 237 -12 q 122 56 144 25 q 93 125 99 87 q 87 201 87 163 l 87 1032 l 285 1032 l 285 226 q 302 162 285 187 q 367 132 319 138 l 401 130 l 401 5 q 358 -7 380 -2 q 316 -12 337 -12 m 110 1145 l 253 1347 l 462 1347 l 256 1145 l 110 1145 z "},"ľ":{"ha":457,"x_min":87,"x_max":503,"o":"m 316 -12 q 190 6 237 -12 q 122 56 144 25 q 93 125 99 87 q 87 201 87 163 l 87 1032 l 285 1032 l 285 226 q 302 162 285 187 q 367 132 319 138 l 401 130 l 401 5 q 358 -7 380 -2 q 316 -12 337 -12 m 358 729 l 415 869 l 365 878 l 365 1032 l 503 1032 l 503 870 l 444 729 l 358 729 z "},"ļ":{"ha":457,"x_min":87,"x_max":401,"o":"m 316 -12 q 190 6 237 -12 q 122 56 144 25 q 93 125 99 87 q 87 201 87 163 l 87 1032 l 285 1032 l 285 226 q 302 162 285 187 q 367 132 319 138 l 401 130 l 401 5 q 358 -7 380 -2 q 316 -12 337 -12 m 89 -305 l 153 -201 l 97 -194 l 97 -65 l 269 -65 l 269 -173 l 161 -305 l 89 -305 z "},"ŀ":{"ha":589,"x_min":87,"x_max":584,"o":"m 316 -12 q 190 6 237 -12 q 122 56 144 25 q 93 125 99 87 q 87 201 87 163 l 87 1032 l 285 1032 l 285 226 q 302 162 285 187 q 367 132 319 138 l 401 130 l 401 5 q 358 -7 380 -2 q 316 -12 337 -12 m 376 438 l 376 638 l 584 638 l 584 438 l 376 438 z "},"ł":{"ha":515,"x_min":49,"x_max":451,"o":"m 49 210 l 49 383 l 451 667 l 451 501 l 49 210 m 367 -12 q 241 6 287 -12 q 172 56 194 25 q 144 125 150 87 q 138 201 138 163 l 138 1032 l 336 1032 l 336 226 q 353 162 336 187 q 417 132 370 138 l 451 130 l 451 5 q 409 -7 431 -2 q 367 -12 387 -12 z "},"m":{"ha":1244,"x_min":87,"x_max":1166,"o":"m 87 0 l 87 718 l 285 718 l 285 617 q 373 698 318 664 q 513 732 428 732 q 588 719 549 732 q 659 680 626 706 q 714 617 693 655 q 805 699 749 666 q 931 732 862 732 q 1013 719 972 732 q 1089 676 1054 706 q 1145 596 1124 646 q 1166 474 1166 547 l 1166 0 l 963 0 l 963 449 q 946 518 963 492 q 903 555 929 544 q 848 567 877 567 q 793 556 821 567 q 746 522 765 545 q 726 460 726 498 l 726 0 l 524 0 l 524 467 q 507 522 524 499 q 464 555 490 544 q 410 567 438 567 q 355 555 383 567 q 308 520 327 544 q 290 460 290 496 l 290 0 l 87 0 z "},"n":{"ha":824,"x_min":87,"x_max":746,"o":"m 87 0 l 87 718 l 286 718 l 286 617 q 330 668 303 643 q 397 708 356 692 q 494 724 438 724 q 618 699 560 724 q 710 618 675 673 q 746 474 746 563 l 746 0 l 543 0 l 543 449 q 508 536 543 507 q 424 565 474 565 q 359 553 390 565 q 309 518 328 542 q 290 460 290 494 l 290 0 l 87 0 z "},"ń":{"ha":824,"x_min":87,"x_max":746,"o":"m 87 0 l 87 718 l 286 718 l 286 617 q 330 668 303 643 q 397 708 356 692 q 494 724 438 724 q 618 699 560 724 q 710 618 675 673 q 746 474 746 563 l 746 0 l 543 0 l 543 449 q 508 536 543 507 q 424 565 474 565 q 359 553 390 565 q 309 518 328 542 q 290 460 290 494 l 290 0 l 87 0 m 344 802 l 488 1004 l 697 1004 l 490 802 l 344 802 z "},"ň":{"ha":824,"x_min":87,"x_max":746,"o":"m 87 0 l 87 718 l 286 718 l 286 617 q 330 668 303 643 q 397 708 356 692 q 494 724 438 724 q 618 699 560 724 q 710 618 675 673 q 746 474 746 563 l 746 0 l 543 0 l 543 449 q 508 536 543 507 q 424 565 474 565 q 359 553 390 565 q 309 518 328 542 q 290 460 290 494 l 290 0 l 87 0 m 350 802 l 167 983 l 318 983 l 419 879 l 511 983 l 669 983 l 491 802 l 350 802 z "},"ņ":{"ha":824,"x_min":87,"x_max":746,"o":"m 87 0 l 87 718 l 286 718 l 286 617 q 330 668 303 643 q 397 708 356 692 q 494 724 438 724 q 618 699 560 724 q 710 618 675 673 q 746 474 746 563 l 746 0 l 543 0 l 543 449 q 508 536 543 507 q 424 565 474 565 q 359 553 390 565 q 309 518 328 542 q 290 460 290 494 l 290 0 l 87 0 m 322 -306 l 385 -202 l 330 -195 l 330 -65 l 502 -65 l 502 -174 l 394 -306 l 322 -306 z "},"ṅ":{"ha":824,"x_min":87,"x_max":746,"o":"m 87 0 l 87 718 l 286 718 l 286 617 q 330 668 303 643 q 397 708 356 692 q 494 724 438 724 q 618 699 560 724 q 710 618 675 673 q 746 474 746 563 l 746 0 l 543 0 l 543 449 q 508 536 543 507 q 424 565 474 565 q 359 553 390 565 q 309 518 328 542 q 290 460 290 494 l 290 0 l 87 0 m 323 839 l 323 1004 l 517 1004 l 517 839 l 323 839 z "},"ŋ":{"ha":833,"x_min":87,"x_max":747,"o":"m 509 -231 q 439 -224 452 -231 q 425 -214 425 -217 l 425 -75 l 471 -72 q 527 -50 510 -67 q 544 4 544 -33 l 544 484 q 518 557 544 529 q 442 584 493 584 q 362 562 399 584 q 292 497 325 540 l 292 0 l 87 0 l 90 718 l 288 718 l 288 607 q 366 675 327 647 q 446 717 406 703 q 532 732 487 732 q 688 674 630 732 q 747 519 747 615 l 747 10 q 718 -119 747 -65 q 635 -202 689 -173 q 509 -231 582 -231 z "},"ñ":{"ha":824,"x_min":87,"x_max":746,"o":"m 87 0 l 87 718 l 286 718 l 286 617 q 330 668 303 643 q 397 708 356 692 q 494 724 438 724 q 618 699 560 724 q 710 618 675 673 q 746 474 746 563 l 746 0 l 543 0 l 543 449 q 508 536 543 507 q 424 565 474 565 q 359 553 390 565 q 309 518 328 542 q 290 460 290 494 l 290 0 l 87 0 m 215 827 l 184 933 q 240 978 209 959 q 317 997 270 997 q 391 986 356 997 q 459 965 426 976 q 522 954 491 954 q 588 970 559 954 q 638 1002 616 985 l 663 882 q 606 849 642 865 q 523 833 569 833 q 452 843 484 833 q 390 862 421 853 q 324 872 360 872 q 266 861 289 872 q 215 827 242 850 z "},"o":{"ha":799,"x_min":53,"x_max":747,"o":"m 400 -14 q 216 31 294 -14 q 95 159 138 76 q 53 355 53 242 q 95 553 53 468 q 216 685 138 638 q 401 732 294 732 q 585 686 507 732 q 705 555 663 640 q 747 355 747 470 q 706 164 747 247 q 587 33 665 81 q 400 -14 510 -14 m 401 137 q 487 168 454 137 q 534 250 519 199 q 549 362 549 301 q 535 469 549 419 q 490 551 522 520 q 401 583 457 583 q 314 553 347 583 q 266 473 281 524 q 251 362 251 423 q 265 254 251 306 q 311 169 278 202 q 401 137 344 137 z "},"ó":{"ha":799,"x_min":53,"x_max":747,"o":"m 400 -14 q 216 31 294 -14 q 95 159 138 76 q 53 355 53 242 q 95 553 53 468 q 216 685 138 638 q 401 732 294 732 q 585 686 507 732 q 705 555 663 640 q 747 355 747 470 q 706 164 747 247 q 587 33 665 81 q 400 -14 510 -14 m 401 137 q 487 168 454 137 q 534 250 519 199 q 549 362 549 301 q 535 469 549 419 q 490 551 522 520 q 401 583 457 583 q 314 553 347 583 q 266 473 281 524 q 251 362 251 423 q 265 254 251 306 q 311 169 278 202 q 401 137 344 137 m 324 802 l 467 1004 l 676 1004 l 470 802 l 324 802 z "},"ŏ":{"ha":799,"x_min":53,"x_max":747,"o":"m 400 -14 q 216 31 294 -14 q 95 159 138 76 q 53 355 53 242 q 95 553 53 468 q 216 685 138 638 q 401 732 294 732 q 585 686 507 732 q 705 555 663 640 q 747 355 747 470 q 706 164 747 247 q 587 33 665 81 q 400 -14 510 -14 m 401 137 q 487 168 454 137 q 534 250 519 199 q 549 362 549 301 q 535 469 549 419 q 490 551 522 520 q 401 583 457 583 q 314 553 347 583 q 266 473 281 524 q 251 362 251 423 q 265 254 251 306 q 311 169 278 202 q 401 137 344 137 m 400 802 q 291 822 342 802 q 204 881 240 842 q 157 979 169 921 l 285 979 q 325 923 295 944 q 400 901 355 901 q 475 923 444 901 q 517 979 505 944 l 644 979 q 597 882 632 921 q 510 822 561 842 q 400 802 459 802 z "},"ô":{"ha":799,"x_min":53,"x_max":747,"o":"m 400 -14 q 216 31 294 -14 q 95 159 138 76 q 53 355 53 242 q 95 553 53 468 q 216 685 138 638 q 401 732 294 732 q 585 686 507 732 q 705 555 663 640 q 747 355 747 470 q 706 164 747 247 q 587 33 665 81 q 400 -14 510 -14 m 401 137 q 487 168 454 137 q 534 250 519 199 q 549 362 549 301 q 535 469 549 419 q 490 551 522 520 q 401 583 457 583 q 314 553 347 583 q 266 473 281 524 q 251 362 251 423 q 265 254 251 306 q 311 169 278 202 q 401 137 344 137 m 147 802 l 331 982 l 471 982 l 649 802 l 491 802 l 399 899 l 298 802 l 147 802 z "},"ố":{"ha":799,"x_min":53,"x_max":819,"o":"m 400 -14 q 216 31 294 -14 q 95 159 138 76 q 53 355 53 242 q 95 553 53 468 q 216 685 138 638 q 401 732 294 732 q 585 686 507 732 q 705 555 663 640 q 747 355 747 470 q 706 164 747 247 q 587 33 665 81 q 400 -14 510 -14 m 401 137 q 487 168 454 137 q 534 250 519 199 q 549 362 549 301 q 535 469 549 419 q 490 551 522 520 q 401 583 457 583 q 314 553 347 583 q 266 473 281 524 q 251 362 251 423 q 265 254 251 306 q 311 169 278 202 q 401 137 344 137 m 147 802 l 331 982 l 471 982 l 649 802 l 491 802 l 399 899 l 298 802 l 147 802 m 558 971 l 663 1153 l 819 1153 l 663 971 l 558 971 z "},"ộ":{"ha":799,"x_min":53,"x_max":747,"o":"m 400 -14 q 216 31 294 -14 q 95 159 138 76 q 53 355 53 242 q 95 553 53 468 q 216 685 138 638 q 401 732 294 732 q 585 686 507 732 q 705 555 663 640 q 747 355 747 470 q 706 164 747 247 q 587 33 665 81 q 400 -14 510 -14 m 401 137 q 487 168 454 137 q 534 250 519 199 q 549 362 549 301 q 535 469 549 419 q 490 551 522 520 q 401 583 457 583 q 314 553 347 583 q 266 473 281 524 q 251 362 251 423 q 265 254 251 306 q 311 169 278 202 q 401 137 344 137 m 301 -276 l 301 -111 l 495 -111 l 495 -276 l 301 -276 m 147 802 l 331 982 l 471 982 l 649 802 l 491 802 l 399 899 l 298 802 l 147 802 z "},"ồ":{"ha":799,"x_min":53,"x_max":747,"o":"m 400 -14 q 216 31 294 -14 q 95 159 138 76 q 53 355 53 242 q 95 553 53 468 q 216 685 138 638 q 401 732 294 732 q 585 686 507 732 q 705 555 663 640 q 747 355 747 470 q 706 164 747 247 q 587 33 665 81 q 400 -14 510 -14 m 401 137 q 487 168 454 137 q 534 250 519 199 q 549 362 549 301 q 535 469 549 419 q 490 551 522 520 q 401 583 457 583 q 314 553 347 583 q 266 473 281 524 q 251 362 251 423 q 265 254 251 306 q 311 169 278 202 q 401 137 344 137 m 147 802 l 331 982 l 471 982 l 649 802 l 491 802 l 399 899 l 298 802 l 147 802 m 618 971 l 460 1152 l 617 1152 l 727 971 l 618 971 z "},"ổ":{"ha":799,"x_min":53,"x_max":747,"o":"m 400 -14 q 216 31 294 -14 q 95 159 138 76 q 53 355 53 242 q 95 553 53 468 q 216 685 138 638 q 401 732 294 732 q 585 686 507 732 q 705 555 663 640 q 747 355 747 470 q 706 164 747 247 q 587 33 665 81 q 400 -14 510 -14 m 401 137 q 487 168 454 137 q 534 250 519 199 q 549 362 549 301 q 535 469 549 419 q 490 551 522 520 q 401 583 457 583 q 314 553 347 583 q 266 473 281 524 q 251 362 251 423 q 265 254 251 306 q 311 169 278 202 q 401 137 344 137 m 152 802 l 335 982 l 476 982 l 654 802 l 496 802 l 404 899 l 303 802 l 152 802 m 608 940 l 560 1015 q 597 1056 588 1033 q 592 1102 606 1078 q 552 1124 579 1123 q 500 1109 525 1126 l 452 1183 q 578 1214 516 1224 q 672 1154 640 1203 q 694 1039 710 1095 q 608 940 678 982 z "},"ỗ":{"ha":799,"x_min":53,"x_max":747,"o":"m 400 -14 q 216 31 294 -14 q 95 159 138 76 q 53 355 53 242 q 95 553 53 468 q 216 685 138 638 q 401 732 294 732 q 585 686 507 732 q 705 555 663 640 q 747 355 747 470 q 706 164 747 247 q 587 33 665 81 q 400 -14 510 -14 m 401 137 q 487 168 454 137 q 534 250 519 199 q 549 362 549 301 q 535 469 549 419 q 490 551 522 520 q 401 583 457 583 q 314 553 347 583 q 266 473 281 524 q 251 362 251 423 q 265 254 251 306 q 311 169 278 202 q 401 137 344 137 m 149 802 l 333 982 l 473 982 l 651 802 l 493 802 l 401 899 l 300 802 l 149 802 m 191 1046 l 160 1152 q 216 1197 185 1178 q 294 1216 247 1216 q 367 1205 333 1216 q 435 1184 402 1194 q 499 1173 467 1173 q 564 1189 535 1173 q 614 1222 592 1204 l 640 1101 q 582 1068 617 1083 q 499 1052 546 1052 q 428 1062 460 1052 q 366 1082 397 1072 q 300 1091 335 1091 q 242 1080 265 1091 q 191 1046 219 1069 z "},"ȍ":{"ha":799,"x_min":-14,"x_max":747,"o":"m 400 -14 q 216 31 294 -14 q 95 159 138 76 q 53 355 53 242 q 95 553 53 468 q 216 685 138 638 q 401 732 294 732 q 585 686 507 732 q 705 555 663 640 q 747 355 747 470 q 706 164 747 247 q 587 33 665 81 q 400 -14 510 -14 m 401 137 q 487 168 454 137 q 534 250 519 199 q 549 362 549 301 q 535 469 549 419 q 490 551 522 520 q 401 583 457 583 q 314 553 347 583 q 266 473 281 524 q 251 362 251 423 q 265 254 251 306 q 311 169 278 202 q 401 137 344 137 m 203 802 l -14 1004 l 177 1004 l 349 802 l 203 802 m 447 802 l 269 1004 l 454 1004 l 594 802 l 447 802 z "},"ö":{"ha":799,"x_min":53,"x_max":747,"o":"m 400 -14 q 216 31 294 -14 q 95 159 138 76 q 53 355 53 242 q 95 553 53 468 q 216 685 138 638 q 401 732 294 732 q 585 686 507 732 q 705 555 663 640 q 747 355 747 470 q 706 164 747 247 q 587 33 665 81 q 400 -14 510 -14 m 401 137 q 487 168 454 137 q 534 250 519 199 q 549 362 549 301 q 535 469 549 419 q 490 551 522 520 q 401 583 457 583 q 314 553 347 583 q 266 473 281 524 q 251 362 251 423 q 265 254 251 306 q 311 169 278 202 q 401 137 344 137 m 466 839 l 468 1004 l 658 1004 l 656 839 l 466 839 m 142 839 l 144 1004 l 334 1004 l 333 839 l 142 839 z "},"ọ":{"ha":799,"x_min":53,"x_max":747,"o":"m 400 -14 q 216 31 294 -14 q 95 159 138 76 q 53 355 53 242 q 95 553 53 468 q 216 685 138 638 q 401 732 294 732 q 585 686 507 732 q 705 555 663 640 q 747 355 747 470 q 706 164 747 247 q 587 33 665 81 q 400 -14 510 -14 m 401 137 q 487 168 454 137 q 534 250 519 199 q 549 362 549 301 q 535 469 549 419 q 490 551 522 520 q 401 583 457 583 q 314 553 347 583 q 266 473 281 524 q 251 362 251 423 q 265 254 251 306 q 311 169 278 202 q 401 137 344 137 m 301 -276 l 301 -111 l 495 -111 l 495 -276 l 301 -276 z "},"ò":{"ha":799,"x_min":53,"x_max":747,"o":"m 400 -14 q 216 31 294 -14 q 95 159 138 76 q 53 355 53 242 q 95 553 53 468 q 216 685 138 638 q 401 732 294 732 q 585 686 507 732 q 705 555 663 640 q 747 355 747 470 q 706 164 747 247 q 587 33 665 81 q 400 -14 510 -14 m 401 137 q 487 168 454 137 q 534 250 519 199 q 549 362 549 301 q 535 469 549 419 q 490 551 522 520 q 401 583 457 583 q 314 553 347 583 q 266 473 281 524 q 251 362 251 423 q 265 254 251 306 q 311 169 278 202 q 401 137 344 137 m 325 802 l 119 1004 l 328 1004 l 472 802 l 325 802 z "},"ỏ":{"ha":799,"x_min":53,"x_max":747,"o":"m 400 -14 q 216 31 294 -14 q 95 159 138 76 q 53 355 53 242 q 95 553 53 468 q 216 685 138 638 q 401 732 294 732 q 585 686 507 732 q 705 555 663 640 q 747 355 747 470 q 706 164 747 247 q 587 33 665 81 q 400 -14 510 -14 m 401 137 q 487 168 454 137 q 534 250 519 199 q 549 362 549 301 q 535 469 549 419 q 490 551 522 520 q 401 583 457 583 q 314 553 347 583 q 266 473 281 524 q 251 362 251 423 q 265 254 251 306 q 311 169 278 202 q 401 137 344 137 m 458 801 l 410 876 q 447 917 438 894 q 442 963 456 940 q 402 985 429 984 q 350 970 375 987 l 303 1044 q 428 1075 366 1085 q 522 1015 490 1065 q 544 900 560 956 q 458 801 528 843 z "},"ơ":{"ha":890,"x_min":53,"x_max":896,"o":"m 400 -14 q 216 31 294 -14 q 95 159 138 76 q 53 355 53 242 q 95 553 53 468 q 216 685 138 638 q 401 732 294 732 q 547 705 482 732 q 656 626 611 677 q 713 638 691 628 q 746 678 734 647 q 763 773 758 708 l 896 773 q 879 636 896 690 q 824 555 863 583 q 717 524 785 528 q 747 355 747 451 q 706 164 747 247 q 587 33 665 81 q 400 -14 510 -14 m 401 137 q 487 168 454 137 q 534 250 519 199 q 549 362 549 301 q 535 469 549 419 q 490 551 522 520 q 401 583 457 583 q 314 553 347 583 q 266 473 281 524 q 251 362 251 423 q 265 254 251 306 q 311 169 278 202 q 401 137 344 137 z "},"ớ":{"ha":890,"x_min":53,"x_max":896,"o":"m 321 802 l 464 1004 l 673 1004 l 467 802 l 321 802 m 400 -14 q 216 31 294 -14 q 95 159 138 76 q 53 355 53 242 q 95 553 53 468 q 216 685 138 638 q 401 732 294 732 q 547 705 482 732 q 656 626 611 677 q 713 638 691 628 q 746 678 734 647 q 763 773 758 708 l 896 773 q 879 636 896 690 q 824 555 863 583 q 717 524 785 528 q 747 355 747 451 q 706 164 747 247 q 587 33 665 81 q 400 -14 510 -14 m 401 137 q 487 168 454 137 q 534 250 519 199 q 549 362 549 301 q 535 469 549 419 q 490 551 522 520 q 401 583 457 583 q 314 553 347 583 q 266 473 281 524 q 251 362 251 423 q 265 254 251 306 q 311 169 278 202 q 401 137 344 137 z "},"ợ":{"ha":890,"x_min":53,"x_max":896,"o":"m 284 -276 l 284 -111 l 478 -111 l 478 -276 l 284 -276 m 400 -14 q 216 31 294 -14 q 95 159 138 76 q 53 355 53 242 q 95 553 53 468 q 216 685 138 638 q 401 732 294 732 q 547 705 482 732 q 656 626 611 677 q 713 638 691 628 q 746 678 734 647 q 763 773 758 708 l 896 773 q 879 636 896 690 q 824 555 863 583 q 717 524 785 528 q 747 355 747 451 q 706 164 747 247 q 587 33 665 81 q 400 -14 510 -14 m 401 137 q 487 168 454 137 q 534 250 519 199 q 549 362 549 301 q 535 469 549 419 q 490 551 522 520 q 401 583 457 583 q 314 553 347 583 q 266 473 281 524 q 251 362 251 423 q 265 254 251 306 q 311 169 278 202 q 401 137 344 137 z "},"ờ":{"ha":890,"x_min":53,"x_max":896,"o":"m 317 802 l 112 1004 l 321 1004 l 464 802 l 317 802 m 400 -14 q 216 31 294 -14 q 95 159 138 76 q 53 355 53 242 q 95 553 53 468 q 216 685 138 638 q 401 732 294 732 q 547 705 482 732 q 656 626 611 677 q 713 638 691 628 q 746 678 734 647 q 763 773 758 708 l 896 773 q 879 636 896 690 q 824 555 863 583 q 717 524 785 528 q 747 355 747 451 q 706 164 747 247 q 587 33 665 81 q 400 -14 510 -14 m 401 137 q 487 168 454 137 q 534 250 519 199 q 549 362 549 301 q 535 469 549 419 q 490 551 522 520 q 401 583 457 583 q 314 553 347 583 q 266 473 281 524 q 251 362 251 423 q 265 254 251 306 q 311 169 278 202 q 401 137 344 137 z "},"ở":{"ha":890,"x_min":53,"x_max":896,"o":"m 449 801 l 401 876 q 439 917 429 894 q 433 963 448 940 q 394 985 421 984 q 342 970 367 987 l 294 1044 q 420 1075 358 1085 q 513 1015 482 1065 q 536 900 551 956 q 449 801 520 843 m 400 -14 q 216 31 294 -14 q 95 159 138 76 q 53 355 53 242 q 95 553 53 468 q 216 685 138 638 q 401 732 294 732 q 547 705 482 732 q 656 626 611 677 q 713 638 691 628 q 746 678 734 647 q 763 773 758 708 l 896 773 q 879 636 896 690 q 824 555 863 583 q 717 524 785 528 q 747 355 747 451 q 706 164 747 247 q 587 33 665 81 q 400 -14 510 -14 m 401 137 q 487 168 454 137 q 534 250 519 199 q 549 362 549 301 q 535 469 549 419 q 490 551 522 520 q 401 583 457 583 q 314 553 347 583 q 266 473 281 524 q 251 362 251 423 q 265 254 251 306 q 311 169 278 202 q 401 137 344 137 z "},"ỡ":{"ha":890,"x_min":53,"x_max":896,"o":"m 187 827 l 156 933 q 211 978 181 959 q 289 997 242 997 q 363 986 328 997 q 430 965 398 976 q 494 954 463 954 q 559 970 531 954 q 610 1002 588 985 l 635 882 q 577 849 613 865 q 494 833 541 833 q 424 843 456 833 q 362 862 392 853 q 296 872 331 872 q 237 861 260 872 q 187 827 214 850 m 400 -14 q 216 31 294 -14 q 95 159 138 76 q 53 355 53 242 q 95 553 53 468 q 216 685 138 638 q 401 732 294 732 q 547 705 482 732 q 656 626 611 677 q 713 638 691 628 q 746 678 734 647 q 763 773 758 708 l 896 773 q 879 636 896 690 q 824 555 863 583 q 717 524 785 528 q 747 355 747 451 q 706 164 747 247 q 587 33 665 81 q 400 -14 510 -14 m 401 137 q 487 168 454 137 q 534 250 519 199 q 549 362 549 301 q 535 469 549 419 q 490 551 522 520 q 401 583 457 583 q 314 553 347 583 q 266 473 281 524 q 251 362 251 423 q 265 254 251 306 q 311 169 278 202 q 401 137 344 137 z "},"ő":{"ha":799,"x_min":53,"x_max":813,"o":"m 400 -14 q 216 31 294 -14 q 95 159 138 76 q 53 355 53 242 q 95 553 53 468 q 216 685 138 638 q 401 732 294 732 q 585 686 507 732 q 705 555 663 640 q 747 355 747 470 q 706 164 747 247 q 587 33 665 81 q 400 -14 510 -14 m 401 137 q 487 168 454 137 q 534 250 519 199 q 549 362 549 301 q 535 469 549 419 q 490 551 522 520 q 401 583 457 583 q 314 553 347 583 q 266 473 281 524 q 251 362 251 423 q 265 254 251 306 q 311 169 278 202 q 401 137 344 137 m 451 802 l 622 1004 l 813 1004 l 597 802 l 451 802 m 206 802 l 346 1004 l 531 1004 l 352 802 l 206 802 z "},"ȏ":{"ha":799,"x_min":53,"x_max":747,"o":"m 400 -14 q 216 31 294 -14 q 95 159 138 76 q 53 355 53 242 q 95 553 53 468 q 216 685 138 638 q 401 732 294 732 q 585 686 507 732 q 705 555 663 640 q 747 355 747 470 q 706 164 747 247 q 587 33 665 81 q 400 -14 510 -14 m 401 137 q 487 168 454 137 q 534 250 519 199 q 549 362 549 301 q 535 469 549 419 q 490 551 522 520 q 401 583 457 583 q 314 553 347 583 q 266 473 281 524 q 251 362 251 423 q 265 254 251 306 q 311 169 278 202 q 401 137 344 137 m 156 819 q 203 918 168 878 q 290 977 239 957 q 399 997 340 997 q 509 976 458 997 q 595 917 560 956 q 642 819 631 878 l 515 819 q 474 876 504 853 q 399 898 443 898 q 324 876 353 898 q 283 819 294 853 l 156 819 z "},"ō":{"ha":799,"x_min":53,"x_max":747,"o":"m 400 -14 q 216 31 294 -14 q 95 159 138 76 q 53 355 53 242 q 95 553 53 468 q 216 685 138 638 q 401 732 294 732 q 585 686 507 732 q 705 555 663 640 q 747 355 747 470 q 706 164 747 247 q 587 33 665 81 q 400 -14 510 -14 m 401 137 q 487 168 454 137 q 534 250 519 199 q 549 362 549 301 q 535 469 549 419 q 490 551 522 520 q 401 583 457 583 q 314 553 347 583 q 266 473 281 524 q 251 362 251 423 q 265 254 251 306 q 311 169 278 202 q 401 137 344 137 m 156 837 l 156 967 l 644 967 l 644 837 l 156 837 z "},"ǫ":{"ha":799,"x_min":53,"x_max":747,"o":"m 406 -233 q 295 -204 335 -233 q 255 -119 255 -175 q 281 -49 255 -81 q 388 11 308 -16 l 530 7 q 429 -43 457 -20 q 401 -94 401 -66 q 414 -127 401 -116 q 451 -138 426 -138 q 508 -129 483 -138 q 552 -108 532 -119 l 552 -200 q 493 -223 533 -212 q 406 -233 453 -233 m 400 -14 q 216 31 294 -14 q 95 159 138 76 q 53 355 53 242 q 95 553 53 468 q 216 685 138 638 q 401 732 294 732 q 585 686 507 732 q 705 555 663 640 q 747 355 747 470 q 706 164 747 247 q 587 33 665 81 q 400 -14 510 -14 m 401 137 q 487 168 454 137 q 534 250 519 199 q 549 362 549 301 q 535 469 549 419 q 490 551 522 520 q 401 583 457 583 q 314 553 347 583 q 266 473 281 524 q 251 362 251 423 q 265 254 251 306 q 311 169 278 202 q 401 137 344 137 z "},"ø":{"ha":849,"x_min":35,"x_max":805,"o":"m 102 -10 l 35 61 l 739 726 l 805 656 l 102 -10 m 434 -14 q 250 31 328 -14 q 130 159 172 76 q 87 355 87 242 q 130 553 87 468 q 250 685 172 638 q 435 732 328 732 q 619 686 541 732 q 739 555 697 640 q 781 355 781 470 q 740 164 781 247 q 621 33 699 81 q 434 -14 544 -14 m 435 137 q 521 168 488 137 q 568 250 553 199 q 583 362 583 301 q 570 469 583 419 q 524 551 556 520 q 435 583 491 583 q 348 553 381 583 q 300 473 315 524 q 285 362 285 423 q 299 254 285 306 q 345 169 313 202 q 435 137 378 137 z "},"ǿ":{"ha":849,"x_min":35,"x_max":805,"o":"m 102 -10 l 35 61 l 739 726 l 805 656 l 102 -10 m 434 -14 q 250 31 328 -14 q 130 159 172 76 q 87 355 87 242 q 130 553 87 468 q 250 685 172 638 q 435 732 328 732 q 619 686 541 732 q 739 555 697 640 q 781 355 781 470 q 740 164 781 247 q 621 33 699 81 q 434 -14 544 -14 m 435 137 q 521 168 488 137 q 568 250 553 199 q 583 362 583 301 q 570 469 583 419 q 524 551 556 520 q 435 583 491 583 q 348 553 381 583 q 300 473 315 524 q 285 362 285 423 q 299 254 285 306 q 345 169 313 202 q 435 137 378 137 m 345 802 l 488 1004 l 697 1004 l 491 802 l 345 802 z "},"õ":{"ha":799,"x_min":53,"x_max":747,"o":"m 400 -14 q 216 31 294 -14 q 95 159 138 76 q 53 355 53 242 q 95 553 53 468 q 216 685 138 638 q 401 732 294 732 q 585 686 507 732 q 705 555 663 640 q 747 355 747 470 q 706 164 747 247 q 587 33 665 81 q 400 -14 510 -14 m 401 137 q 487 168 454 137 q 534 250 519 199 q 549 362 549 301 q 535 469 549 419 q 490 551 522 520 q 401 583 457 583 q 314 553 347 583 q 266 473 281 524 q 251 362 251 423 q 265 254 251 306 q 311 169 278 202 q 401 137 344 137 m 196 827 l 165 933 q 220 978 190 959 q 298 997 251 997 q 372 986 337 997 q 439 965 407 976 q 503 954 472 954 q 568 970 540 954 q 619 1002 597 985 l 644 882 q 586 849 622 865 q 503 833 550 833 q 433 843 465 833 q 371 862 401 853 q 305 872 340 872 q 246 861 269 872 q 196 827 223 850 z "},"œ":{"ha":1297,"x_min":53,"x_max":1238,"o":"m 1238 367 l 1238 313 l 756 313 q 773 217 755 258 q 825 155 791 176 q 908 133 860 133 q 1000 155 960 133 q 1054 228 1039 177 l 1237 228 q 1176 97 1225 151 q 1058 15 1127 43 q 913 -14 988 -14 q 763 16 830 -14 q 652 103 696 47 q 548 17 611 49 q 400 -14 485 -14 q 216 31 294 -14 q 95 159 138 76 q 53 355 53 242 q 95 553 53 468 q 216 685 138 638 q 401 732 294 732 q 547 702 483 732 q 653 613 612 672 q 757 701 694 669 q 903 732 820 732 q 1087 686 1013 732 q 1200 557 1162 640 q 1238 367 1238 475 m 401 137 q 487 168 454 137 q 534 250 519 199 q 549 362 549 301 q 535 469 549 419 q 490 551 522 520 q 401 583 457 583 q 314 553 347 583 q 266 473 281 524 q 251 362 251 423 q 265 254 251 306 q 311 169 278 202 q 401 137 344 137 m 755 433 l 1048 433 q 1032 513 1048 476 q 984 569 1016 549 q 903 590 951 590 q 823 568 856 590 q 772 509 790 545 q 755 433 755 473 z "},"p":{"ha":843,"x_min":87,"x_max":790,"o":"m 87 -224 l 87 718 l 290 718 l 291 615 q 330 661 307 640 q 382 699 353 683 q 444 723 410 715 q 514 732 477 732 q 656 693 594 732 q 755 572 719 653 q 790 365 790 490 q 752 150 790 234 q 646 26 713 67 q 494 -14 578 -14 q 428 -5 459 -14 q 372 22 398 5 q 325 60 346 38 q 290 108 305 82 l 290 -224 l 87 -224 m 445 135 q 556 190 511 135 q 601 363 601 244 q 558 526 601 467 q 445 585 515 585 q 328 521 367 585 q 290 363 290 458 q 307 251 290 303 q 358 167 324 199 q 445 135 392 135 z "},"þ":{"ha":839,"x_min":87,"x_max":787,"o":"m 87 -224 l 87 1004 l 290 1004 l 290 627 q 342 677 313 653 q 411 716 372 701 q 508 732 451 732 q 649 692 586 732 q 750 571 713 653 q 787 365 787 490 q 749 151 787 235 q 645 27 710 67 q 496 -14 579 -14 q 398 3 442 -14 q 314 55 353 20 q 294 67 299 68 q 290 47 290 66 l 290 -224 l 87 -224 m 422 115 q 506 140 470 115 q 561 221 541 165 q 581 369 581 277 q 561 507 581 456 q 506 581 541 558 q 425 603 472 603 q 355 586 386 603 q 307 545 324 570 q 290 492 290 519 l 290 184 q 349 134 317 153 q 422 115 381 115 z "},"q":{"ha":843,"x_min":53,"x_max":756,"o":"m 553 -224 l 553 108 q 518 60 539 82 q 471 22 497 38 q 415 -5 445 5 q 349 -14 384 -14 q 201 24 268 -14 q 93 146 133 63 q 53 365 53 230 q 87 568 53 486 q 183 691 121 649 q 329 732 246 732 q 399 723 366 732 q 461 699 433 715 q 513 661 490 683 q 552 615 536 640 l 553 718 l 756 718 l 756 -224 l 553 -224 m 398 135 q 485 167 451 135 q 537 251 520 199 q 554 363 554 303 q 516 521 554 458 q 398 585 478 585 q 288 529 333 585 q 242 363 242 473 q 285 192 242 250 q 398 135 328 135 z "},"r":{"ha":572,"x_min":87,"x_max":541,"o":"m 87 0 l 87 718 l 282 718 l 282 548 q 331 644 299 603 q 408 709 363 685 q 510 732 453 732 q 528 731 519 732 q 541 728 537 730 l 541 535 q 526 538 535 538 q 510 540 517 539 q 408 536 451 544 q 340 508 366 528 q 301 458 313 488 q 290 393 290 429 l 290 0 l 87 0 z "},"ŕ":{"ha":572,"x_min":87,"x_max":588,"o":"m 87 0 l 87 718 l 282 718 l 282 548 q 331 644 299 603 q 408 709 363 685 q 510 732 453 732 q 528 731 519 732 q 541 728 537 730 l 541 535 q 526 538 535 538 q 510 540 517 539 q 408 536 451 544 q 340 508 366 528 q 301 458 313 488 q 290 393 290 429 l 290 0 l 87 0 m 235 802 l 378 1004 l 588 1004 l 381 802 l 235 802 z "},"ř":{"ha":572,"x_min":58,"x_max":560,"o":"m 87 0 l 87 718 l 282 718 l 282 548 q 331 644 299 603 q 408 709 363 685 q 510 732 453 732 q 528 731 519 732 q 541 728 537 730 l 541 535 q 526 538 535 538 q 510 540 517 539 q 408 536 451 544 q 340 508 366 528 q 301 458 313 488 q 290 393 290 429 l 290 0 l 87 0 m 241 802 l 58 983 l 209 983 l 310 879 l 402 983 l 560 983 l 382 802 l 241 802 z "},"ŗ":{"ha":572,"x_min":87,"x_max":541,"o":"m 87 0 l 87 718 l 282 718 l 282 548 q 331 644 299 603 q 408 709 363 685 q 510 732 453 732 q 528 731 519 732 q 541 728 537 730 l 541 535 q 526 538 535 538 q 510 540 517 539 q 408 536 451 544 q 340 508 366 528 q 301 458 313 488 q 290 393 290 429 l 290 0 l 87 0 m 92 -306 l 156 -202 l 101 -195 l 101 -65 l 273 -65 l 273 -174 l 165 -306 l 92 -306 z "},"ȑ":{"ha":572,"x_min":-103,"x_max":541,"o":"m 87 0 l 87 718 l 282 718 l 282 548 q 331 644 299 603 q 408 709 363 685 q 510 732 453 732 q 528 731 519 732 q 541 728 537 730 l 541 535 q 526 538 535 538 q 510 540 517 539 q 408 536 451 544 q 340 508 366 528 q 301 458 313 488 q 290 393 290 429 l 290 0 l 87 0 m 114 802 l -103 1004 l 88 1004 l 260 802 l 114 802 m 358 802 l 180 1004 l 365 1004 l 505 802 l 358 802 z "},"ṛ":{"ha":572,"x_min":87,"x_max":541,"o":"m 87 0 l 87 718 l 282 718 l 282 548 q 331 644 299 603 q 408 709 363 685 q 510 732 453 732 q 528 731 519 732 q 541 728 537 730 l 541 535 q 526 538 535 538 q 510 540 517 539 q 408 536 451 544 q 340 508 366 528 q 301 458 313 488 q 290 393 290 429 l 290 0 l 87 0 m 91 -276 l 91 -111 l 285 -111 l 285 -276 l 91 -276 z "},"ȓ":{"ha":572,"x_min":67,"x_max":553,"o":"m 87 0 l 87 718 l 282 718 l 282 548 q 331 644 299 603 q 408 709 363 685 q 510 732 453 732 q 528 731 519 732 q 541 728 537 730 l 541 535 q 526 538 535 538 q 510 540 517 539 q 408 536 451 544 q 340 508 366 528 q 301 458 313 488 q 290 393 290 429 l 290 0 l 87 0 m 67 801 q 115 899 79 860 q 201 958 150 938 q 310 978 251 978 q 420 958 369 978 q 507 898 471 938 q 553 801 542 859 l 426 801 q 385 857 415 835 q 310 879 354 879 q 235 857 265 879 q 194 801 206 835 l 67 801 z "},"s":{"ha":732,"x_min":53,"x_max":678,"o":"m 376 -14 q 232 11 301 -14 q 114 89 163 35 q 53 226 66 142 l 228 226 q 262 166 238 188 q 317 134 286 144 q 375 125 347 125 q 469 143 433 125 q 505 200 505 162 q 484 247 505 229 q 414 273 463 264 l 288 299 q 134 368 192 319 q 76 505 76 416 q 109 621 75 569 q 211 702 144 672 q 377 732 279 732 q 589 674 510 732 q 670 509 669 615 l 501 509 q 459 573 493 551 q 374 596 426 596 q 288 577 322 596 q 254 520 254 558 q 282 475 254 492 q 368 447 310 459 l 485 421 q 583 381 545 406 q 642 326 621 356 q 670 266 663 296 q 678 211 678 235 q 640 89 678 140 q 534 13 602 39 q 376 -14 466 -14 z "},"ś":{"ha":732,"x_min":53,"x_max":678,"o":"m 376 -14 q 232 11 301 -14 q 114 89 163 35 q 53 226 66 142 l 228 226 q 262 166 238 188 q 317 134 286 144 q 375 125 347 125 q 469 143 433 125 q 505 200 505 162 q 484 247 505 229 q 414 273 463 264 l 288 299 q 134 368 192 319 q 76 505 76 416 q 109 621 75 569 q 211 702 144 672 q 377 732 279 732 q 589 674 510 732 q 670 509 669 615 l 501 509 q 459 573 493 551 q 374 596 426 596 q 288 577 322 596 q 254 520 254 558 q 282 475 254 492 q 368 447 310 459 l 485 421 q 583 381 545 406 q 642 326 621 356 q 670 266 663 296 q 678 211 678 235 q 640 89 678 140 q 534 13 602 39 q 376 -14 466 -14 m 302 802 l 445 1004 l 654 1004 l 448 802 l 302 802 z "},"š":{"ha":732,"x_min":53,"x_max":678,"o":"m 376 -14 q 232 11 301 -14 q 114 89 163 35 q 53 226 66 142 l 228 226 q 262 166 238 188 q 317 134 286 144 q 375 125 347 125 q 469 143 433 125 q 505 200 505 162 q 484 247 505 229 q 414 273 463 264 l 288 299 q 134 368 192 319 q 76 505 76 416 q 109 621 75 569 q 211 702 144 672 q 377 732 279 732 q 589 674 510 732 q 670 509 669 615 l 501 509 q 459 573 493 551 q 374 596 426 596 q 288 577 322 596 q 254 520 254 558 q 282 475 254 492 q 368 447 310 459 l 485 421 q 583 381 545 406 q 642 326 621 356 q 670 266 663 296 q 678 211 678 235 q 640 89 678 140 q 534 13 602 39 q 376 -14 466 -14 m 308 802 l 125 983 l 276 983 l 377 879 l 469 983 l 627 983 l 449 802 l 308 802 z "},"ş":{"ha":732,"x_min":53,"x_max":678,"o":"m 365 -295 q 281 -287 322 -295 q 205 -258 240 -278 l 233 -190 q 282 -213 255 -203 q 340 -224 310 -224 q 391 -212 373 -224 q 409 -181 409 -201 q 383 -139 409 -153 q 292 -124 356 -124 q 280 -121 283 -124 q 281 -110 277 -119 l 331 7 l 421 7 l 390 -74 q 473 -92 442 -76 q 518 -134 504 -109 q 531 -183 531 -158 q 508 -243 531 -218 q 447 -282 485 -269 q 365 -295 409 -295 m 376 -14 q 232 11 301 -14 q 114 89 163 35 q 53 226 66 142 l 228 226 q 262 166 238 188 q 317 134 286 144 q 375 125 347 125 q 469 143 433 125 q 505 200 505 162 q 484 247 505 229 q 414 273 463 264 l 288 299 q 134 368 192 319 q 76 505 76 416 q 109 621 75 569 q 211 702 144 672 q 377 732 279 732 q 589 674 510 732 q 670 509 669 615 l 501 509 q 459 573 493 551 q 374 596 426 596 q 288 577 322 596 q 254 520 254 558 q 282 475 254 492 q 368 447 310 459 l 485 421 q 583 381 545 406 q 642 326 621 356 q 670 266 663 296 q 678 211 678 235 q 640 89 678 140 q 534 13 602 39 q 376 -14 466 -14 z "},"ŝ":{"ha":732,"x_min":53,"x_max":678,"o":"m 376 -14 q 232 11 301 -14 q 114 89 163 35 q 53 226 66 142 l 228 226 q 262 166 238 188 q 317 134 286 144 q 375 125 347 125 q 469 143 433 125 q 505 200 505 162 q 484 247 505 229 q 414 273 463 264 l 288 299 q 134 368 192 319 q 76 505 76 416 q 109 621 75 569 q 211 702 144 672 q 377 732 279 732 q 589 674 510 732 q 670 509 669 615 l 501 509 q 459 573 493 551 q 374 596 426 596 q 288 577 322 596 q 254 520 254 558 q 282 475 254 492 q 368 447 310 459 l 485 421 q 583 381 545 406 q 642 326 621 356 q 670 266 663 296 q 678 211 678 235 q 640 89 678 140 q 534 13 602 39 q 376 -14 466 -14 m 125 802 l 308 982 l 449 982 l 627 802 l 469 802 l 377 899 l 276 802 l 125 802 z "},"ș":{"ha":732,"x_min":53,"x_max":678,"o":"m 376 -14 q 232 11 301 -14 q 114 89 163 35 q 53 226 66 142 l 228 226 q 262 166 238 188 q 317 134 286 144 q 375 125 347 125 q 469 143 433 125 q 505 200 505 162 q 484 247 505 229 q 414 273 463 264 l 288 299 q 134 368 192 319 q 76 505 76 416 q 109 621 75 569 q 211 702 144 672 q 377 732 279 732 q 589 674 510 732 q 670 509 669 615 l 501 509 q 459 573 493 551 q 374 596 426 596 q 288 577 322 596 q 254 520 254 558 q 282 475 254 492 q 368 447 310 459 l 485 421 q 583 381 545 406 q 642 326 621 356 q 670 266 663 296 q 678 211 678 235 q 640 89 678 140 q 534 13 602 39 q 376 -14 466 -14 m 276 -306 l 340 -202 l 285 -195 l 285 -65 l 457 -65 l 457 -174 l 349 -306 l 276 -306 z "},"ṣ":{"ha":732,"x_min":53,"x_max":678,"o":"m 376 -14 q 232 11 301 -14 q 114 89 163 35 q 53 226 66 142 l 228 226 q 262 166 238 188 q 317 134 286 144 q 375 125 347 125 q 469 143 433 125 q 505 200 505 162 q 484 247 505 229 q 414 273 463 264 l 288 299 q 134 368 192 319 q 76 505 76 416 q 109 621 75 569 q 211 702 144 672 q 377 732 279 732 q 589 674 510 732 q 670 509 669 615 l 501 509 q 459 573 493 551 q 374 596 426 596 q 288 577 322 596 q 254 520 254 558 q 282 475 254 492 q 368 447 310 459 l 485 421 q 583 381 545 406 q 642 326 621 356 q 670 266 663 296 q 678 211 678 235 q 640 89 678 140 q 534 13 602 39 q 376 -14 466 -14 m 275 -276 l 275 -111 l 469 -111 l 469 -276 l 275 -276 z "},"ß":{"ha":871,"x_min":87,"x_max":817,"o":"m 524 -14 q 419 -1 467 -14 q 338 33 371 12 l 398 158 q 448 130 421 144 q 517 117 476 117 q 602 141 568 117 q 635 213 635 165 q 618 266 635 246 q 571 301 601 286 q 501 331 541 316 q 427 371 461 348 q 372 428 393 394 q 351 511 351 462 q 376 599 351 564 q 442 665 402 635 q 486 701 465 683 q 522 739 508 719 q 536 788 536 760 q 508 849 536 825 q 427 873 481 873 q 324 833 362 873 q 287 725 287 793 l 287 0 l 88 0 l 87 687 q 108 807 88 749 q 169 908 128 864 q 276 978 210 953 q 437 1004 342 1004 q 593 979 531 1004 q 688 907 656 953 q 719 799 719 860 q 699 713 719 749 q 639 650 679 677 q 539 597 599 623 q 509 578 518 586 q 499 558 499 571 q 508 539 499 545 q 540 525 517 532 q 638 481 589 504 q 728 426 688 458 q 793 348 769 394 q 817 234 817 301 q 780 98 817 153 q 677 14 743 42 q 524 -14 611 -14 z "},"t":{"ha":578,"x_min":42,"x_max":522,"o":"m 397 -8 q 250 17 301 -8 q 178 85 198 41 q 158 186 158 128 l 158 577 l 42 577 l 42 718 l 165 718 l 216 935 l 360 935 l 360 719 l 520 719 l 520 577 l 360 577 l 362 194 q 368 155 362 168 q 389 139 375 142 q 426 135 403 135 l 522 135 l 522 10 q 478 -2 508 3 q 397 -8 449 -8 z "},"ŧ":{"ha":578,"x_min":42,"x_max":522,"o":"m 55 342 l 55 457 l 506 457 l 506 342 l 55 342 m 397 -8 q 250 17 301 -8 q 178 85 198 41 q 158 186 158 128 l 158 577 l 42 577 l 42 718 l 165 718 l 216 935 l 360 935 l 360 719 l 520 719 l 520 577 l 360 577 l 362 194 q 368 155 362 168 q 389 139 375 142 q 426 135 403 135 l 522 135 l 522 10 q 478 -2 508 3 q 397 -8 449 -8 z "},"ť":{"ha":625,"x_min":42,"x_max":556,"o":"m 397 -8 q 250 17 301 -8 q 178 85 198 41 q 158 186 158 128 l 158 577 l 42 577 l 42 718 l 165 718 l 216 935 l 360 935 l 360 719 l 520 719 l 520 577 l 360 577 l 362 194 q 368 155 362 168 q 389 139 375 142 q 426 135 403 135 l 522 135 l 522 10 q 478 -2 508 3 q 397 -8 449 -8 m 410 777 l 467 917 l 418 926 l 418 1080 l 556 1080 l 556 918 l 497 777 l 410 777 z "},"ţ":{"ha":578,"x_min":42,"x_max":522,"o":"m 331 -287 q 248 -278 288 -287 q 172 -249 207 -270 l 199 -181 q 249 -205 221 -194 q 306 -215 276 -215 q 358 -204 340 -215 q 376 -172 376 -192 q 349 -130 376 -144 q 258 -115 323 -116 q 246 -113 249 -115 q 247 -102 243 -110 l 298 15 l 388 15 l 357 -66 q 440 -83 409 -67 q 484 -125 471 -100 q 497 -174 497 -149 q 474 -235 497 -210 q 414 -273 451 -260 q 331 -287 376 -287 m 397 -8 q 250 17 301 -8 q 178 85 198 41 q 158 186 158 128 l 158 577 l 42 577 l 42 718 l 165 718 l 216 935 l 360 935 l 360 719 l 520 719 l 520 577 l 360 577 l 362 194 q 368 155 362 168 q 389 139 375 142 q 426 135 403 135 l 522 135 l 522 10 q 478 -2 508 3 q 397 -8 449 -8 z "},"ț":{"ha":578,"x_min":42,"x_max":522,"o":"m 397 -8 q 250 17 301 -8 q 178 85 198 41 q 158 186 158 128 l 158 577 l 42 577 l 42 718 l 165 718 l 216 935 l 360 935 l 360 719 l 520 719 l 520 577 l 360 577 l 362 194 q 368 155 362 168 q 389 139 375 142 q 426 135 403 135 l 522 135 l 522 10 q 478 -2 508 3 q 397 -8 449 -8 m 243 -297 l 307 -194 l 251 -187 l 251 -57 l 424 -57 l 424 -165 l 315 -297 l 243 -297 z "},"ṭ":{"ha":578,"x_min":42,"x_max":522,"o":"m 397 -8 q 250 17 301 -8 q 178 85 198 41 q 158 186 158 128 l 158 577 l 42 577 l 42 718 l 165 718 l 216 935 l 360 935 l 360 719 l 520 719 l 520 577 l 360 577 l 362 194 q 368 155 362 168 q 389 139 375 142 q 426 135 403 135 l 522 135 l 522 10 q 478 -2 508 3 q 397 -8 449 -8 m 242 -268 l 242 -103 l 435 -103 l 435 -268 l 242 -268 z "},"u":{"ha":826,"x_min":78,"x_max":740,"o":"m 351 -14 q 253 1 301 -14 q 165 47 205 17 q 102 120 126 76 q 78 222 78 164 l 78 718 l 281 718 l 281 247 q 313 165 281 197 q 409 133 346 133 q 504 164 469 133 q 539 251 539 195 l 539 718 l 740 718 l 740 0 l 587 0 l 563 142 q 516 45 551 79 q 438 -1 482 12 q 351 -14 394 -14 z "},"ú":{"ha":826,"x_min":78,"x_max":740,"o":"m 351 -14 q 253 1 301 -14 q 165 47 205 17 q 102 120 126 76 q 78 222 78 164 l 78 718 l 281 718 l 281 247 q 313 165 281 197 q 409 133 346 133 q 504 164 469 133 q 539 251 539 195 l 539 718 l 740 718 l 740 0 l 587 0 l 563 142 q 516 45 551 79 q 438 -1 482 12 q 351 -14 394 -14 m 335 802 l 478 1004 l 687 1004 l 481 802 l 335 802 z "},"ŭ":{"ha":826,"x_min":78,"x_max":740,"o":"m 351 -14 q 253 1 301 -14 q 165 47 205 17 q 102 120 126 76 q 78 222 78 164 l 78 718 l 281 718 l 281 247 q 313 165 281 197 q 409 133 346 133 q 504 164 469 133 q 539 251 539 195 l 539 718 l 740 718 l 740 0 l 587 0 l 563 142 q 516 45 551 79 q 438 -1 482 12 q 351 -14 394 -14 m 410 802 q 301 822 352 802 q 215 881 250 842 q 167 979 179 921 l 295 979 q 335 923 306 944 q 410 901 365 901 q 485 923 455 901 q 527 979 515 944 l 654 979 q 607 882 642 921 q 520 822 572 842 q 410 802 469 802 z "},"ǔ":{"ha":826,"x_min":78,"x_max":740,"o":"m 351 -14 q 253 1 301 -14 q 165 47 205 17 q 102 120 126 76 q 78 222 78 164 l 78 718 l 281 718 l 281 247 q 313 165 281 197 q 409 133 346 133 q 504 164 469 133 q 539 251 539 195 l 539 718 l 740 718 l 740 0 l 587 0 l 563 142 q 516 45 551 79 q 438 -1 482 12 q 351 -14 394 -14 m 340 802 l 158 983 l 308 983 l 410 879 l 501 983 l 660 983 l 481 802 l 340 802 z "},"û":{"ha":826,"x_min":78,"x_max":740,"o":"m 351 -14 q 253 1 301 -14 q 165 47 205 17 q 102 120 126 76 q 78 222 78 164 l 78 718 l 281 718 l 281 247 q 313 165 281 197 q 409 133 346 133 q 504 164 469 133 q 539 251 539 195 l 539 718 l 740 718 l 740 0 l 587 0 l 563 142 q 516 45 551 79 q 438 -1 482 12 q 351 -14 394 -14 m 158 802 l 341 982 l 481 982 l 660 802 l 501 802 l 410 899 l 308 802 l 158 802 z "},"ȕ":{"ha":826,"x_min":-3,"x_max":740,"o":"m 351 -14 q 253 1 301 -14 q 165 47 205 17 q 102 120 126 76 q 78 222 78 164 l 78 718 l 281 718 l 281 247 q 313 165 281 197 q 409 133 346 133 q 504 164 469 133 q 539 251 539 195 l 539 718 l 740 718 l 740 0 l 587 0 l 563 142 q 516 45 551 79 q 438 -1 482 12 q 351 -14 394 -14 m 213 802 l -3 1004 l 188 1004 l 359 802 l 213 802 m 458 802 l 279 1004 l 465 1004 l 604 802 l 458 802 z "},"ü":{"ha":826,"x_min":78,"x_max":740,"o":"m 351 -14 q 253 1 301 -14 q 165 47 205 17 q 102 120 126 76 q 78 222 78 164 l 78 718 l 281 718 l 281 247 q 313 165 281 197 q 409 133 346 133 q 504 164 469 133 q 539 251 539 195 l 539 718 l 740 718 l 740 0 l 587 0 l 563 142 q 516 45 551 79 q 438 -1 482 12 q 351 -14 394 -14 m 476 839 l 478 1004 l 668 1004 l 667 839 l 476 839 m 153 839 l 155 1004 l 344 1004 l 343 839 l 153 839 z "},"ụ":{"ha":826,"x_min":78,"x_max":740,"o":"m 351 -14 q 253 1 301 -14 q 165 47 205 17 q 102 120 126 76 q 78 222 78 164 l 78 718 l 281 718 l 281 247 q 313 165 281 197 q 409 133 346 133 q 504 164 469 133 q 539 251 539 195 l 539 718 l 740 718 l 740 0 l 587 0 l 563 142 q 516 45 551 79 q 438 -1 482 12 q 351 -14 394 -14 m 317 -276 l 317 -111 l 511 -111 l 511 -276 l 317 -276 z "},"ù":{"ha":826,"x_min":78,"x_max":740,"o":"m 351 -14 q 253 1 301 -14 q 165 47 205 17 q 102 120 126 76 q 78 222 78 164 l 78 718 l 281 718 l 281 247 q 313 165 281 197 q 409 133 346 133 q 504 164 469 133 q 539 251 539 195 l 539 718 l 740 718 l 740 0 l 587 0 l 563 142 q 516 45 551 79 q 438 -1 482 12 q 351 -14 394 -14 m 335 802 l 130 1004 l 339 1004 l 482 802 l 335 802 z "},"ủ":{"ha":826,"x_min":78,"x_max":740,"o":"m 351 -14 q 253 1 301 -14 q 165 47 205 17 q 102 120 126 76 q 78 222 78 164 l 78 718 l 281 718 l 281 247 q 313 165 281 197 q 409 133 346 133 q 504 164 469 133 q 539 251 539 195 l 539 718 l 740 718 l 740 0 l 587 0 l 563 142 q 516 45 551 79 q 438 -1 482 12 q 351 -14 394 -14 m 468 801 l 420 876 q 457 917 448 894 q 452 963 467 940 q 413 985 440 984 q 360 970 385 987 l 313 1044 q 439 1075 376 1085 q 532 1015 501 1065 q 555 900 570 956 q 468 801 539 843 z "},"ư":{"ha":986,"x_min":78,"x_max":980,"o":"m 351 -14 q 253 1 301 -14 q 165 47 205 17 q 102 120 126 76 q 78 222 78 164 l 78 718 l 281 718 l 281 247 q 313 165 281 197 q 409 133 346 133 q 504 164 469 133 q 539 251 539 195 l 539 718 l 740 718 l 740 626 q 797 636 775 626 q 830 678 818 647 q 846 773 842 709 l 980 773 q 957 622 978 679 q 884 542 935 565 q 740 524 832 518 l 740 0 l 587 0 l 563 142 q 516 45 551 79 q 438 -1 482 12 q 351 -14 394 -14 z "},"ứ":{"ha":986,"x_min":78,"x_max":980,"o":"m 344 802 l 488 1004 l 697 1004 l 490 802 l 344 802 m 351 -14 q 253 1 301 -14 q 165 47 205 17 q 102 120 126 76 q 78 222 78 164 l 78 718 l 281 718 l 281 247 q 313 165 281 197 q 409 133 346 133 q 504 164 469 133 q 539 251 539 195 l 539 718 l 740 718 l 740 626 q 797 636 775 626 q 830 678 818 647 q 846 773 842 709 l 980 773 q 957 622 978 679 q 884 542 935 565 q 740 524 832 518 l 740 0 l 587 0 l 563 142 q 516 45 551 79 q 438 -1 482 12 q 351 -14 394 -14 z "},"ự":{"ha":986,"x_min":78,"x_max":980,"o":"m 311 -276 l 311 -111 l 505 -111 l 505 -276 l 311 -276 m 351 -14 q 253 1 301 -14 q 165 47 205 17 q 102 120 126 76 q 78 222 78 164 l 78 718 l 281 718 l 281 247 q 313 165 281 197 q 409 133 346 133 q 504 164 469 133 q 539 251 539 195 l 539 718 l 740 718 l 740 626 q 797 636 775 626 q 830 678 818 647 q 846 773 842 709 l 980 773 q 957 622 978 679 q 884 542 935 565 q 740 524 832 518 l 740 0 l 587 0 l 563 142 q 516 45 551 79 q 438 -1 482 12 q 351 -14 394 -14 z "},"ừ":{"ha":986,"x_min":78,"x_max":980,"o":"m 342 802 l 136 1004 l 345 1004 l 488 802 l 342 802 m 351 -14 q 253 1 301 -14 q 165 47 205 17 q 102 120 126 76 q 78 222 78 164 l 78 718 l 281 718 l 281 247 q 313 165 281 197 q 409 133 346 133 q 504 164 469 133 q 539 251 539 195 l 539 718 l 740 718 l 740 626 q 797 636 775 626 q 830 678 818 647 q 846 773 842 709 l 980 773 q 957 622 978 679 q 884 542 935 565 q 740 524 832 518 l 740 0 l 587 0 l 563 142 q 516 45 551 79 q 438 -1 482 12 q 351 -14 394 -14 z "},"ử":{"ha":986,"x_min":78,"x_max":980,"o":"m 474 801 l 426 876 q 463 917 453 894 q 458 963 472 940 q 418 985 445 984 q 366 970 391 987 l 319 1044 q 444 1075 382 1085 q 538 1015 506 1065 q 560 900 576 956 q 474 801 544 843 m 351 -14 q 253 1 301 -14 q 165 47 205 17 q 102 120 126 76 q 78 222 78 164 l 78 718 l 281 718 l 281 247 q 313 165 281 197 q 409 133 346 133 q 504 164 469 133 q 539 251 539 195 l 539 718 l 740 718 l 740 626 q 797 636 775 626 q 830 678 818 647 q 846 773 842 709 l 980 773 q 957 622 978 679 q 884 542 935 565 q 740 524 832 518 l 740 0 l 587 0 l 563 142 q 516 45 551 79 q 438 -1 482 12 q 351 -14 394 -14 z "},"ữ":{"ha":986,"x_min":78,"x_max":980,"o":"m 211 827 l 180 933 q 235 978 205 959 q 313 997 266 997 q 387 986 352 997 q 455 965 422 976 q 518 954 487 954 q 583 970 555 954 q 634 1002 612 985 l 659 882 q 601 849 638 865 q 519 833 565 833 q 448 843 480 833 q 386 862 417 853 q 320 872 356 872 q 261 861 285 872 q 211 827 238 850 m 351 -14 q 253 1 301 -14 q 165 47 205 17 q 102 120 126 76 q 78 222 78 164 l 78 718 l 281 718 l 281 247 q 313 165 281 197 q 409 133 346 133 q 504 164 469 133 q 539 251 539 195 l 539 718 l 740 718 l 740 626 q 797 636 775 626 q 830 678 818 647 q 846 773 842 709 l 980 773 q 957 622 978 679 q 884 542 935 565 q 740 524 832 518 l 740 0 l 587 0 l 563 142 q 516 45 551 79 q 438 -1 482 12 q 351 -14 394 -14 z "},"ű":{"ha":826,"x_min":78,"x_max":824,"o":"m 351 -14 q 253 1 301 -14 q 165 47 205 17 q 102 120 126 76 q 78 222 78 164 l 78 718 l 281 718 l 281 247 q 313 165 281 197 q 409 133 346 133 q 504 164 469 133 q 539 251 539 195 l 539 718 l 740 718 l 740 0 l 587 0 l 563 142 q 516 45 551 79 q 438 -1 482 12 q 351 -14 394 -14 m 461 802 l 633 1004 l 824 1004 l 608 802 l 461 802 m 216 802 l 356 1004 l 541 1004 l 363 802 l 216 802 z "},"ȗ":{"ha":826,"x_min":78,"x_max":740,"o":"m 351 -14 q 253 1 301 -14 q 165 47 205 17 q 102 120 126 76 q 78 222 78 164 l 78 718 l 281 718 l 281 247 q 313 165 281 197 q 409 133 346 133 q 504 164 469 133 q 539 251 539 195 l 539 718 l 740 718 l 740 0 l 587 0 l 563 142 q 516 45 551 79 q 438 -1 482 12 q 351 -14 394 -14 m 166 819 q 214 918 178 878 q 300 977 249 957 q 409 997 351 997 q 519 976 468 997 q 606 917 570 956 q 653 819 642 878 l 526 819 q 484 876 515 853 q 409 898 453 898 q 334 876 364 898 q 294 819 305 853 l 166 819 z "},"ū":{"ha":826,"x_min":78,"x_max":740,"o":"m 351 -14 q 253 1 301 -14 q 165 47 205 17 q 102 120 126 76 q 78 222 78 164 l 78 718 l 281 718 l 281 247 q 313 165 281 197 q 409 133 346 133 q 504 164 469 133 q 539 251 539 195 l 539 718 l 740 718 l 740 0 l 587 0 l 563 142 q 516 45 551 79 q 438 -1 482 12 q 351 -14 394 -14 m 167 837 l 167 967 l 655 967 l 655 837 l 167 837 z "},"ų":{"ha":826,"x_min":78,"x_max":756,"o":"m 351 -14 q 253 1 301 -14 q 165 47 205 17 q 102 120 126 76 q 78 222 78 164 l 78 718 l 281 718 l 281 247 q 313 165 281 197 q 409 133 346 133 q 504 164 469 133 q 539 251 539 195 l 539 718 l 740 718 l 740 0 l 587 0 l 563 142 q 516 45 551 79 q 438 -1 482 12 q 351 -14 394 -14 m 610 -234 q 499 -205 539 -234 q 459 -120 459 -176 q 485 -50 459 -82 q 592 10 511 -17 l 734 6 q 633 -44 660 -21 q 606 -95 606 -67 q 617 -128 606 -117 q 656 -140 629 -140 q 712 -130 688 -140 q 756 -109 736 -121 l 756 -201 q 697 -223 737 -212 q 610 -234 657 -234 z "},"ů":{"ha":826,"x_min":78,"x_max":740,"o":"m 351 -14 q 253 1 301 -14 q 165 47 205 17 q 102 120 126 76 q 78 222 78 164 l 78 718 l 281 718 l 281 247 q 313 165 281 197 q 409 133 346 133 q 504 164 469 133 q 539 251 539 195 l 539 718 l 740 718 l 740 0 l 587 0 l 563 142 q 516 45 551 79 q 438 -1 482 12 q 351 -14 394 -14 m 411 788 q 304 833 348 788 q 260 942 260 877 q 305 1045 260 1003 q 411 1088 349 1088 q 487 1068 453 1088 q 542 1014 522 1048 q 563 939 563 981 q 518 832 563 876 q 411 788 474 788 m 410 867 q 459 889 439 867 q 478 938 478 910 q 459 988 478 968 q 410 1007 439 1007 q 360 988 381 1007 q 339 938 339 968 q 360 889 339 910 q 410 867 381 867 z "},"ũ":{"ha":826,"x_min":78,"x_max":740,"o":"m 351 -14 q 253 1 301 -14 q 165 47 205 17 q 102 120 126 76 q 78 222 78 164 l 78 718 l 281 718 l 281 247 q 313 165 281 197 q 409 133 346 133 q 504 164 469 133 q 539 251 539 195 l 539 718 l 740 718 l 740 0 l 587 0 l 563 142 q 516 45 551 79 q 438 -1 482 12 q 351 -14 394 -14 m 206 827 l 175 933 q 231 978 200 959 q 308 997 261 997 q 382 986 347 997 q 450 965 417 976 q 513 954 482 954 q 578 970 550 954 q 629 1002 607 985 l 654 882 q 597 849 633 865 q 514 833 560 833 q 443 843 475 833 q 381 862 412 853 q 315 872 351 872 q 257 861 280 872 q 206 827 233 850 z "},"v":{"ha":723,"x_min":19,"x_max":705,"o":"m 288 0 l 19 718 l 202 718 l 359 260 l 365 260 l 519 718 l 705 718 l 435 0 l 288 0 z "},"w":{"ha":1095,"x_min":21,"x_max":1075,"o":"m 253 0 l 21 718 l 200 718 l 338 273 l 342 273 l 474 718 l 619 718 l 753 273 l 758 273 l 892 718 l 1075 718 l 839 0 l 677 0 l 544 435 l 410 0 l 253 0 z "},"ẃ":{"ha":1095,"x_min":21,"x_max":1075,"o":"m 253 0 l 21 718 l 200 718 l 338 273 l 342 273 l 474 718 l 619 718 l 753 273 l 758 273 l 892 718 l 1075 718 l 839 0 l 677 0 l 544 435 l 410 0 l 253 0 m 478 802 l 621 1004 l 830 1004 l 624 802 l 478 802 z "},"ŵ":{"ha":1095,"x_min":21,"x_max":1075,"o":"m 253 0 l 21 718 l 200 718 l 338 273 l 342 273 l 474 718 l 619 718 l 753 273 l 758 273 l 892 718 l 1075 718 l 839 0 l 677 0 l 544 435 l 410 0 l 253 0 m 301 802 l 484 982 l 624 982 l 803 802 l 644 802 l 553 899 l 451 802 l 301 802 z "},"ẅ":{"ha":1095,"x_min":21,"x_max":1075,"o":"m 253 0 l 21 718 l 200 718 l 338 273 l 342 273 l 474 718 l 619 718 l 753 273 l 758 273 l 892 718 l 1075 718 l 839 0 l 677 0 l 544 435 l 410 0 l 253 0 m 619 839 l 622 1004 l 811 1004 l 810 839 l 619 839 m 296 839 l 298 1004 l 488 1004 l 486 839 l 296 839 z "},"ẁ":{"ha":1095,"x_min":21,"x_max":1075,"o":"m 253 0 l 21 718 l 200 718 l 338 273 l 342 273 l 474 718 l 619 718 l 753 273 l 758 273 l 892 718 l 1075 718 l 839 0 l 677 0 l 544 435 l 410 0 l 253 0 m 478 802 l 273 1004 l 482 1004 l 625 802 l 478 802 z "},"x":{"ha":817,"x_min":24,"x_max":792,"o":"m 24 0 l 300 374 l 48 718 l 260 718 l 410 517 l 558 718 l 770 718 l 516 374 l 792 0 l 580 0 l 408 234 l 237 0 l 24 0 z "},"y":{"ha":782,"x_min":19,"x_max":764,"o":"m 199 -229 q 95 -217 126 -229 q 65 -205 65 -205 l 65 -76 l 136 -78 q 211 -74 183 -81 q 254 -55 240 -67 q 275 -30 269 -43 q 285 -10 282 -17 l 298 30 l 19 718 l 219 718 l 392 250 l 565 718 l 764 718 l 473 -4 q 393 -144 435 -96 q 303 -211 351 -193 q 199 -229 255 -229 z "},"ý":{"ha":782,"x_min":19,"x_max":764,"o":"m 199 -229 q 95 -217 126 -229 q 65 -205 65 -205 l 65 -76 l 136 -78 q 211 -74 183 -81 q 254 -55 240 -67 q 275 -30 269 -43 q 285 -10 282 -17 l 298 30 l 19 718 l 219 718 l 392 250 l 565 718 l 764 718 l 473 -4 q 393 -144 435 -96 q 303 -211 351 -193 q 199 -229 255 -229 m 315 802 l 458 1004 l 667 1004 l 461 802 l 315 802 z "},"ŷ":{"ha":782,"x_min":19,"x_max":764,"o":"m 199 -229 q 95 -217 126 -229 q 65 -205 65 -205 l 65 -76 l 136 -78 q 211 -74 183 -81 q 254 -55 240 -67 q 275 -30 269 -43 q 285 -10 282 -17 l 298 30 l 19 718 l 219 718 l 392 250 l 565 718 l 764 718 l 473 -4 q 393 -144 435 -96 q 303 -211 351 -193 q 199 -229 255 -229 m 144 802 l 328 982 l 468 982 l 647 802 l 488 802 l 397 899 l 295 802 l 144 802 z "},"ÿ":{"ha":782,"x_min":19,"x_max":764,"o":"m 199 -229 q 95 -217 126 -229 q 65 -205 65 -205 l 65 -76 l 136 -78 q 211 -74 183 -81 q 254 -55 240 -67 q 275 -30 269 -43 q 285 -10 282 -17 l 298 30 l 19 718 l 219 718 l 392 250 l 565 718 l 764 718 l 473 -4 q 393 -144 435 -96 q 303 -211 351 -193 q 199 -229 255 -229 m 458 839 l 460 1004 l 649 1004 l 648 839 l 458 839 m 134 839 l 136 1004 l 326 1004 l 324 839 l 134 839 z "},"ỵ":{"ha":782,"x_min":19,"x_max":764,"o":"m 199 -229 q 95 -217 126 -229 q 65 -205 65 -205 l 65 -76 l 136 -78 q 211 -74 183 -81 q 254 -55 240 -67 q 275 -30 269 -43 q 285 -10 282 -17 l 298 30 l 19 718 l 219 718 l 392 250 l 565 718 l 764 718 l 473 -4 q 393 -144 435 -96 q 303 -211 351 -193 q 199 -229 255 -229 m 504 -249 l 504 -83 l 698 -83 l 698 -249 l 504 -249 z "},"ỳ":{"ha":782,"x_min":19,"x_max":764,"o":"m 199 -229 q 95 -217 126 -229 q 65 -205 65 -205 l 65 -76 l 136 -78 q 211 -74 183 -81 q 254 -55 240 -67 q 275 -30 269 -43 q 285 -10 282 -17 l 298 30 l 19 718 l 219 718 l 392 250 l 565 718 l 764 718 l 473 -4 q 393 -144 435 -96 q 303 -211 351 -193 q 199 -229 255 -229 m 317 802 l 111 1004 l 320 1004 l 463 802 l 317 802 z "},"ỷ":{"ha":782,"x_min":19,"x_max":764,"o":"m 199 -229 q 95 -217 126 -229 q 65 -205 65 -205 l 65 -76 l 136 -78 q 211 -74 183 -81 q 254 -55 240 -67 q 275 -30 269 -43 q 285 -10 282 -17 l 298 30 l 19 718 l 219 718 l 392 250 l 565 718 l 764 718 l 473 -4 q 393 -144 435 -96 q 303 -211 351 -193 q 199 -229 255 -229 m 449 801 l 401 876 q 438 917 428 894 q 433 963 447 940 q 393 985 420 984 q 341 970 366 987 l 294 1044 q 419 1075 357 1085 q 513 1015 481 1065 q 535 900 551 956 q 449 801 519 843 z "},"ỹ":{"ha":782,"x_min":19,"x_max":764,"o":"m 199 -229 q 95 -217 126 -229 q 65 -205 65 -205 l 65 -76 l 136 -78 q 211 -74 183 -81 q 254 -55 240 -67 q 275 -30 269 -43 q 285 -10 282 -17 l 298 30 l 19 718 l 219 718 l 392 250 l 565 718 l 764 718 l 473 -4 q 393 -144 435 -96 q 303 -211 351 -193 q 199 -229 255 -229 m 187 827 l 156 933 q 211 978 181 959 q 289 997 242 997 q 363 986 328 997 q 430 965 398 976 q 494 954 463 954 q 559 970 531 954 q 610 1002 588 985 l 635 882 q 577 849 613 865 q 494 833 541 833 q 424 843 456 833 q 362 862 392 853 q 296 872 331 872 q 237 861 260 872 q 187 827 214 850 z "},"z":{"ha":690,"x_min":44,"x_max":646,"o":"m 44 0 l 44 113 l 398 576 l 62 576 l 62 718 l 644 718 l 644 605 l 289 142 l 646 142 l 646 0 l 44 0 z "},"ź":{"ha":690,"x_min":44,"x_max":646,"o":"m 44 0 l 44 113 l 398 576 l 62 576 l 62 718 l 644 718 l 644 605 l 289 142 l 646 142 l 646 0 l 44 0 m 272 802 l 415 1004 l 624 1004 l 417 802 l 272 802 z "},"ž":{"ha":690,"x_min":44,"x_max":646,"o":"m 44 0 l 44 113 l 398 576 l 62 576 l 62 718 l 644 718 l 644 605 l 289 142 l 646 142 l 646 0 l 44 0 m 277 802 l 94 983 l 245 983 l 347 879 l 438 983 l 597 983 l 418 802 l 277 802 z "},"ż":{"ha":690,"x_min":44,"x_max":646,"o":"m 44 0 l 44 113 l 398 576 l 62 576 l 62 718 l 644 718 l 644 605 l 289 142 l 646 142 l 646 0 l 44 0 m 250 839 l 250 1004 l 444 1004 l 444 839 l 250 839 z "},"ẓ":{"ha":690,"x_min":44,"x_max":646,"o":"m 44 0 l 44 113 l 398 576 l 62 576 l 62 718 l 644 718 l 644 605 l 289 142 l 646 142 l 646 0 l 44 0 m 251 -276 l 251 -111 l 445 -111 l 445 -276 l 251 -276 z "},"ﬁ":{"ha":922,"x_min":35,"x_max":835,"o":"m 167 0 l 167 577 l 35 577 l 35 718 l 167 718 l 167 822 q 219 956 167 908 q 363 1004 270 1004 l 528 1004 l 529 869 l 434 869 q 381 850 396 869 q 367 788 367 831 l 367 718 l 522 718 l 522 577 l 371 577 l 371 0 l 167 0 m 640 0 l 640 718 l 833 718 l 833 0 l 640 0 m 638 821 l 638 1003 l 835 1003 l 835 821 l 638 821 z "},"ﬂ":{"ha":1008,"x_min":35,"x_max":951,"o":"m 167 0 l 167 577 l 35 577 l 35 718 l 167 718 l 167 822 q 219 956 167 908 q 363 1004 270 1004 l 528 1004 l 529 869 l 434 869 q 381 850 396 869 q 367 788 367 831 l 367 718 l 522 718 l 522 577 l 371 577 l 371 0 l 167 0 m 867 -12 q 741 6 788 -12 q 672 56 694 25 q 644 125 650 87 q 638 201 638 163 l 638 1032 l 836 1032 l 836 226 q 853 162 836 187 q 917 132 870 138 l 951 130 l 951 5 q 909 -7 931 -2 q 867 -12 888 -12 z "},"ª":{"ha":565,"x_min":58,"x_max":488,"o":"m 206 551 q 96 586 135 551 q 58 679 58 622 q 120 789 58 747 q 294 834 183 831 l 347 837 l 347 867 q 324 919 347 906 q 274 933 301 933 q 223 921 247 933 q 182 874 199 909 l 69 899 q 142 987 94 957 q 279 1017 189 1017 q 430 978 386 1016 q 473 873 473 940 q 473 777 473 815 q 473 699 473 740 q 473 673 473 691 q 475 634 474 654 q 478 601 476 614 l 488 560 l 358 560 l 347 608 q 280 566 310 580 q 206 551 249 551 m 256 634 q 325 658 297 634 q 341 677 335 668 q 347 699 347 686 l 347 766 l 303 764 q 218 741 249 762 q 187 687 187 721 q 205 649 187 663 q 256 634 224 634 z "},"º":{"ha":560,"x_min":53,"x_max":508,"o":"m 280 552 q 160 582 211 552 q 81 663 108 611 q 53 783 53 715 q 82 906 53 853 q 163 988 111 958 q 280 1017 214 1017 q 400 988 349 1017 q 479 905 451 958 q 508 783 508 851 q 479 663 508 715 q 400 582 451 611 q 280 552 349 552 m 280 641 q 350 678 327 641 q 373 786 373 715 q 350 894 373 858 q 280 931 327 931 q 210 894 233 931 q 188 786 188 858 q 210 678 188 715 q 280 641 233 641 z "},"π":{"ha":937,"x_min":32,"x_max":895,"o":"m 79 0 q 108 129 94 58 q 132 276 122 200 q 149 426 143 352 q 156 563 156 499 q 144 577 156 577 l 32 577 l 32 718 l 895 718 l 895 577 l 764 577 l 764 0 l 569 0 l 569 577 l 350 577 q 343 430 350 510 q 326 271 337 351 q 300 120 315 191 q 268 0 285 50 l 79 0 z "},"⁰":{"ha":558,"x_min":36,"x_max":523,"o":"m 280 509 q 100 593 163 509 q 36 831 36 676 q 100 1072 36 985 q 280 1158 165 1158 q 459 1072 395 1158 q 523 831 523 985 q 460 593 523 677 q 280 509 397 509 m 280 614 q 363 665 338 614 q 388 830 388 715 q 362 1001 388 948 q 279 1054 336 1054 q 197 1001 223 1054 q 171 830 171 947 q 197 665 171 716 q 280 614 222 614 z "},"¹":{"ha":356,"x_min":29,"x_max":274,"o":"m 142 517 l 142 988 l 29 988 l 29 1062 q 145 1084 110 1062 q 186 1149 181 1107 l 274 1149 l 274 517 l 142 517 z "},"²":{"ha":544,"x_min":29,"x_max":506,"o":"m 41 519 l 41 583 l 41 615 q 65 710 41 671 q 126 776 88 749 q 206 825 164 803 q 285 866 248 846 q 347 909 323 885 q 371 967 371 933 q 344 1028 371 1005 q 274 1052 318 1052 q 194 1025 228 1052 q 153 942 160 998 l 29 942 q 57 1052 29 1003 q 140 1130 85 1101 q 277 1159 194 1159 q 445 1107 383 1159 q 506 968 506 1054 q 483 875 506 913 q 423 811 460 837 q 345 766 387 785 q 268 729 304 747 q 208 689 231 711 q 185 633 185 666 l 185 628 l 506 628 l 506 519 l 41 519 z "},"³":{"ha":590,"x_min":43,"x_max":547,"o":"m 284 511 q 107 567 169 512 q 43 717 44 622 l 167 717 q 209 640 176 663 q 285 616 242 616 q 377 640 344 616 q 410 703 410 665 q 377 766 410 742 q 290 792 345 790 l 229 794 l 229 897 l 284 900 q 342 913 317 901 q 381 942 367 924 q 395 985 395 960 q 364 1039 395 1019 q 285 1059 333 1059 q 230 1049 256 1059 q 189 1016 205 1039 q 171 956 173 994 l 47 956 q 78 1068 47 1023 q 165 1137 110 1114 q 288 1160 219 1160 q 414 1141 358 1160 q 501 1086 469 1123 q 533 990 533 1049 q 506 908 533 944 q 419 852 479 873 q 509 801 471 838 q 547 699 547 764 q 512 595 547 637 q 417 532 476 553 q 284 511 357 511 z "},"⁴":{"ha":569,"x_min":29,"x_max":540,"o":"m 318 517 l 319 657 l 29 657 l 29 763 l 316 1149 l 443 1149 l 443 765 l 540 765 l 540 657 l 443 657 l 443 517 l 318 517 m 149 765 l 319 765 l 319 992 l 149 765 z "},"⁵":{"ha":585,"x_min":36,"x_max":549,"o":"m 303 508 q 138 550 210 508 q 36 658 65 592 l 138 716 q 199 641 164 671 q 290 612 235 612 q 380 642 347 612 q 414 719 414 672 q 381 794 414 764 q 294 824 348 824 q 241 816 265 824 q 184 783 216 808 q 176 781 178 781 q 167 784 174 781 l 74 826 l 102 1149 l 509 1149 l 504 1042 l 205 1042 l 193 895 q 258 921 227 912 q 328 930 289 930 q 441 906 390 930 q 520 835 491 881 q 549 724 549 790 q 483 566 549 624 q 303 508 416 508 z "},"⁶":{"ha":572,"x_min":36,"x_max":537,"o":"m 297 511 q 105 595 174 511 q 36 821 36 680 q 108 1069 36 980 q 301 1158 179 1158 q 412 1136 361 1158 q 494 1073 463 1114 q 528 974 526 1031 l 410 974 q 371 1035 398 1015 q 304 1055 344 1055 q 204 1000 237 1055 q 179 858 172 945 q 241 903 203 888 q 322 918 279 918 q 478 865 419 918 q 537 724 537 811 q 506 614 537 662 q 422 538 476 565 q 297 511 367 511 m 292 609 q 368 639 337 609 q 399 718 399 669 q 368 796 399 772 q 292 820 336 820 q 240 808 265 820 q 200 778 216 796 q 185 742 185 760 q 214 644 184 678 q 292 609 244 609 z "},"⁷":{"ha":517,"x_min":29,"x_max":502,"o":"m 144 519 q 172 656 148 570 q 243 843 195 741 q 366 1044 290 945 l 29 1044 l 29 1151 l 502 1151 l 502 1044 q 427 931 465 999 q 357 789 389 864 q 305 644 325 715 q 283 519 285 573 l 144 519 z "},"⁸":{"ha":597,"x_min":43,"x_max":553,"o":"m 299 510 q 114 560 184 510 q 43 694 43 609 q 60 763 43 731 q 105 817 78 794 q 160 847 132 840 q 96 899 122 866 q 70 980 70 933 q 135 1111 70 1065 q 299 1158 200 1158 q 462 1111 398 1158 q 526 980 526 1065 q 501 899 526 933 q 436 847 476 866 q 493 817 466 840 q 536 763 519 794 q 553 694 553 731 q 483 560 553 609 q 299 510 413 510 m 299 608 q 385 632 353 608 q 416 698 416 657 q 384 765 416 740 q 299 791 353 791 q 213 765 244 791 q 181 698 181 740 q 212 632 181 657 q 299 608 243 608 m 299 897 q 370 920 342 897 q 397 983 397 943 q 369 1047 397 1023 q 299 1070 342 1070 q 228 1047 256 1070 q 200 983 200 1023 q 227 920 200 943 q 299 897 255 897 z "},"⁹":{"ha":572,"x_min":38,"x_max":535,"o":"m 269 510 q 157 533 208 510 q 74 598 106 556 q 38 694 42 639 l 161 694 q 196 635 169 657 q 263 613 223 613 q 371 660 331 613 q 405 815 411 708 q 347 763 384 782 q 258 744 310 744 q 100 798 161 744 q 38 944 38 853 q 68 1055 38 1007 q 152 1131 98 1103 q 276 1158 206 1158 q 467 1073 398 1158 q 535 847 535 988 q 464 593 535 676 q 269 510 392 510 m 280 847 q 331 859 306 847 q 372 890 356 872 q 388 926 388 908 q 358 1025 388 990 q 280 1060 328 1060 q 206 1030 235 1060 q 177 950 177 999 q 207 873 177 899 q 280 847 236 847 z "},"⁄":{"ha":329,"x_min":-232,"x_max":563,"o":"m -112 -6 l -232 -3 l 445 1015 l 563 1015 l -112 -6 z "}}}
